SplineFontDB: 3.0
FontName: Untitled1
FullName: Untitled1
FamilyName: Untitled1
Weight: Medium
Copyright: Created by Martin Hosken,,, with FontForge 2.0 (http://fontforge.sf.net)
UComments: "2011-8-10: Created." 
Version: 001.000
ItalicAngle: 0
UnderlinePosition: -100
UnderlineWidth: 50
Ascent: 800
Descent: 200
LayerCount: 2
Layer: 0 0 "Back"  1
Layer: 1 0 "Fore"  0
XUID: [1021 761 895574965 7906546]
OS2Version: 0
OS2_WeightWidthSlopeOnly: 0
OS2_UseTypoMetrics: 1
CreationTime: 1312959430
ModificationTime: 1337144783
OS2TypoAscent: 0
OS2TypoAOffset: 1
OS2TypoDescent: 0
OS2TypoDOffset: 1
OS2TypoLinegap: 0
OS2WinAscent: 0
OS2WinAOffset: 1
OS2WinDescent: 0
OS2WinDOffset: 1
HheadAscent: 0
HheadAOffset: 1
HheadDescent: 0
HheadDOffset: 1
OS2Vendor: 'PfEd'
Lookup: 4 0 0 "cligContextualLigaturesinMyanma"  {"cligContextualLigaturesinMyanma subtable"  } ['clig' ('mymr' <'dflt' 'KHT ' 'KSW ' 'KYU ' > ) ]
Lookup: 2 0 0 "sub_mult_cligmymr_0"  {"sub_mult_cligmymr_0 subtable"  } ['clig' ('mymr' <'dflt' 'KHT ' 'KSW ' 'KYU ' > ) ]
Lookup: 4 0 0 "LigatureSubstitutionlookup103"  {"LigatureSubstitutionlookup103 subtable"  } []
Lookup: 6 0 0 "sub_chain_cligmymr_0"  {"sub_chain_cligmymr_0 contextual 0"  "sub_chain_cligmymr_0 contextual 1"  "sub_chain_cligmymr_0 contextual 2"  "sub_chain_cligmymr_0 contextual 3"  "sub_chain_cligmymr_0 contextual 4"  "sub_chain_cligmymr_0 contextual 5"  "sub_chain_cligmymr_0 contextual 6"  "sub_chain_cligmymr_0 contextual 7"  "sub_chain_cligmymr_0 contextual 8"  "sub_chain_cligmymr_0 contextual 9"  } ['clig' ('mymr' <'dflt' 'KHT ' 'KSW ' 'KYU ' > ) ]
Lookup: 4 0 0 "LigatureSubstitutionlookup104"  {"LigatureSubstitutionlookup104 subtable"  } []
Lookup: 6 0 0 "sub_chain_cligmymr_2"  {"sub_chain_cligmymr_2 contextual 0"  "sub_chain_cligmymr_2 contextual 1"  "sub_chain_cligmymr_2 contextual 2"  "sub_chain_cligmymr_2 contextual 3"  "sub_chain_cligmymr_2 contextual 4"  "sub_chain_cligmymr_2 contextual 5"  } ['clig' ('mymr' <'dflt' 'KHT ' 'KSW ' 'KYU ' > ) ]

StartChar: .notdef
Encoding: 65536 -1 0
Width: 0
VWidth: 0
GlyphClass: 2
HStem: 0 51<106 471> 408 51<106 471>
VStem: 55 51<51 408> 471 49<51 408>
LayerCount: 2
Fore
SplineSet
106 408 m 0
 106 51 l 0
 471 51 l 0
 471 408 l 0
 106 408 l 0
520 459 m 0
 520 0 l 0
 55 0 l 0
 55 459 l 0
 520 459 l 0
EndSplineSet
EndChar

StartChar: exclam
Encoding: 33 33 2
Width: 229
VWidth: 0
GlyphClass: 2
Flags: HW
LayerCount: 2
Fore
SplineSet
115 813 m 0
 97 813 83 799 81 757 c 0
 80 743 80 725 80 706 c 0
 80 548 84 406 99 269 c 0
 108 187 109 180 115 180 c 0
 121 180 122 187 131 268 c 0
 146 406 151 548 151 706 c 0
 151 725 151 743 150 757 c 0
 148 799 133 813 115 813 c 0
174 42 m 0
 174 73 146 99 115 99 c 0
 84 99 56 73 56 42 c 0
 56 11 84 -15 115 -15 c 0
 146 -15 174 11 174 42 c 0
EndSplineSet
EndChar

StartChar: quotedbl
Encoding: 34 34 3
Width: 403
VWidth: 0
GlyphClass: 2
Flags: HW
LayerCount: 2
Fore
SplineSet
156 643 m 0
 61 643 l 0
 82 387 l 0
 135 387 l 0
 156 643 l 0
340 643 m 0
 246 643 l 0
 265 387 l 0
 319 387 l 0
 340 643 l 0
EndSplineSet
EndChar

StartChar: numbersign
Encoding: 35 35 4
Width: 516
VWidth: 0
GlyphClass: 2
Flags: HW
LayerCount: 2
Fore
SplineSet
324 282 m 0
 309 162 l 0
 189 162 l 0
 204 282 l 0
 324 282 l 0
460 111 m 0
 460 162 l 0
 360 162 l 0
 375 282 l 0
 460 282 l 0
 460 333 l 0
 382 333 l 0
 402 489 l 0
 351 489 l 0
 331 333 l 0
 211 333 l 0
 231 489 l 0
 180 489 l 0
 160 333 l 0
 55 333 l 0
 55 282 l 0
 153 282 l 0
 138 162 l 0
 55 162 l 0
 55 111 l 0
 132 111 l 0
 114 -30 l 0
 165 -30 l 0
 183 111 l 0
 303 111 l 0
 285 -30 l 0
 336 -30 l 0
 354 111 l 0
 460 111 l 0
EndSplineSet
EndChar

StartChar: dollar
Encoding: 36 36 5
Width: 498
VWidth: 0
GlyphClass: 2
Flags: HW
LayerCount: 2
Fore
SplineSet
376 166 m 0
 376 90 343 67 273 66 c 0
 273 282 l 0
 333 267 376 262 376 166 c 0
228 373 m 0
 165 391 129 388 129 462 c 0
 129 513 133 558 228 558 c 0
 228 373 l 0
466 172 m 0
 466 339 334 349 273 363 c 0
 273 558 l 0
 333 558 351 537 351 466 c 0
 441 466 l 0
 441 555 393 637 273 637 c 0
 273 708 l 0
 228 708 l 0
 228 636 l 0
 105 636 39 562 39 465 c 0
 39 333 126 312 228 286 c 0
 228 64 l 0
 144 64 121 121 121 186 c 0
 31 186 l 0
 31 67 94 -14 228 -14 c 0
 228 -93 l 0
 273 -93 l 0
 273 -12 l 0
 373 -6 466 37 466 172 c 0
EndSplineSet
EndChar

StartChar: percent
Encoding: 37 37 6
Width: 624
VWidth: 0
GlyphClass: 2
Flags: HW
LayerCount: 2
Fore
SplineSet
546 94 m 0
 546 54 511 19 472 19 c 0
 430 19 397 54 397 94 c 0
 397 135 429 169 472 169 c 0
 511 169 546 135 546 94 c 0
226 334 m 0
 226 294 192 259 153 259 c 0
 111 259 78 294 78 334 c 0
 78 375 110 409 153 409 c 0
 192 409 226 375 226 334 c 0
595 94 m 0
 595 162 538 219 472 219 c 0
 405 219 348 162 348 94 c 0
 348 30 405 -30 472 -30 c 0
 538 -30 595 30 595 94 c 0
276 334 m 0
 276 402 219 459 153 459 c 0
 85 459 28 402 28 334 c 0
 28 270 85 210 153 210 c 0
 219 210 276 270 276 334 c 0
519 463 m 0
 477 495 l 0
 105 -35 l 0
 144 -68 l 0
 519 463 l 0
EndSplineSet
EndChar

StartChar: ampersand
Encoding: 38 38 7
Width: 682
VWidth: 0
GlyphClass: 2
Flags: HW
LayerCount: 2
Fore
SplineSet
432 116 m 0
 384 74 328 63 274 63 c 0
 196 63 142 141 142 187 c 0
 142 246 186 312 235 324 c 0
 295 253 363 178 432 116 c 0
373 524 m 0
 373 482 325 437 264 412 c 0
 231 453 211 486 211 520 c 0
 211 556 234 589 295 589 c 0
 336 589 373 560 373 524 c 0
675 0 m 0
 634 30 553 101 531 129 c 0
 568 201 581 275 579 366 c 0
 486 366 l 0
 494 298 496 244 475 184 c 0
 416 243 360 300 307 366 c 0
 364 397 447 441 447 532 c 0
 447 607 378 655 283 655 c 0
 193 655 124 596 124 513 c 0
 124 465 156 415 193 375 c 0
 118 341 52 293 52 184 c 0
 52 66 153 -12 271 -12 c 0
 357 -12 432 24 480 63 c 0
 550 0 l 0
 675 0 l 0
EndSplineSet
EndChar

StartChar: quotesingle
Encoding: 39 39 8
Width: 328
VWidth: 0
GlyphClass: 2
Flags: HW
LayerCount: 2
Fore
SplineSet
210 643 m 0
 117 643 l 0
 136 387 l 0
 190 387 l 0
 210 643 l 0
EndSplineSet
EndChar

StartChar: parenleft
Encoding: 40 40 9
Width: 396
VWidth: 0
GlyphClass: 2
Flags: HW
LayerCount: 2
Fore
SplineSet
340 -450 m 0
 188 -262 126 -41 126 210 c 0
 126 500 193 703 340 903 c 0
 289 903 l 0
 137 692 75 482 75 210 c 0
 75 -49 132 -256 289 -450 c 0
 340 -450 l 0
EndSplineSet
EndChar

StartChar: parenright
Encoding: 41 41 10
Width: 396
VWidth: 0
GlyphClass: 2
Flags: HW
LayerCount: 2
Fore
SplineSet
321 222 m 0
 321 494 258 704 106 915 c 0
 55 915 l 0
 202 715 270 512 270 222 c 0
 270 -27 207 -251 55 -438 c 0
 106 -438 l 0
 264 -243 321 -38 321 222 c 0
EndSplineSet
EndChar

StartChar: asterisk
Encoding: 42 42 11
Width: 564
VWidth: 0
GlyphClass: 2
Flags: HW
LayerCount: 2
Fore
SplineSet
509 358 m 0
 337 456 l 0
 509 555 l 0
 479 602 l 0
 311 506 l 0
 311 701 l 0
 252 701 l 0
 252 505 l 0
 84 602 l 0
 55 555 l 0
 226 456 l 0
 55 358 l 0
 84 308 l 0
 255 407 l 0
 255 211 l 0
 311 211 l 0
 311 407 l 0
 479 308 l 0
 509 358 l 0
EndSplineSet
EndChar

StartChar: plus
Encoding: 43 43 12
Width: 570
VWidth: 0
GlyphClass: 2
Flags: HW
LayerCount: 2
Fore
SplineSet
477 247 m 0
 310 247 l 0
 310 415 l 0
 259 415 l 0
 259 247 l 0
 93 247 l 0
 93 196 l 0
 259 196 l 0
 259 31 l 0
 310 31 l 0
 310 196 l 0
 477 196 l 0
 477 247 l 0
EndSplineSet
EndChar

StartChar: comma
Encoding: 44 44 13
Width: 231
VWidth: 0
GlyphClass: 2
Flags: HW
LayerCount: 2
Fore
SplineSet
191 53 m 0
 191 105 154 133 116 133 c 0
 79 133 40 101 40 53 c 0
 40 33 43 0 65 0 c 0
 86 0 128 19 137 27 c 0
 139 21 140 16 140 -4 c 0
 140 -63 114 -114 74 -142 c 0
 88 -151 l 0
 134 -134 191 -49 191 53 c 0
EndSplineSet
EndChar

StartChar: hyphen
Encoding: 45 45 14
Width: 495
VWidth: 0
GlyphClass: 2
Flags: HW
LayerCount: 2
Fore
SplineSet
439 247 m 0
 55 247 l 0
 55 196 l 0
 439 196 l 0
 439 247 l 0
EndSplineSet
EndChar

StartChar: period
Encoding: 46 46 15
Width: 199
VWidth: 0
GlyphClass: 2
Flags: HW
LayerCount: 2
Fore
SplineSet
159 42 m 0
 159 73 131 99 100 99 c 0
 69 99 40 73 40 42 c 0
 40 10 69 -15 100 -15 c 0
 131 -15 159 10 159 42 c 0
EndSplineSet
EndChar

StartChar: slash
Encoding: 47 47 16
Width: 495
VWidth: 0
GlyphClass: 2
Flags: HW
LayerCount: 2
Fore
SplineSet
439 775 m 0
 402 813 l 0
 55 -174 l 0
 93 -212 l 0
 439 775 l 0
EndSplineSet
EndChar

StartChar: zero
Encoding: 48 48 17
Width: 498
VWidth: 0
GlyphClass: 2
Flags: HW
LayerCount: 2
Fore
SplineSet
367 334 m 0
 367 195 352 61 249 61 c 0
 144 61 130 195 130 334 c 0
 130 472 144 580 249 580 c 0
 352 580 367 472 367 334 c 0
453 334 m 0
 453 486 432 655 249 655 c 0
 66 655 45 486 45 334 c 0
 45 183 66 -14 249 -14 c 0
 432 -14 453 183 453 334 c 0
EndSplineSet
EndChar

StartChar: one
Encoding: 49 49 18
Width: 498
VWidth: 0
GlyphClass: 2
Flags: HW
LayerCount: 2
Fore
SplineSet
337 0 m 0
 337 643 l 0
 247 643 l 0
 216 594 171 553 115 535 c 0
 115 462 l 0
 166 474 215 500 255 535 c 0
 255 0 l 0
 337 0 l 0
EndSplineSet
EndChar

StartChar: two
Encoding: 50 50 19
Width: 498
VWidth: 0
GlyphClass: 2
Flags: HW
LayerCount: 2
Fore
SplineSet
442 0 m 0
 442 69 l 0
 153 69 l 0
 432 292 442 384 442 481 c 0
 442 562 382 655 256 655 c 0
 123 655 72 574 63 468 c 0
 154 468 l 0
 163 546 193 580 256 580 c 0
 328 580 352 543 352 468 c 0
 352 406 352 309 55 82 c 0
 55 0 l 0
 442 0 l 0
EndSplineSet
EndChar

StartChar: three
Encoding: 51 51 20
Width: 498
VWidth: 0
GlyphClass: 2
Flags: HW
LayerCount: 2
Fore
SplineSet
456 171 m 0
 456 275 425 308 379 337 c 0
 417 363 447 399 447 486 c 0
 447 580 366 655 243 655 c 0
 133 655 69 591 54 475 c 0
 144 475 l 0
 156 547 189 586 246 586 c 0
 289 586 357 567 357 492 c 0
 357 403 327 370 237 370 c 0
 237 300 l 0
 330 300 367 265 367 165 c 0
 367 106 307 55 247 55 c 0
 165 55 141 115 135 169 c 0
 40 169 l 0
 40 81 100 -14 246 -14 c 0
 369 -14 456 67 456 171 c 0
EndSplineSet
EndChar

StartChar: four
Encoding: 52 52 21
Width: 498
VWidth: 0
GlyphClass: 2
Flags: HW
LayerCount: 2
Fore
SplineSet
309 231 m 0
 97 231 l 0
 309 544 l 0
 309 231 l 0
471 156 m 0
 471 231 l 0
 391 231 l 0
 391 643 l 0
 294 643 l 0
 25 249 l 0
 25 156 l 0
 309 156 l 0
 309 0 l 0
 391 0 l 0
 391 156 l 0
 471 156 l 0
EndSplineSet
EndChar

StartChar: five
Encoding: 53 53 22
Width: 498
VWidth: 0
GlyphClass: 2
Flags: HW
LayerCount: 2
Fore
SplineSet
450 210 m 0
 450 325 388 427 274 427 c 0
 207 427 177 406 145 367 c 0
 156 568 l 0
 409 568 l 0
 409 643 l 0
 69 643 l 0
 57 268 l 0
 136 268 l 0
 160 319 196 361 256 361 c 0
 334 361 360 300 360 208 c 0
 360 109 303 58 247 58 c 0
 186 58 141 90 141 156 c 0
 46 156 l 0
 46 51 126 -12 258 -12 c 0
 367 -12 450 108 450 210 c 0
EndSplineSet
EndChar

StartChar: six
Encoding: 54 54 23
Width: 498
VWidth: 0
GlyphClass: 2
Flags: HW
LayerCount: 2
Fore
SplineSet
366 192 m 0
 366 105 334 55 253 55 c 0
 171 55 139 105 139 192 c 0
 139 279 171 328 253 328 c 0
 334 328 366 279 366 192 c 0
456 192 m 0
 456 265 432 396 265 396 c 0
 191 396 155 360 129 315 c 0
 129 399 136 586 258 586 c 0
 312 586 346 564 352 490 c 0
 438 490 l 0
 423 600 376 655 259 655 c 0
 73 655 42 471 42 306 c 0
 42 99 60 -14 256 -14 c 0
 420 -14 456 114 456 192 c 0
EndSplineSet
EndChar

StartChar: seven
Encoding: 55 55 24
Width: 498
VWidth: 0
GlyphClass: 2
Flags: HW
LayerCount: 2
Fore
SplineSet
447 553 m 0
 447 643 l 0
 51 643 l 0
 51 571 l 0
 367 571 l 0
 139 0 l 0
 237 0 l 0
 447 553 l 0
EndSplineSet
EndChar

StartChar: eight
Encoding: 56 56 25
Width: 498
VWidth: 0
GlyphClass: 2
Flags: HW
LayerCount: 2
Fore
SplineSet
373 183 m 0
 373 111 340 57 249 57 c 0
 160 57 123 111 123 183 c 0
 123 255 171 306 249 306 c 0
 330 306 373 255 373 183 c 0
360 480 m 0
 360 415 309 373 249 373 c 0
 190 373 139 415 139 480 c 0
 139 546 180 586 249 586 c 0
 319 586 360 546 360 480 c 0
460 165 m 0
 460 265 384 322 336 340 c 0
 387 361 442 418 442 498 c 0
 442 606 340 655 249 655 c 0
 160 655 57 606 57 498 c 0
 57 411 113 363 160 340 c 0
 106 316 39 265 39 165 c 0
 39 33 157 -12 249 -12 c 0
 343 -12 460 33 460 165 c 0
EndSplineSet
EndChar

StartChar: nine
Encoding: 57 57 26
Width: 498
VWidth: 0
GlyphClass: 2
Flags: HW
LayerCount: 2
Fore
SplineSet
357 450 m 0
 357 363 327 313 244 313 c 0
 162 313 132 363 132 450 c 0
 132 537 162 586 244 586 c 0
 327 586 357 537 357 450 c 0
456 337 m 0
 456 543 438 655 241 655 c 0
 78 655 42 529 42 450 c 0
 42 376 64 246 231 246 c 0
 300 246 336 274 369 328 c 0
 369 236 357 55 240 55 c 0
 186 55 150 78 145 153 c 0
 58 153 l 0
 73 43 121 -14 238 -14 c 0
 423 -14 456 171 456 337 c 0
EndSplineSet
EndChar

StartChar: colon
Encoding: 58 58 27
Width: 199
VWidth: 0
GlyphClass: 2
Flags: HW
LayerCount: 2
Fore
SplineSet
159 43 m 0
 159 75 131 100 100 100 c 0
 69 100 40 75 40 43 c 0
 40 12 69 -15 100 -15 c 0
 131 -15 159 12 159 43 c 0
159 400 m 0
 159 432 131 459 100 459 c 0
 69 459 40 432 40 400 c 0
 40 369 69 343 100 343 c 0
 131 343 159 369 159 400 c 0
EndSplineSet
EndChar

StartChar: semicolon
Encoding: 59 59 28
Width: 207
VWidth: 0
GlyphClass: 2
Flags: HW
LayerCount: 2
Fore
SplineSet
160 33 m 0
 160 72 129 99 97 99 c 0
 69 99 40 72 40 40 c 0
 40 19 48 -2 61 -2 c 0
 73 -2 102 7 123 18 c 0
 124 14 124 10 124 6 c 0
 124 -44 109 -76 82 -95 c 0
 90 -101 l 0
 117 -85 160 -33 160 33 c 0
159 402 m 0
 159 433 131 459 100 459 c 0
 69 459 40 433 40 402 c 0
 40 370 69 343 100 343 c 0
 131 343 159 370 159 402 c 0
EndSplineSet
EndChar

StartChar: less
Encoding: 60 60 29
Width: 891
VWidth: 0
GlyphClass: 2
Flags: HW
LayerCount: 2
Fore
SplineSet
712 90 m 0
 235 267 l 0
 712 444 l 0
 712 499 l 0
 178 295 l 0
 178 238 l 0
 712 34 l 0
 712 90 l 0
EndSplineSet
EndChar

StartChar: equal
Encoding: 61 61 30
Width: 576
VWidth: 0
GlyphClass: 2
Flags: HW
LayerCount: 2
Fore
SplineSet
520 333 m 0
 55 333 l 0
 55 282 l 0
 520 282 l 0
 520 333 l 0
520 162 m 0
 55 162 l 0
 55 111 l 0
 520 111 l 0
 520 162 l 0
EndSplineSet
EndChar

StartChar: greater
Encoding: 62 62 31
Width: 891
VWidth: 0
GlyphClass: 2
Flags: HW
LayerCount: 2
Fore
SplineSet
712 295 m 0
 178 499 l 0
 178 444 l 0
 655 267 l 0
 178 90 l 0
 178 34 l 0
 712 238 l 0
 712 295 l 0
EndSplineSet
EndChar

StartChar: question
Encoding: 63 63 32
Width: 446
VWidth: 0
GlyphClass: 2
Flags: HW
LayerCount: 2
Fore
SplineSet
391 590 m 0
 391 685 321 773 213 773 c 0
 78 773 35 637 35 600 c 0
 35 548 l 0
 86 548 l 0
 86 600 l 0
 86 629 129 722 213 722 c 0
 282 722 340 654 340 590 c 0
 340 483 187 489 187 359 c 0
 187 200 l 0
 238 200 l 0
 238 345 l 0
 238 458 391 440 391 590 c 0
268 55 m 0
 268 93 238 111 213 111 c 0
 187 111 158 93 158 55 c 0
 158 19 187 0 213 0 c 0
 238 0 268 19 268 55 c 0
EndSplineSet
EndChar

StartChar: at
Encoding: 64 64 33
Width: 891
VWidth: 0
GlyphClass: 2
Flags: HW
LayerCount: 2
Fore
SplineSet
528 237 m 0
 528 160 496 84 430 84 c 0
 351 84 333 162 333 237 c 0
 333 309 360 376 430 376 c 0
 498 376 528 312 528 237 c 0
837 265 m 0
 837 510 678 637 438 637 c 0
 243 637 52 499 52 258 c 0
 52 -68 262 -159 462 -159 c 0
 519 -159 541 -158 606 -135 c 0
 606 -62 l 0
 546 -78 523 -78 454 -78 c 0
 243 -78 138 51 138 259 c 0
 138 487 309 558 444 558 c 0
 628 558 751 483 751 265 c 0
 751 134 696 96 664 96 c 0
 645 96 612 98 612 132 c 0
 612 432 l 0
 531 432 l 0
 531 379 l 0
 494 426 462 438 406 438 c 0
 316 438 247 360 247 231 c 0
 247 112 316 22 406 22 c 0
 475 22 511 51 540 103 c 0
 564 49 601 18 657 18 c 0
 760 18 837 135 837 265 c 0
EndSplineSet
EndChar

StartChar: A
Encoding: 65 65 34
Width: 667
VWidth: 0
GlyphClass: 2
Flags: HW
LayerCount: 2
Fore
SplineSet
453 247 m 0
 210 247 l 0
 330 543 l 0
 453 247 l 0
654 0 m 0
 381 643 l 0
 282 643 l 0
 13 0 l 0
 105 0 l 0
 175 171 l 0
 490 171 l 0
 561 0 l 0
 654 0 l 0
EndSplineSet
EndChar

StartChar: B
Encoding: 66 66 35
Width: 600
VWidth: 0
GlyphClass: 2
Flags: HW
LayerCount: 2
Fore
SplineSet
459 189 m 0
 459 123 394 78 301 78 c 0
 160 78 l 0
 160 300 l 0
 297 300 l 0
 403 300 459 259 459 189 c 0
439 471 m 0
 439 417 408 373 301 373 c 0
 160 373 l 0
 160 565 l 0
 303 565 l 0
 409 565 439 525 439 471 c 0
546 178 m 0
 546 263 482 324 412 343 c 0
 467 358 523 412 523 484 c 0
 523 594 433 643 330 643 c 0
 72 643 l 0
 72 0 l 0
 352 0 l 0
 454 0 546 75 546 178 c 0
EndSplineSet
EndChar

StartChar: C
Encoding: 67 67 36
Width: 606
VWidth: 0
GlyphClass: 2
Flags: HW
LayerCount: 2
Fore
SplineSet
552 171 m 0
 462 171 l 0
 462 88 399 58 316 58 c 0
 208 58 144 123 144 316 c 0
 144 499 204 585 319 585 c 0
 420 585 459 546 459 471 c 0
 549 471 l 0
 549 571 481 655 319 655 c 0
 117 655 52 490 52 316 c 0
 52 142 118 -14 318 -14 c 0
 466 -14 552 69 552 171 c 0
EndSplineSet
EndChar

StartChar: D
Encoding: 68 68 37
Width: 640
VWidth: 0
GlyphClass: 2
Flags: HW
LayerCount: 2
Fore
SplineSet
499 322 m 0
 499 166 412 78 273 78 c 0
 160 78 l 0
 160 565 l 0
 273 565 l 0
 412 565 499 480 499 322 c 0
588 322 m 0
 588 486 514 643 271 643 c 0
 72 643 l 0
 72 0 l 0
 271 0 l 0
 514 0 588 166 588 322 c 0
EndSplineSet
EndChar

StartChar: E
Encoding: 69 69 38
Width: 540
VWidth: 0
GlyphClass: 2
Flags: HW
LayerCount: 2
Fore
SplineSet
478 0 m 0
 478 78 l 0
 160 78 l 0
 160 291 l 0
 460 291 l 0
 460 367 l 0
 160 367 l 0
 160 565 l 0
 469 565 l 0
 469 643 l 0
 72 643 l 0
 72 0 l 0
 478 0 l 0
EndSplineSet
EndChar

StartChar: F
Encoding: 70 70 39
Width: 507
VWidth: 0
GlyphClass: 2
Flags: HW
LayerCount: 2
Fore
SplineSet
427 291 m 0
 427 367 l 0
 160 367 l 0
 160 565 l 0
 445 565 l 0
 445 643 l 0
 72 643 l 0
 72 0 l 0
 160 0 l 0
 160 291 l 0
 427 291 l 0
EndSplineSet
EndChar

StartChar: G
Encoding: 71 71 40
Width: 678
VWidth: 0
GlyphClass: 2
Flags: HW
LayerCount: 2
Fore
SplineSet
606 31 m 0
 606 343 l 0
 370 343 l 0
 370 265 l 0
 517 265 l 0
 517 87 l 0
 471 73 414 66 361 66 c 0
 198 66 145 201 145 345 c 0
 145 477 210 577 372 577 c 0
 462 577 520 520 520 483 c 0
 610 483 l 0
 610 552 534 655 364 655 c 0
 171 655 52 519 52 346 c 0
 52 184 99 -14 372 -14 c 0
 426 -14 526 3 606 31 c 0
EndSplineSet
EndChar

StartChar: H
Encoding: 72 72 41
Width: 631
VWidth: 0
GlyphClass: 2
Flags: HW
LayerCount: 2
Fore
SplineSet
561 0 m 0
 561 643 l 0
 469 643 l 0
 469 367 l 0
 160 367 l 0
 160 643 l 0
 72 643 l 0
 72 0 l 0
 160 0 l 0
 160 291 l 0
 469 291 l 0
 469 0 l 0
 561 0 l 0
EndSplineSet
EndChar

StartChar: I
Encoding: 73 73 42
Width: 232
VWidth: 0
GlyphClass: 2
Flags: W
VStem: 72 88
LayerCount: 2
Fore
SplineSet
160 0 m 0
 160 643 l 0
 72 643 l 0
 72 0 l 0
 160 0 l 0
EndSplineSet
EndChar

StartChar: J
Encoding: 74 74 43
Width: 507
VWidth: 0
GlyphClass: 2
Flags: HW
LayerCount: 2
Fore
SplineSet
435 192 m 0
 435 643 l 0
 345 643 l 0
 345 192 l 0
 345 106 297 66 243 66 c 0
 189 66 142 88 141 172 c 0
 52 172 l 0
 52 64 126 -14 238 -14 c 0
 354 -14 435 69 435 192 c 0
EndSplineSet
EndChar

StartChar: K
Encoding: 75 75 44
Width: 592
VWidth: 0
GlyphClass: 2
Flags: HW
LayerCount: 2
Fore
SplineSet
570 0 m 0
 264 366 l 0
 537 643 l 0
 426 643 l 0
 160 369 l 0
 160 643 l 0
 72 643 l 0
 72 0 l 0
 160 0 l 0
 160 339 l 0
 450 0 l 0
 570 0 l 0
EndSplineSet
EndChar

StartChar: L
Encoding: 76 76 45
Width: 471
VWidth: 0
GlyphClass: 2
Flags: HW
LayerCount: 2
Fore
SplineSet
445 0 m 0
 445 78 l 0
 160 78 l 0
 160 643 l 0
 72 643 l 0
 72 0 l 0
 445 0 l 0
EndSplineSet
EndChar

StartChar: M
Encoding: 77 77 46
Width: 799
VWidth: 0
GlyphClass: 2
Flags: HW
LayerCount: 2
Fore
SplineSet
727 0 m 0
 727 643 l 0
 586 643 l 0
 399 124 l 0
 213 643 l 0
 72 643 l 0
 72 0 l 0
 160 0 l 0
 160 553 l 0
 363 0 l 0
 433 0 l 0
 639 558 l 0
 639 0 l 0
 727 0 l 0
EndSplineSet
EndChar

StartChar: N
Encoding: 78 78 47
Width: 643
VWidth: 0
GlyphClass: 2
Flags: HW
LayerCount: 2
Fore
SplineSet
573 0 m 0
 573 643 l 0
 483 643 l 0
 483 115 l 0
 198 643 l 0
 72 643 l 0
 72 0 l 0
 160 0 l 0
 160 526 l 0
 444 0 l 0
 573 0 l 0
EndSplineSet
EndChar

StartChar: O
Encoding: 79 79 48
Width: 688
VWidth: 0
GlyphClass: 2
Flags: W
HStem: -14 80<252.621 437.339> 577 78<243.964 445.956>
VStem: 52 93<194.808 466.943> 543 93<192.092 469.386>
LayerCount: 2
Fore
SplineSet
543 334 m 0
 543 199 501 66 345 66 c 0
 189 66 145 199 145 334 c 0
 145 469 189 577 345 577 c 0
 501 577 543 469 543 334 c 0
636 334 m 0
 636 517 543 655 345 655 c 0
 148 655 52 517 52 334 c 0
 52 150 148 -14 345 -14 c 0
 543 -14 636 150 636 334 c 0
EndSplineSet
EndChar

StartChar: P
Encoding: 80 80 49
Width: 555
VWidth: 0
GlyphClass: 2
Flags: HW
LayerCount: 2
Fore
SplineSet
415 457 m 0
 415 378 363 351 256 351 c 0
 160 351 l 0
 160 565 l 0
 256 565 l 0
 363 565 415 537 415 457 c 0
501 457 m 0
 501 619 376 643 253 643 c 0
 72 643 l 0
 72 0 l 0
 160 0 l 0
 160 273 l 0
 253 273 l 0
 376 273 501 295 501 457 c 0
EndSplineSet
EndChar

StartChar: Q
Encoding: 81 81 50
Width: 699
VWidth: 0
GlyphClass: 2
Flags: HW
LayerCount: 2
Fore
SplineSet
543 334 m 0
 543 199 501 66 345 66 c 0
 189 66 145 199 145 334 c 0
 145 469 189 577 345 577 c 0
 501 577 543 469 543 334 c 0
672 0 m 0
 672 61 l 0
 540 61 l 0
 603 118 636 223 636 334 c 0
 636 517 543 655 345 655 c 0
 147 655 52 517 52 334 c 0
 52 151 147 -14 345 -14 c 0
 372 -14 396 -9 430 0 c 0
 672 0 l 0
EndSplineSet
EndChar

StartChar: R
Encoding: 82 82 51
Width: 561
VWidth: 0
GlyphClass: 2
Flags: HW
LayerCount: 2
Fore
SplineSet
417 466 m 0
 417 393 360 369 273 369 c 0
 160 369 l 0
 160 565 l 0
 273 565 l 0
 360 565 417 543 417 466 c 0
523 0 m 0
 484 108 488 210 469 259 c 0
 452 302 424 320 387 328 c 0
 450 358 507 402 507 466 c 0
 507 598 426 643 274 643 c 0
 72 643 l 0
 72 0 l 0
 160 0 l 0
 160 292 l 0
 238 292 l 0
 358 292 373 288 402 154 c 0
 415 94 412 88 432 0 c 0
 523 0 l 0
EndSplineSet
EndChar

StartChar: S
Encoding: 83 83 52
Width: 589
VWidth: 0
GlyphClass: 2
Flags: HW
LayerCount: 2
Fore
SplineSet
535 178 m 0
 535 441 151 310 151 477 c 0
 151 553 205 577 276 577 c 0
 346 577 420 568 420 481 c 0
 510 481 l 0
 510 612 394 655 280 655 c 0
 181 655 61 592 61 480 c 0
 61 204 447 376 447 171 c 0
 447 73 337 66 264 66 c 0
 193 66 144 123 144 192 c 0
 52 192 l 0
 52 66 144 -14 265 -14 c 0
 390 -14 535 28 535 178 c 0
EndSplineSet
EndChar

StartChar: T
Encoding: 84 84 53
Width: 546
VWidth: 0
GlyphClass: 2
Flags: HW
LayerCount: 2
Fore
SplineSet
528 565 m 0
 528 643 l 0
 18 643 l 0
 18 565 l 0
 228 565 l 0
 228 0 l 0
 318 0 l 0
 318 565 l 0
 528 565 l 0
EndSplineSet
EndChar

StartChar: U
Encoding: 85 85 54
Width: 655
VWidth: 0
GlyphClass: 2
Flags: HW
LayerCount: 2
Fore
SplineSet
585 286 m 0
 585 643 l 0
 495 643 l 0
 495 286 l 0
 495 91 415 66 328 66 c 0
 238 66 160 93 160 286 c 0
 160 643 l 0
 72 643 l 0
 72 286 l 0
 72 72 148 -14 328 -14 c 0
 507 -14 585 72 585 286 c 0
EndSplineSet
EndChar

StartChar: V
Encoding: 86 86 55
Width: 582
VWidth: 0
GlyphClass: 2
Flags: HW
LayerCount: 2
Fore
SplineSet
568 643 m 0
 468 643 l 0
 291 115 l 0
 114 643 l 0
 13 643 l 0
 241 0 l 0
 340 0 l 0
 568 643 l 0
EndSplineSet
EndChar

StartChar: W
Encoding: 87 87 56
Width: 865
VWidth: 0
GlyphClass: 2
Flags: HW
LayerCount: 2
Fore
SplineSet
852 643 m 0
 757 643 l 0
 622 133 l 0
 486 643 l 0
 379 643 l 0
 243 133 l 0
 108 643 l 0
 13 643 l 0
 204 0 l 0
 283 0 l 0
 432 535 l 0
 580 0 l 0
 661 0 l 0
 852 643 l 0
EndSplineSet
EndChar

StartChar: X
Encoding: 88 88 57
Width: 627
VWidth: 0
GlyphClass: 2
Flags: HW
LayerCount: 2
Fore
SplineSet
604 0 m 0
 367 343 l 0
 573 643 l 0
 468 643 l 0
 319 406 l 0
 166 643 l 0
 52 643 l 0
 258 343 l 0
 21 0 l 0
 127 0 l 0
 307 279 l 0
 490 0 l 0
 604 0 l 0
EndSplineSet
EndChar

StartChar: Y
Encoding: 89 89 58
Width: 594
VWidth: 0
GlyphClass: 2
Flags: HW
LayerCount: 2
Fore
SplineSet
579 643 m 0
 478 643 l 0
 301 334 l 0
 123 643 l 0
 13 643 l 0
 252 256 l 0
 252 0 l 0
 340 0 l 0
 340 256 l 0
 579 643 l 0
EndSplineSet
EndChar

StartChar: Z
Encoding: 90 90 59
Width: 549
VWidth: 0
GlyphClass: 2
Flags: HW
LayerCount: 2
Fore
SplineSet
508 0 m 0
 508 78 l 0
 138 78 l 0
 499 544 l 0
 499 643 l 0
 57 643 l 0
 57 565 l 0
 402 565 l 0
 40 97 l 0
 40 0 l 0
 508 0 l 0
EndSplineSet
EndChar

StartChar: bracketleft
Encoding: 91 91 60
Width: 352
VWidth: 0
GlyphClass: 2
Flags: HW
LayerCount: 2
Fore
SplineSet
259 -177 m 0
 259 -132 l 0
 171 -132 l 0
 171 597 l 0
 259 597 l 0
 259 643 l 0
 94 643 l 0
 94 -177 l 0
 259 -177 l 0
EndSplineSet
EndChar

StartChar: backslash
Encoding: 92 92 61
Width: 495
VWidth: 0
GlyphClass: 2
Flags: HW
LayerCount: 2
Fore
SplineSet
439 -174 m 0
 93 813 l 0
 55 775 l 0
 402 -212 l 0
 439 -174 l 0
EndSplineSet
EndChar

StartChar: bracketright
Encoding: 93 93 62
Width: 352
VWidth: 0
GlyphClass: 2
Flags: HW
LayerCount: 2
Fore
SplineSet
259 -177 m 0
 259 643 l 0
 94 643 l 0
 94 597 l 0
 183 597 l 0
 183 -132 l 0
 94 -132 l 0
 94 -177 l 0
 259 -177 l 0
EndSplineSet
EndChar

StartChar: asciicircum
Encoding: 94 94 63
Width: 453
VWidth: 0
GlyphClass: 4
Flags: W
DStem2: 0 640 27 613 0.705544 0.708666<0 280.635> 226 867 226 811 0.707107 -0.707107<39.598 321.026>
AnchorPoint: "UM" 226 495 basemark 0
AnchorPoint: "U" 226 495 mark 0
LayerCount: 2
Fore
SplineSet
453 640 m 0
 226 867 l 0
 0 640 l 0
 27 613 l 0
 226 811 l 0
 426 613 l 0
 453 640 l 0
EndSplineSet
EndChar

StartChar: underscore
Encoding: 95 95 64
Width: 576
VWidth: 0
GlyphClass: 4
Flags: HW
LayerCount: 2
Fore
SplineSet
576 -137 m 0
 576 -86 l 0
 0 -86 l 0
 0 -137 l 0
 576 -137 l 0
EndSplineSet
EndChar

StartChar: grave
Encoding: 96 96 65
Width: 204
VWidth: 0
GlyphClass: 4
Flags: HW
LayerCount: 2
Fore
SplineSet
156 534 m 0
 67 687 l 0
 -23 687 l 0
 102 534 l 0
 156 534 l 0
EndSplineSet
EndChar

StartChar: a
Encoding: 97 97 66
Width: 492
VWidth: 0
GlyphClass: 4
Flags: HW
LayerCount: 2
Fore
SplineSet
345 219 m 0
 345 126 325 48 214 48 c 0
 166 48 126 78 126 127 c 0
 126 204 241 222 300 222 c 0
 312 222 335 220 345 219 c 0
439 0 m 0
 429 25 427 84 427 125 c 0
 427 271 l 0
 427 309 426 361 418 381 c 0
 394 447 306 456 246 456 c 0
 158 456 67 430 67 325 c 0
 150 325 l 0
 150 378 204 396 249 396 c 0
 335 396 355 346 346 280 c 0
 285 280 l 0
 180 280 43 252 43 117 c 0
 43 30 138 -12 214 -12 c 0
 273 -12 308 12 349 64 c 0
 352 41 355 23 360 0 c 0
 439 0 l 0
EndSplineSet
EndChar

StartChar: b
Encoding: 98 98 67
Width: 525
VWidth: 0
GlyphClass: 4
Flags: HW
LayerCount: 2
Fore
SplineSet
394 232 m 0
 394 117 339 48 268 48 c 0
 184 48 141 112 141 232 c 0
 141 318 181 405 270 405 c 0
 363 405 394 321 394 232 c 0
481 241 m 0
 481 322 438 456 291 456 c 0
 205 456 162 417 139 384 c 0
 139 643 l 0
 61 643 l 0
 61 0 l 0
 142 0 l 0
 142 52 l 0
 173 19 222 -12 292 -12 c 0
 382 -12 481 76 481 241 c 0
EndSplineSet
EndChar

StartChar: c
Encoding: 99 99 68
Width: 463
VWidth: 0
GlyphClass: 4
Flags: HW
LayerCount: 2
Fore
SplineSet
420 150 m 0
 340 150 l 0
 340 111 318 48 241 48 c 0
 166 48 124 94 124 222 c 0
 124 351 169 396 226 396 c 0
 285 396 348 376 336 306 c 0
 415 306 l 0
 424 393 367 456 232 456 c 0
 99 456 45 378 45 222 c 0
 45 67 108 -12 241 -12 c 0
 375 -12 420 69 420 150 c 0
EndSplineSet
EndChar

StartChar: d
Encoding: 100 100 69
Width: 526
VWidth: 0
GlyphClass: 4
Flags: HW
LayerCount: 2
Fore
SplineSet
381 219 m 0
 381 144 343 52 255 52 c 0
 177 52 126 132 126 225 c 0
 126 306 157 403 243 403 c 0
 324 403 381 316 381 219 c 0
463 0 m 0
 463 643 l 0
 384 643 l 0
 384 387 l 0
 350 434 293 456 229 456 c 0
 91 456 45 322 45 214 c 0
 45 84 148 -12 252 -12 c 0
 311 -12 359 22 384 51 c 0
 384 0 l 0
 463 0 l 0
EndSplineSet
EndChar

StartChar: e
Encoding: 101 101 70
Width: 496
VWidth: 0
GlyphClass: 4
Flags: HW
LayerCount: 2
Fore
SplineSet
363 268 m 0
 130 268 l 0
 138 319 162 400 249 400 c 0
 345 400 370 333 363 268 c 0
448 142 m 0
 363 142 l 0
 357 103 331 46 249 46 c 0
 163 46 130 118 130 210 c 0
 448 210 l 0
 450 223 451 239 451 252 c 0
 451 322 427 456 253 456 c 0
 96 456 45 333 45 222 c 0
 45 120 99 -12 247 -12 c 0
 379 -12 435 69 448 142 c 0
EndSplineSet
EndChar

StartChar: f
Encoding: 102 102 71
Width: 294
VWidth: 0
GlyphClass: 4
Flags: HW
LayerCount: 2
Fore
SplineSet
294 577 m 0
 294 643 l 0
 272 649 251 651 230 651 c 0
 146 651 97 623 97 513 c 0
 97 445 l 0
 9 445 l 0
 9 387 l 0
 97 387 l 0
 97 0 l 0
 178 0 l 0
 178 387 l 0
 285 387 l 0
 285 445 l 0
 178 445 l 0
 178 510 l 0
 178 567 198 588 246 588 c 0
 265 588 280 583 294 577 c 0
EndSplineSet
EndChar

StartChar: g
Encoding: 103 103 72
Width: 525
VWidth: 0
GlyphClass: 4
Flags: HW
LayerCount: 2
Fore
SplineSet
381 235 m 0
 381 150 346 69 252 69 c 0
 169 69 127 136 127 237 c 0
 127 327 154 400 247 400 c 0
 343 400 381 330 381 235 c 0
463 25 m 0
 463 445 l 0
 382 445 l 0
 382 396 l 0
 357 440 310 456 232 456 c 0
 121 456 45 363 45 237 c 0
 45 83 121 12 241 12 c 0
 296 12 358 39 382 82 c 0
 382 -72 343 -122 261 -122 c 0
 207 -122 150 -96 150 -36 c 0
 67 -36 l 0
 67 -78 99 -177 246 -177 c 0
 388 -177 463 -90 463 25 c 0
EndSplineSet
EndChar

StartChar: h
Encoding: 104 104 73
Width: 510
VWidth: 0
GlyphClass: 4
Flags: HW
LayerCount: 2
Fore
SplineSet
448 0 m 0
 448 276 l 0
 448 400 400 456 282 456 c 0
 213 456 170 427 142 388 c 0
 142 643 l 0
 61 643 l 0
 61 0 l 0
 142 0 l 0
 142 303 l 0
 142 343 189 399 274 399 c 0
 323 399 367 364 367 280 c 0
 367 0 l 0
 448 0 l 0
EndSplineSet
EndChar

StartChar: i
Encoding: 105 105 74
Width: 204
VWidth: 0
GlyphClass: 4
Flags: HW
LayerCount: 2
Fore
SplineSet
142 0 m 0
 142 445 l 0
 61 445 l 0
 61 0 l 0
 142 0 l 0
145 561 m 0
 145 643 l 0
 58 643 l 0
 58 561 l 0
 145 561 l 0
EndSplineSet
EndChar

StartChar: j
Encoding: 106 106 75
Width: 256
VWidth: 0
GlyphClass: 4
Flags: HW
LayerCount: 2
Fore
SplineSet
193 -72 m 0
 193 445 l 0
 112 445 l 0
 112 -45 l 0
 112 -92 106 -117 78 -117 c 0
 58 -117 37 -107 24 -90 c 0
 -27 -141 l 0
 3 -171 55 -188 90 -188 c 0
 171 -188 193 -128 193 -72 c 0
195 561 m 0
 195 643 l 0
 111 643 l 0
 111 561 l 0
 195 561 l 0
EndSplineSet
EndChar

StartChar: k
Encoding: 107 107 76
Width: 444
VWidth: 0
GlyphClass: 4
Flags: HW
LayerCount: 2
Fore
SplineSet
426 0 m 0
 234 252 l 0
 412 445 l 0
 312 445 l 0
 142 259 l 0
 142 643 l 0
 61 643 l 0
 61 0 l 0
 142 0 l 0
 142 237 l 0
 319 0 l 0
 426 0 l 0
EndSplineSet
EndChar

StartChar: l
Encoding: 108 108 77
Width: 204
VWidth: 0
GlyphClass: 4
Flags: HW
LayerCount: 2
Fore
SplineSet
142 0 m 0
 142 643 l 0
 61 643 l 0
 61 0 l 0
 142 0 l 0
EndSplineSet
EndChar

StartChar: m
Encoding: 109 109 78
Width: 798
VWidth: 0
GlyphClass: 4
Flags: HW
LayerCount: 2
Fore
SplineSet
736 0 m 0
 736 288 l 0
 736 360 715 456 570 456 c 0
 514 456 466 433 426 378 c 0
 394 430 360 456 274 456 c 0
 216 456 174 427 142 384 c 0
 142 445 l 0
 61 445 l 0
 61 0 l 0
 142 0 l 0
 142 288 l 0
 142 334 192 400 262 400 c 0
 322 400 360 345 360 288 c 0
 360 0 l 0
 441 0 l 0
 441 288 l 0
 441 336 490 400 555 400 c 0
 624 400 655 355 655 288 c 0
 655 0 l 0
 736 0 l 0
EndSplineSet
EndChar

StartChar: n
Encoding: 110 110 79
Width: 511
VWidth: 0
GlyphClass: 4
Flags: HW
LayerCount: 2
Fore
SplineSet
448 0 m 0
 448 292 l 0
 448 387 405 456 277 456 c 0
 205 456 168 425 142 388 c 0
 142 445 l 0
 61 445 l 0
 61 0 l 0
 142 0 l 0
 142 288 l 0
 142 355 196 403 259 403 c 0
 318 403 369 355 369 295 c 0
 369 0 l 0
 448 0 l 0
EndSplineSet
EndChar

StartChar: o
Encoding: 111 111 80
Width: 526
VWidth: 0
GlyphClass: 4
Flags: W
HStem: -12 58<193.015 333.725> 400 56<194.547 329.669>
VStem: 45 82<123.149 321.418> 399 84<123.149 321.418>
LayerCount: 2
Fore
SplineSet
399 222 m 0
 399 138 357 46 264 46 c 0
 168 46 127 138 127 222 c 0
 127 306 168 400 264 400 c 0
 357 400 399 306 399 222 c 0
483 222 m 0
 483 382 384 456 264 456 c 0
 142 456 45 382 45 222 c 0
 45 63 142 -12 264 -12 c 0
 384 -12 483 63 483 222 c 0
EndSplineSet
EndChar

StartChar: p
Encoding: 112 112 81
Width: 534
VWidth: 0
GlyphClass: 4
Flags: HW
LayerCount: 2
Fore
SplineSet
403 222 m 0
 403 130 366 45 273 45 c 0
 178 45 142 130 142 222 c 0
 142 313 178 400 273 400 c 0
 366 400 403 313 403 222 c 0
489 222 m 0
 489 352 433 456 282 456 c 0
 223 456 184 427 142 388 c 0
 142 445 l 0
 61 445 l 0
 61 -177 l 0
 142 -177 l 0
 142 46 l 0
 180 16 223 -14 282 -14 c 0
 433 -14 489 91 489 222 c 0
EndSplineSet
EndChar

StartChar: q
Encoding: 113 113 82
Width: 534
VWidth: 0
GlyphClass: 4
Flags: HW
LayerCount: 2
Fore
SplineSet
391 222 m 0
 391 130 354 45 261 45 c 0
 166 45 129 130 129 222 c 0
 129 313 166 400 261 400 c 0
 354 400 391 313 391 222 c 0
471 -177 m 0
 471 445 l 0
 390 445 l 0
 390 388 l 0
 349 427 309 456 249 456 c 0
 99 456 45 352 45 222 c 0
 45 91 99 -14 249 -14 c 0
 309 -14 352 16 390 46 c 0
 390 -177 l 0
 471 -177 l 0
EndSplineSet
EndChar

StartChar: r
Encoding: 114 114 83
Width: 322
VWidth: 0
GlyphClass: 4
Flags: HW
LayerCount: 2
Fore
SplineSet
306 373 m 0
 306 445 l 0
 192 445 165 423 142 384 c 0
 142 445 l 0
 61 445 l 0
 61 0 l 0
 142 0 l 0
 142 249 l 0
 142 325 190 373 306 373 c 0
EndSplineSet
EndChar

StartChar: s
Encoding: 115 115 84
Width: 448
VWidth: 0
GlyphClass: 4
Flags: HW
LayerCount: 2
Fore
SplineSet
403 130 m 0
 403 307 136 220 136 334 c 0
 136 373 175 400 220 400 c 0
 297 400 309 357 309 325 c 0
 390 325 l 0
 390 433 316 456 222 456 c 0
 94 456 55 393 55 334 c 0
 55 142 321 237 321 124 c 0
 321 72 268 46 219 46 c 0
 166 46 127 67 126 129 c 0
 45 129 l 0
 45 25 118 -12 208 -12 c 0
 304 -12 403 21 403 130 c 0
EndSplineSet
EndChar

StartChar: t
Encoding: 116 116 85
Width: 312
VWidth: 0
GlyphClass: 4
Flags: HW
LayerCount: 2
Fore
SplineSet
285 0 m 0
 285 57 l 0
 270 52 253 49 235 49 c 0
 205 49 187 61 187 117 c 0
 187 388 l 0
 285 388 l 0
 285 445 l 0
 187 445 l 0
 187 567 l 0
 106 534 l 0
 106 445 l 0
 25 445 l 0
 25 388 l 0
 106 388 l 0
 106 117 l 0
 106 17 139 -12 219 -12 c 0
 241 -12 262 -8 285 0 c 0
EndSplineSet
EndChar

StartChar: u
Encoding: 117 117 86
Width: 510
VWidth: 0
GlyphClass: 4
Flags: HW
LayerCount: 2
Fore
SplineSet
448 0 m 0
 448 445 l 0
 367 445 l 0
 367 159 l 0
 367 88 313 42 249 42 c 0
 193 42 142 88 142 150 c 0
 142 445 l 0
 61 445 l 0
 61 151 l 0
 61 48 111 -12 232 -12 c 0
 304 -12 343 18 367 57 c 0
 367 0 l 0
 448 0 l 0
EndSplineSet
EndChar

StartChar: v
Encoding: 118 118 87
Width: 477
VWidth: 0
GlyphClass: 4
Flags: HW
LayerCount: 2
Fore
SplineSet
463 445 m 0
 378 445 l 0
 243 97 l 0
 106 445 l 0
 13 445 l 0
 198 0 l 0
 279 0 l 0
 463 445 l 0
EndSplineSet
EndChar

StartChar: w
Encoding: 119 119 88
Width: 724
VWidth: 0
GlyphClass: 4
Flags: HW
LayerCount: 2
Fore
SplineSet
711 445 m 0
 627 445 l 0
 520 97 l 0
 415 445 l 0
 309 445 l 0
 204 97 l 0
 99 445 l 0
 13 445 l 0
 163 0 l 0
 243 0 l 0
 363 369 l 0
 481 0 l 0
 561 0 l 0
 711 445 l 0
EndSplineSet
EndChar

StartChar: x
Encoding: 120 120 89
Width: 487
VWidth: 0
GlyphClass: 4
Flags: W
DStem2: 18 0 111 0 0.613818 0.789448<57.0851 272.579 366.785 563.685> 132 445 31 445 0.60372 -0.797197<0 198.187 278.634 496.627>
LayerCount: 2
Fore
SplineSet
469 0 m 0
 292 231 l 0
 457 445 l 0
 364 445 l 0
 249 285 l 0
 132 445 l 0
 31 445 l 0
 195 231 l 0
 18 0 l 0
 111 0 l 0
 237 175 l 0
 367 0 l 0
 469 0 l 0
EndSplineSet
EndChar

StartChar: y
Encoding: 121 121 90
Width: 477
VWidth: 0
GlyphClass: 4
Flags: HW
LayerCount: 2
Fore
SplineSet
463 445 m 0
 376 445 l 0
 246 109 l 0
 106 445 l 0
 13 445 l 0
 204 0 l 0
 186 -51 l 0
 172 -90 160 -111 141 -111 c 0
 115 -111 98 -94 85 -68 c 0
 22 -101 l 0
 46 -150 85 -182 142 -182 c 0
 207 -182 231 -146 249 -99 c 0
 463 445 l 0
EndSplineSet
EndChar

StartChar: z
Encoding: 122 122 91
Width: 417
VWidth: 0
GlyphClass: 4
Flags: HW
LayerCount: 2
Fore
SplineSet
372 0 m 0
 372 61 l 0
 133 61 l 0
 372 372 l 0
 372 445 l 0
 61 445 l 0
 61 382 l 0
 280 382 l 0
 45 73 l 0
 45 0 l 0
 372 0 l 0
EndSplineSet
EndChar

StartChar: braceleft
Encoding: 123 123 92
Width: 406
VWidth: 0
GlyphClass: 4
Flags: HW
LayerCount: 2
Fore
SplineSet
351 -443 m 0
 351 -393 l 0
 247 -393 231 -230 231 61 c 0
 231 173 121 209 121 225 c 0
 121 241 231 276 231 388 c 0
 231 680 247 843 351 843 c 0
 351 892 l 0
 190 892 180 676 180 403 c 0
 180 301 70 270 70 225 c 0
 70 178 180 149 180 46 c 0
 180 -227 190 -443 351 -443 c 0
EndSplineSet
EndChar

StartChar: bar
Encoding: 124 124 93
Width: 307
VWidth: 0
GlyphClass: 4
Flags: HW
LayerCount: 2
Fore
SplineSet
177 -230 m 0
 177 709 l 0
 130 709 l 0
 130 -230 l 0
 177 -230 l 0
EndSplineSet
EndChar

StartChar: braceright
Encoding: 125 125 94
Width: 406
VWidth: 0
GlyphClass: 4
Flags: HW
LayerCount: 2
Fore
SplineSet
336 225 m 0
 336 270 226 301 226 403 c 0
 226 676 216 892 55 892 c 0
 55 843 l 0
 159 843 175 680 175 388 c 0
 175 276 285 241 285 225 c 0
 285 209 175 173 175 61 c 0
 175 -230 159 -393 55 -393 c 0
 55 -443 l 0
 216 -443 226 -227 226 46 c 0
 226 149 336 178 336 225 c 0
EndSplineSet
EndChar

StartChar: asciitilde
Encoding: 126 126 95
Width: 562
VWidth: 0
GlyphClass: 4
Flags: HW
LayerCount: 2
Fore
SplineSet
507 238 m 0
 481 268 l 0
 432 230 407 219 373 219 c 0
 297 219 262 282 193 282 c 0
 142 282 106 264 55 220 c 0
 70 183 l 0
 137 234 161 241 193 241 c 0
 239 241 292 178 373 178 c 0
 416 178 462 195 507 238 c 0
EndSplineSet
EndChar

StartChar: multiply
Encoding: 215 215 96
Width: 495
VWidth: 0
GlyphClass: 4
Flags: HW
LayerCount: 2
Fore
SplineSet
400 105 m 0
 283 222 l 0
 402 340 l 0
 364 378 l 0
 246 259 l 0
 129 376 l 0
 93 340 l 0
 210 223 l 0
 93 106 l 0
 130 69 l 0
 247 186 l 0
 364 69 l 0
 400 105 l 0
EndSplineSet
EndChar

StartChar: u1000
Encoding: 4096 4096 97
Width: 1002
VWidth: 0
GlyphClass: 2
Flags: W
HStem: -15 51<656.623 797.304> 408 51<211.273 372.761 640.855 797.304>
VStem: 55 51<101.089 299.309> 478 51<102.25 282.72> 895 51<134.358 309.23>
AnchorPoint: "U" 714 495 basechar 0
AnchorPoint: "BS" 714 -53 basechar 0
AnchorPoint: "BD" 508 -53 basechar 0
AnchorPoint: "L" 714 -53 basechar 0
AnchorPoint: "R" 0 0 mark 0
LayerCount: 2
Fore
SplineSet
946 222 m 0
 946 351 840 459 714 459 c 0
 625 459 549 396 508 313 c 0
 471 403 388 457 292 457 c 0
 162 457 55 355 55 202 c 0
 55 90 97 31 153 -15 c 0
 183 28 l 0
 136 70 106 126 106 202 c 0
 106 322 190 406 292 406 c 0
 394 406 478 322 478 202 c 0
 478 126 448 70 402 28 c 0
 432 -15 l 0
 487 28 528 85 529 192 c 0
 529 294 615 408 714 408 c 0
 814 408 895 324 895 222 c 0
 895 120 814 36 714 36 c 0
 697 36 679 39 663 46 c 0
 643 0 l 0
 666 -11 690 -15 714 -15 c 0
 840 -15 946 91 946 222 c 0
EndSplineSet
Substitution2: "sub_single_cligmymr_2 subtable" u1000.kham
Ligature2: "LigatureSubstitutionlookup169 subtable" u1000 u103C
Ligature2: "LigatureSubstitutionlookup167 subtable" u1000 u103C u1031
Ligature2: "LigatureSubstitutionlookup167 subtable" u1000 u103C.wide u1031
Ligature2: "LigatureSubstitutionlookup167 subtable" u1000 u103C_u103D.narr u1031
Ligature2: "LigatureSubstitutionlookup167 subtable" u1000 u103C_u103D.wide u1031
Ligature2: "LigatureSubstitutionlookup165 subtable" u1000 u103C
Ligature2: "LigatureSubstitutionlookup165 subtable" u1000 u103C_u103D.narr
Ligature2: "LigatureSubstitutionlookup165 subtable" u1000 u103C_u102F.narr
Ligature2: "LigatureSubstitutionlookup163 subtable" u1000 u1031
Ligature2: "LigatureSubstitutionlookup163 subtable" u1000 u1084
Ligature2: "LigatureSubstitutionlookup162 subtable" u1000 u103D
Ligature2: "LigatureSubstitutionlookup162 subtable" u1000 u103E
Ligature2: "LigatureSubstitutionlookup162 subtable" u1000 u103D_u103E
Ligature2: "LigatureSubstitutionlookup162 subtable" u1000 u105E
Ligature2: "LigatureSubstitutionlookup162 subtable" u1000 u105F
Ligature2: "LigatureSubstitutionlookup162 subtable" u1000 u1060
Ligature2: "LigatureSubstitutionlookup162 subtable" u1000 u1082
Ligature2: "LigatureSubstitutionlookup158 subtable" u1000 u1039
MultipleSubs2: "MultipleSubstitutionlookup139 subtable" u200C u1031 u1000
MultipleSubs2: "MultipleSubstitutionlookup137 subtable" u200C u1084 u1000
MultipleSubs2: "MultipleSubstitutionlookup136 subtable" u200C u103C_u103D.wide u1000
MultipleSubs2: "MultipleSubstitutionlookup135 subtable" u200C u103C_u102F.wide u1000
MultipleSubs2: "MultipleSubstitutionlookup134 subtable" u200C u103C.wide u1000
Ligature2: "LigatureSubstitutionlookup130 subtable" u1004.kinzi u200D u1000
Ligature2: "LigatureSubstitutionlookup130 subtable" u101B.kinzi u200D u1000
MultipleSubs2: "MultipleSubstitutionlookup129 subtable" u1000 u101B.kinzi
MultipleSubs2: "MultipleSubstitutionlookup128 subtable" u1000 u1004.kinzi
Ligature2: "LigatureSubstitutionlookup127 subtable" u1004.kinzi u200D u1000
Ligature2: "LigatureSubstitutionlookup127 subtable" u101B.kinzi u200D u1000
Ligature2: "LigatureSubstitutionlookup124 subtable" u1004.kinzi u200D u1000
Ligature2: "LigatureSubstitutionlookup124 subtable" u101B.kinzi u200D u1000
EndChar

StartChar: u1000.med
Encoding: 65538 -1 98
Width: 798
VWidth: 0
GlyphClass: 4
Flags: W
HStem: -450 40<518.783 631.632> -125 39<166.467 309.249 501.914 631.632>
VStem: 55 39<-361.8 -201.291> 381 40<-364.983 -213.396> 703 39<-338.185 -196.097>
AnchorPoint: "BSM" 88 -53 basemark 0
AnchorPoint: "BDM" -393 -53 basemark 0
AnchorPoint: "BDM" -393 -53 mark 0
AnchorPoint: "LLM" -74 -53 basemark 0
AnchorPoint: "LM" 886 -53 basemark 0
AnchorPoint: "BSM" 886 -53 mark 0
AnchorPoint: "BD" 405 -53 mark 0
LayerCount: 2
Fore
SplineSet
742 -267 m 0
 742 -165 660 -86 562 -86 c 0
 495 -86 436 -132 405 -197 c 0
 376 -126 312 -86 238 -86 c 0
 136 -86 55 -167 55 -282 c 0
 55 -368 87 -414 130 -450 c 0
 154 -417 l 0
 120 -383 94 -341 94 -282 c 0
 94 -186 159 -125 238 -125 c 0
 316 -125 381 -186 381 -282 c 0
 381 -341 358 -383 322 -417 c 0
 346 -450 l 0
 388 -416 421 -372 421 -290 c 0
 421 -210 486 -125 562 -125 c 0
 639 -125 703 -189 703 -267 c 0
 703 -345 639 -410 562 -410 c 0
 550 -410 537 -408 525 -402 c 0
 508 -438 l 0
 525 -447 543 -450 562 -450 c 0
 660 -450 742 -369 742 -267 c 0
EndSplineSet
Ligature2: "LigatureSubstitutionlookup179 subtable" u1000.med u102D
Ligature2: "LigatureSubstitutionlookup179 subtable" u1000.med u102E
Ligature2: "LigatureSubstitutionlookup179 subtable" u1000.med u1032
Ligature2: "LigatureSubstitutionlookup179 subtable" u1000.med u103A
Ligature2: "LigatureSubstitutionlookup171 subtable" u1000.med u103C u1031
Ligature2: "LigatureSubstitutionlookup159 subtable" u1000.med u1031
Ligature2: "LigatureSubstitutionlookup159 subtable" u1000.med u103C
MultipleSubs2: "MultipleSubstitutionlookup138 subtable" u1039 u1000.med
Ligature2: "sub_ligature_cligmymr_0 subtable" u1039 u1000
EndChar

StartChar: u1000_u1001_u103B
Encoding: 65539 -1 99
Width: 1147
VWidth: 0
GlyphClass: 2
Flags: W
HStem: -435 40<636.336 786.138> -300 36<588.622 726.301> -110 41<639.745 784.703> -15 51<656.623 797.51> 408 51<211.273 372.575 639.506 797.51>
VStem: 55 51<103.062 299.749> 478 51<102.439 280.649> 856 39<-324.505 -180.941> 895 51<134.358 309.23>
DStem2: 873 -339 838 -384 0.96786 -0.251491<0 173.918>
AnchorPoint: "U" 940 495 basechar 0
AnchorPoint: "BS" 1236 -53 basechar 0
AnchorPoint: "BD" 1236 -53 basechar 0
AnchorPoint: "L" 1236 -53 basechar 0
AnchorPoint: "R" 0 0 mark 0
AnchorPoint: "LL" 394 -53 basechar 0
LayerCount: 2
Fore
SplineSet
787 -377 m 0xfe
 765 -387 739 -395 714 -395 c 0
 661 -395 604 -369 582 -321 c 0
 606 -308 631 -300 657 -300 c 0
 712 -300 762 -331 787 -377 c 0xfe
946 222 m 0xfe80
 946 351 841 459 714 459 c 0
 627 459 549 394 508 313 c 0
 469 402 388 457 292 457 c 0
 162 457 55 355 55 202 c 0
 55 91 97 30 153 -15 c 0
 183 28 l 0
 138 70 106 126 106 202 c 0
 106 324 190 406 292 406 c 0
 394 406 478 324 478 202 c 0
 478 126 447 70 402 28 c 0
 432 -15 l 0
 487 28 527 87 529 192 c 0
 530 294 615 408 714 408 c 0
 814 408 895 324 895 222 c 0
 895 120 814 36 714 36 c 0
 697 36 679 42 663 46 c 0
 643 0 l 0
 666 -8 690 -15 714 -15 c 0
 841 -15 946 91 946 222 c 0xfe80
1092 -450 m 0
 1092 444 l 0
 1041 444 l 0
 1041 -384 l 0
 873 -339 l 0
 888 -314 895 -284 895 -252 c 0
 895 -150 814 -69 714 -69 c 0
 648 -69 573 -107 544 -174 c 0
 577 -195 l 0
 606 -140 660 -110 714 -110 c 0
 793 -110 856 -174 856 -252 c 0xff
 856 -291 843 -324 814 -353 c 0
 787 -304 715 -264 660 -264 c 0
 619 -264 581 -279 538 -305 c 0
 538 -341 595 -435 714 -435 c 0
 762 -435 807 -416 838 -384 c 0
 1092 -450 l 0
EndSplineSet
Ligature2: "sub_ligature_cligmymr_4 subtable" u1000 u1001.med u103B
EndChar

StartChar: u1000_u103B_u1015_u103A
Encoding: 65540 -1 100
Width: 1716
VWidth: 0
GlyphClass: 2
Flags: HW
AnchorPoint: "R" 0 0 mark 0
LayerCount: 2
Fore
SplineSet
1645 826 m 0
 1623 873 1569 903 1509 903 c 0
 1417 903 1330 828 1330 720 c 0
 1330 598 1440 532 1513 532 c 0
 1513 571 l 0
 1482 571 1369 610 1369 720 c 0
 1369 808 1443 864 1509 864 c 0
 1543 864 1587 849 1617 802 c 0
 1645 826 l 0
1660 240 m 0
 1660 349 1618 411 1563 457 c 0
 1533 414 l 0
 1579 372 1609 316 1609 240 c 0
 1609 120 1525 36 1423 36 c 0
 1321 36 1237 120 1237 240 c 0
 1237 316 1267 372 1314 414 c 0
 1284 457 l 0
 1225 411 1186 349 1186 240 c 0
 1186 87 1293 -15 1423 -15 c 0
 1554 -15 1660 87 1660 240 c 0
1092 -450 m 0
 1092 444 l 0
 1041 444 l 0
 1041 -384 l 0
 829 -329 l 0
 829 16 l 0
 900 57 946 132 946 222 c 0
 946 351 840 459 714 459 c 0
 625 459 549 396 508 313 c 0
 468 403 388 457 292 457 c 0
 162 457 55 355 55 202 c 0
 55 90 97 31 153 -15 c 0
 183 28 l 0
 136 70 106 126 106 202 c 0
 106 322 190 406 292 406 c 0
 394 406 478 322 478 202 c 0
 478 126 448 70 402 28 c 0
 432 -15 l 0
 487 28 528 85 529 192 c 0
 529 294 615 408 714 408 c 0
 814 408 895 324 895 222 c 0
 895 120 814 36 714 36 c 0
 697 36 679 39 663 46 c 0
 643 0 l 0
 666 -11 690 -15 714 -15 c 0
 736 -15 757 -12 778 -6 c 0
 778 -369 l 0
 1092 -450 l 0
EndSplineSet
EndChar

StartChar: u1001
Encoding: 4097 4097 101
Width: 576
VWidth: 0
GlyphClass: 2
Flags: W
HStem: -15 51<190.989 370.661> 153 51<123.85 297.526> 408 51<197.319 368.872>
VStem: 469 51<134.586 307.02>
AnchorPoint: "U" 283 495 basechar 0
AnchorPoint: "BS" 283 -53 basechar 0
AnchorPoint: "BD" 283 -53 basechar 0
AnchorPoint: "L" 283 -53 basechar 0
AnchorPoint: "R" 0 0 mark 0
LayerCount: 2
Fore
SplineSet
374 59 m 0
 346 44 318 36 283 36 c 0
 215 36 151 66 115 127 c 0
 148 145 185 153 213 153 c 0
 278 153 345 114 374 59 c 0
520 222 m 0
 520 351 414 459 283 459 c 0
 191 459 98 406 63 322 c 0
 106 297 l 0
 140 366 214 408 283 408 c 0
 386 408 469 323 469 222 c 0
 469 170 449 126 417 91 c 0
 383 147 303 204 210 204 c 0
 167 204 111 187 55 153 c 0
 72 54 169 -15 283 -15 c 0
 414 -15 520 91 520 222 c 0
EndSplineSet
Position2: "SinglePositioninglookup48 per glyph data 0" dx=100 dy=0 dh=50 dv=0
Position2: "SinglePositioninglookup30 subtable" dx=140 dy=0 dh=140 dv=0
PairPos2: "PairwisePositioningkerninglooku subtable" u1000.med dx=0 dy=0 dh=90 dv=0 dx=0 dy=0 dh=90 dv=0
PairPos2: "PairwisePositioningkerninglooku subtable" u1003.med dx=0 dy=0 dh=90 dv=0 dx=0 dy=0 dh=90 dv=0
PairPos2: "PairwisePositioningkerninglooku subtable" u1006.med dx=0 dy=0 dh=90 dv=0 dx=0 dy=0 dh=90 dv=0
PairPos2: "PairwisePositioningkerninglooku subtable" u100A.med dx=0 dy=0 dh=90 dv=0 dx=0 dy=0 dh=90 dv=0
PairPos2: "PairwisePositioningkerninglooku subtable" u100C.med dx=0 dy=0 dh=90 dv=0 dx=0 dy=0 dh=90 dv=0
PairPos2: "PairwisePositioningkerninglooku subtable" u100F.med dx=0 dy=0 dh=90 dv=0 dx=0 dy=0 dh=90 dv=0
PairPos2: "PairwisePositioningkerninglooku subtable" u1010.med dx=0 dy=0 dh=90 dv=0 dx=0 dy=0 dh=90 dv=0
PairPos2: "PairwisePositioningkerninglooku subtable" u1011.med dx=0 dy=0 dh=90 dv=0 dx=0 dy=0 dh=90 dv=0
PairPos2: "PairwisePositioningkerninglooku subtable" u1018.med dx=0 dy=0 dh=90 dv=0 dx=0 dy=0 dh=90 dv=0
PairPos2: "PairwisePositioningkerninglooku subtable" u101A.med dx=0 dy=0 dh=90 dv=0 dx=0 dy=0 dh=90 dv=0
PairPos2: "PairwisePositioningkerninglooku subtable" u101C.med dx=0 dy=0 dh=90 dv=0 dx=0 dy=0 dh=90 dv=0
PairPos2: "PairwisePositioningkerninglooku subtable" u101C.med_u103D dx=0 dy=0 dh=90 dv=0 dx=0 dy=0 dh=90 dv=0
PairPos2: "PairwisePositioningkerninglooku subtable" u101E.med dx=0 dy=0 dh=90 dv=0 dx=0 dy=0 dh=90 dv=0
PairPos2: "PairwisePositioningkerninglooku subtable" u1021.med dx=0 dy=0 dh=90 dv=0 dx=0 dy=0 dh=90 dv=0
PairPos2: "PairwisePositioningkerninglooku subtable" uAA60.med dx=0 dy=0 dh=90 dv=0 dx=0 dy=0 dh=90 dv=0
PairPos2: "PairwisePositioningkerninglooku subtable" uAA60.med.kham dx=0 dy=0 dh=90 dv=0 dx=0 dy=0 dh=90 dv=0
Ligature2: "LigatureSubstitutionlookup169 subtable" u1001 u103C
Ligature2: "LigatureSubstitutionlookup167 subtable" u1001 u103C u1031
Ligature2: "LigatureSubstitutionlookup167 subtable" u1001 u103C.wide u1031
Ligature2: "LigatureSubstitutionlookup167 subtable" u1001 u103C_u103D.narr u1031
Ligature2: "LigatureSubstitutionlookup167 subtable" u1001 u103C_u103D.wide u1031
Ligature2: "LigatureSubstitutionlookup165 subtable" u1001 u103C
Ligature2: "LigatureSubstitutionlookup165 subtable" u1001 u103C_u103D.narr
Ligature2: "LigatureSubstitutionlookup165 subtable" u1001 u103C_u102F.narr
Ligature2: "LigatureSubstitutionlookup163 subtable" u1001 u1031
Ligature2: "LigatureSubstitutionlookup163 subtable" u1001 u1084
Ligature2: "LigatureSubstitutionlookup162 subtable" u1001 u103D
Ligature2: "LigatureSubstitutionlookup162 subtable" u1001 u103E
Ligature2: "LigatureSubstitutionlookup162 subtable" u1001 u103D_u103E
Ligature2: "LigatureSubstitutionlookup162 subtable" u1001 u105E
Ligature2: "LigatureSubstitutionlookup162 subtable" u1001 u105F
Ligature2: "LigatureSubstitutionlookup162 subtable" u1001 u1060
Ligature2: "LigatureSubstitutionlookup162 subtable" u1001 u1082
Ligature2: "LigatureSubstitutionlookup158 subtable" u1001 u1039
MultipleSubs2: "MultipleSubstitutionlookup139 subtable" u200C u1031 u1001
MultipleSubs2: "MultipleSubstitutionlookup137 subtable" u200C u1084 u1001
MultipleSubs2: "MultipleSubstitutionlookup136 subtable" u200C u103C_u103D.narr u1001
MultipleSubs2: "MultipleSubstitutionlookup135 subtable" u200C u103C_u102F.narr u1001
MultipleSubs2: "MultipleSubstitutionlookup134 subtable" u200C u103C u1001
Ligature2: "LigatureSubstitutionlookup130 subtable" u1004.kinzi u200D u1001
Ligature2: "LigatureSubstitutionlookup130 subtable" u101B.kinzi u200D u1001
MultipleSubs2: "MultipleSubstitutionlookup129 subtable" u1001 u101B.kinzi
MultipleSubs2: "MultipleSubstitutionlookup128 subtable" u1001 u1004.kinzi
Ligature2: "LigatureSubstitutionlookup127 subtable" u1004.kinzi u200D u1001
Ligature2: "LigatureSubstitutionlookup127 subtable" u101B.kinzi u200D u1001
Ligature2: "LigatureSubstitutionlookup124 subtable" u1004.kinzi u200D u1001
Ligature2: "LigatureSubstitutionlookup124 subtable" u101B.kinzi u200D u1001
EndChar

StartChar: u1001.med
Encoding: 65541 -1 102
Width: 468
VWidth: 0
GlyphClass: 4
Flags: W
HStem: -450 40<152.793 302.217> -315 35<105.984 242.122> -125 41<156.745 301.703>
VStem: 373 39<-339.102 -195.941>
AnchorPoint: "BSM" -237 -53 basemark 0
AnchorPoint: "BS" -237 -53 basemark 0
AnchorPoint: "BS" 231 -53 mark 0
AnchorPoint: "LLM" -89 -53 basemark 0
AnchorPoint: "LM" 556 -53 basemark 0
AnchorPoint: "BSM" 556 -53 mark 0
LayerCount: 2
Fore
SplineSet
304 -392 m 0
 282 -402 256 -410 231 -410 c 0
 178 -410 121 -384 99 -336 c 0
 123 -323 148 -315 174 -315 c 0
 229 -315 279 -346 304 -392 c 0
412 -267 m 0
 412 -165 331 -84 231 -84 c 0
 165 -84 90 -122 61 -189 c 0
 94 -210 l 0
 123 -155 177 -125 231 -125 c 0
 310 -125 373 -189 373 -267 c 0
 373 -306 360 -339 331 -368 c 0
 300 -315 234 -280 177 -280 c 0
 133 -280 93 -296 55 -320 c 0
 55 -364 119 -450 231 -450 c 0
 331 -450 412 -369 412 -267 c 0
EndSplineSet
Ligature2: "LigatureSubstitutionlookup179 subtable" u1001.med u102D
Ligature2: "LigatureSubstitutionlookup179 subtable" u1001.med u102E
Ligature2: "LigatureSubstitutionlookup179 subtable" u1001.med u1032
Ligature2: "LigatureSubstitutionlookup179 subtable" u1001.med u103A
Ligature2: "LigatureSubstitutionlookup171 subtable" u1001.med u103C u1031
Ligature2: "LigatureSubstitutionlookup159 subtable" u1001.med u1031
Ligature2: "LigatureSubstitutionlookup159 subtable" u1001.med u103C
MultipleSubs2: "MultipleSubstitutionlookup138 subtable" u1039 u1001.med
Ligature2: "sub_ligature_cligmymr_0 subtable" u1039 u1001
EndChar

StartChar: u1002
Encoding: 4098 4098 103
Width: 585
VWidth: 0
GlyphClass: 2
Flags: W
HStem: 406 51<209.255 374.945>
VStem: 55 51<101.089 299.309> 478 51<101.089 299.309>
AnchorPoint: "U" 292 495 basechar 0
AnchorPoint: "BS" 292 -53 basechar 0
AnchorPoint: "BD" 292 -53 basechar 0
AnchorPoint: "L" 292 -53 basechar 0
AnchorPoint: "R" 0 0 mark 0
LayerCount: 2
Fore
SplineSet
529 202 m 0
 529 355 423 457 292 457 c 0
 162 457 55 355 55 202 c 0
 55 90 97 31 153 -15 c 0
 183 28 l 0
 136 70 106 126 106 202 c 0
 106 322 190 406 292 406 c 0
 394 406 478 322 478 202 c 0
 478 126 448 70 402 28 c 0
 432 -15 l 0
 490 31 529 90 529 202 c 0
EndSplineSet
Position2: "SinglePositioninglookup48 per glyph data 0" dx=100 dy=0 dh=50 dv=0
Position2: "SinglePositioninglookup30 subtable" dx=140 dy=0 dh=140 dv=0
PairPos2: "PairwisePositioningkerninglooku subtable" u1000.med dx=0 dy=0 dh=90 dv=0 dx=0 dy=0 dh=90 dv=0
PairPos2: "PairwisePositioningkerninglooku subtable" u1003.med dx=0 dy=0 dh=90 dv=0 dx=0 dy=0 dh=90 dv=0
PairPos2: "PairwisePositioningkerninglooku subtable" u1006.med dx=0 dy=0 dh=90 dv=0 dx=0 dy=0 dh=90 dv=0
PairPos2: "PairwisePositioningkerninglooku subtable" u100A.med dx=0 dy=0 dh=90 dv=0 dx=0 dy=0 dh=90 dv=0
PairPos2: "PairwisePositioningkerninglooku subtable" u100C.med dx=0 dy=0 dh=90 dv=0 dx=0 dy=0 dh=90 dv=0
PairPos2: "PairwisePositioningkerninglooku subtable" u100F.med dx=0 dy=0 dh=90 dv=0 dx=0 dy=0 dh=90 dv=0
PairPos2: "PairwisePositioningkerninglooku subtable" u1010.med dx=0 dy=0 dh=90 dv=0 dx=0 dy=0 dh=90 dv=0
PairPos2: "PairwisePositioningkerninglooku subtable" u1011.med dx=0 dy=0 dh=90 dv=0 dx=0 dy=0 dh=90 dv=0
PairPos2: "PairwisePositioningkerninglooku subtable" u1018.med dx=0 dy=0 dh=90 dv=0 dx=0 dy=0 dh=90 dv=0
PairPos2: "PairwisePositioningkerninglooku subtable" u101A.med dx=0 dy=0 dh=90 dv=0 dx=0 dy=0 dh=90 dv=0
PairPos2: "PairwisePositioningkerninglooku subtable" u101C.med dx=0 dy=0 dh=90 dv=0 dx=0 dy=0 dh=90 dv=0
PairPos2: "PairwisePositioningkerninglooku subtable" u101C.med_u103D dx=0 dy=0 dh=90 dv=0 dx=0 dy=0 dh=90 dv=0
PairPos2: "PairwisePositioningkerninglooku subtable" u101E.med dx=0 dy=0 dh=90 dv=0 dx=0 dy=0 dh=90 dv=0
PairPos2: "PairwisePositioningkerninglooku subtable" u1021.med dx=0 dy=0 dh=90 dv=0 dx=0 dy=0 dh=90 dv=0
PairPos2: "PairwisePositioningkerninglooku subtable" uAA60.med dx=0 dy=0 dh=90 dv=0 dx=0 dy=0 dh=90 dv=0
PairPos2: "PairwisePositioningkerninglooku subtable" uAA60.med.kham dx=0 dy=0 dh=90 dv=0 dx=0 dy=0 dh=90 dv=0
Substitution2: "sub_single_cligmymr_2 subtable" u1002.kham
Ligature2: "LigatureSubstitutionlookup169 subtable" u1002 u103C
Ligature2: "LigatureSubstitutionlookup167 subtable" u1002 u103C u1031
Ligature2: "LigatureSubstitutionlookup167 subtable" u1002 u103C.wide u1031
Ligature2: "LigatureSubstitutionlookup167 subtable" u1002 u103C_u103D.narr u1031
Ligature2: "LigatureSubstitutionlookup167 subtable" u1002 u103C_u103D.wide u1031
Ligature2: "LigatureSubstitutionlookup165 subtable" u1002 u103C
Ligature2: "LigatureSubstitutionlookup165 subtable" u1002 u103C_u103D.narr
Ligature2: "LigatureSubstitutionlookup165 subtable" u1002 u103C_u102F.narr
Ligature2: "LigatureSubstitutionlookup163 subtable" u1002 u1031
Ligature2: "LigatureSubstitutionlookup163 subtable" u1002 u1084
Ligature2: "LigatureSubstitutionlookup162 subtable" u1002 u103D
Ligature2: "LigatureSubstitutionlookup162 subtable" u1002 u103E
Ligature2: "LigatureSubstitutionlookup162 subtable" u1002 u103D_u103E
Ligature2: "LigatureSubstitutionlookup162 subtable" u1002 u105E
Ligature2: "LigatureSubstitutionlookup162 subtable" u1002 u105F
Ligature2: "LigatureSubstitutionlookup162 subtable" u1002 u1060
Ligature2: "LigatureSubstitutionlookup162 subtable" u1002 u1082
Ligature2: "LigatureSubstitutionlookup158 subtable" u1002 u1039
MultipleSubs2: "MultipleSubstitutionlookup139 subtable" u200C u1031 u1002
MultipleSubs2: "MultipleSubstitutionlookup137 subtable" u200C u1084 u1002
MultipleSubs2: "MultipleSubstitutionlookup136 subtable" u200C u103C_u103D.narr u1002
MultipleSubs2: "MultipleSubstitutionlookup135 subtable" u200C u103C_u102F.narr u1002
MultipleSubs2: "MultipleSubstitutionlookup134 subtable" u200C u103C u1002
Ligature2: "LigatureSubstitutionlookup130 subtable" u1004.kinzi u200D u1002
Ligature2: "LigatureSubstitutionlookup130 subtable" u101B.kinzi u200D u1002
MultipleSubs2: "MultipleSubstitutionlookup129 subtable" u1002 u101B.kinzi
MultipleSubs2: "MultipleSubstitutionlookup128 subtable" u1002 u1004.kinzi
Ligature2: "LigatureSubstitutionlookup127 subtable" u1004.kinzi u200D u1002
Ligature2: "LigatureSubstitutionlookup127 subtable" u101B.kinzi u200D u1002
Ligature2: "LigatureSubstitutionlookup124 subtable" u1004.kinzi u200D u1002
Ligature2: "LigatureSubstitutionlookup124 subtable" u101B.kinzi u200D u1002
EndChar

StartChar: u1002.med
Encoding: 65542 -1 104
Width: 477
VWidth: 0
GlyphClass: 4
Flags: W
HStem: -125 39<166.371 308.79>
VStem: 55 40<-363.414 -199.595> 381 40<-366.058 -201.603>
AnchorPoint: "BSM" -239 -53 mark 0
AnchorPoint: "BS" -239 -53 mark 0
AnchorPoint: "BS" 238 -53 basemark 0
AnchorPoint: "LLM" -89 -53 basemark 0
AnchorPoint: "LM" 565 -53 basemark 0
AnchorPoint: "BSM" 565 -53 basemark 0
LayerCount: 2
Fore
SplineSet
421 -282 m 0
 421 -167 340 -86 238 -86 c 0
 136 -86 55 -167 55 -282 c 0
 55 -369 86 -414 130 -450 c 0
 154 -417 l 0
 121 -384 95 -340 95 -281 c 0
 95 -189 158 -125 238 -125 c 0
 328 -125 381 -202 381 -282 c 0
 381 -341 358 -384 322 -417 c 0
 346 -450 l 0
 390 -414 421 -369 421 -282 c 0
EndSplineSet
Ligature2: "LigatureSubstitutionlookup179 subtable" u1002.med u102D
Ligature2: "LigatureSubstitutionlookup179 subtable" u1002.med u102E
Ligature2: "LigatureSubstitutionlookup179 subtable" u1002.med u1032
Ligature2: "LigatureSubstitutionlookup179 subtable" u1002.med u103A
Ligature2: "LigatureSubstitutionlookup171 subtable" u1002.med u103C u1031
Ligature2: "LigatureSubstitutionlookup159 subtable" u1002.med u1031
Ligature2: "LigatureSubstitutionlookup159 subtable" u1002.med u103C
MultipleSubs2: "MultipleSubstitutionlookup138 subtable" u1039 u1002.med
Ligature2: "sub_ligature_cligmymr_0 subtable" u1039 u1002
EndChar

StartChar: u1003
Encoding: 4099 4099 105
Width: 999
VWidth: 0
GlyphClass: 2
Flags: W
HStem: -15 51<194.582 371.14 638.066 794.304> 408 51<106.344 181.113 653.623 794.304>
VStem: 55 51<117.975 217.926> 195 51<307.438 393.012> 471 51<160.566 340.108> 892 51<134.358 309.23>
AnchorPoint: "U" 712 495 basechar 0
AnchorPoint: "BS" 712 -53 basechar 0
AnchorPoint: "BD" 495 -53 basechar 0
AnchorPoint: "L" 712 -53 basechar 0
AnchorPoint: "R" 0 0 mark 0
LayerCount: 2
Fore
SplineSet
943 222 m 0
 943 351 837 459 711 459 c 0
 687 459 663 454 640 444 c 0
 660 397 l 0
 676 405 694 408 711 408 c 0
 811 408 892 324 892 222 c 0
 892 120 811 36 711 36 c 0
 616 36 522 148 522 240 c 0
 522 347 480 412 424 457 c 0
 394 414 l 0
 434 380 471 321 471 252 c 0
 471 135 403 36 285 36 c 0
 156 36 106 144 106 168 c 0
 106 255 246 243 246 339 c 0
 246 415 196 456 142 456 c 0
 106 456 61 422 55 402 c 0
 99 375 l 0
 100 382 118 405 142 405 c 0
 166 405 195 388 195 339 c 0
 195 285 55 294 55 168 c 0
 55 88 144 -15 285 -15 c 0
 381 -15 463 40 501 130 c 0
 543 46 622 -15 711 -15 c 0
 837 -15 943 91 943 222 c 0
EndSplineSet
Ligature2: "LigatureSubstitutionlookup169 subtable" u1003 u103C
Ligature2: "LigatureSubstitutionlookup167 subtable" u1003 u103C u1031
Ligature2: "LigatureSubstitutionlookup167 subtable" u1003 u103C.wide u1031
Ligature2: "LigatureSubstitutionlookup167 subtable" u1003 u103C_u103D.narr u1031
Ligature2: "LigatureSubstitutionlookup167 subtable" u1003 u103C_u103D.wide u1031
Ligature2: "LigatureSubstitutionlookup165 subtable" u1003 u103C
Ligature2: "LigatureSubstitutionlookup165 subtable" u1003 u103C_u103D.narr
Ligature2: "LigatureSubstitutionlookup165 subtable" u1003 u103C_u102F.narr
Ligature2: "LigatureSubstitutionlookup163 subtable" u1003 u1031
Ligature2: "LigatureSubstitutionlookup163 subtable" u1003 u1084
Ligature2: "LigatureSubstitutionlookup162 subtable" u1003 u103D
Ligature2: "LigatureSubstitutionlookup162 subtable" u1003 u103E
Ligature2: "LigatureSubstitutionlookup162 subtable" u1003 u103D_u103E
Ligature2: "LigatureSubstitutionlookup162 subtable" u1003 u105E
Ligature2: "LigatureSubstitutionlookup162 subtable" u1003 u105F
Ligature2: "LigatureSubstitutionlookup162 subtable" u1003 u1060
Ligature2: "LigatureSubstitutionlookup162 subtable" u1003 u1082
Ligature2: "LigatureSubstitutionlookup158 subtable" u1003 u1039
MultipleSubs2: "MultipleSubstitutionlookup139 subtable" u200C u1031 u1003
MultipleSubs2: "MultipleSubstitutionlookup137 subtable" u200C u1084 u1003
MultipleSubs2: "MultipleSubstitutionlookup136 subtable" u200C u103C_u103D.wide u1003
MultipleSubs2: "MultipleSubstitutionlookup135 subtable" u200C u103C_u102F.wide u1003
MultipleSubs2: "MultipleSubstitutionlookup134 subtable" u200C u103C.wide u1003
Ligature2: "LigatureSubstitutionlookup130 subtable" u1004.kinzi u200D u1003
Ligature2: "LigatureSubstitutionlookup130 subtable" u101B.kinzi u200D u1003
MultipleSubs2: "MultipleSubstitutionlookup129 subtable" u1003 u101B.kinzi
MultipleSubs2: "MultipleSubstitutionlookup128 subtable" u1003 u1004.kinzi
Ligature2: "LigatureSubstitutionlookup127 subtable" u1004.kinzi u200D u1003
Ligature2: "LigatureSubstitutionlookup127 subtable" u101B.kinzi u200D u1003
Ligature2: "LigatureSubstitutionlookup124 subtable" u1004.kinzi u200D u1003
Ligature2: "LigatureSubstitutionlookup124 subtable" u101B.kinzi u200D u1003
EndChar

StartChar: u1003.med
Encoding: 65543 -1 106
Width: 795
VWidth: 0
GlyphClass: 4
Flags: W
HStem: -450 40<155.218 303.294 498.025 629.791> -126 39<80.2385 156.676 517.175 629.791>
VStem: 55 39<-351.11 -267.764 -133.242 -127.296> 163 39<-201.185 -131.851> 375 42<-325.359 -171.286> 700 39<-338.185 -196.097>
AnchorPoint: "BSM" 88 -53 basemark 0
AnchorPoint: "BDM" -401 -53 mark 0
AnchorPoint: "BD" -401 -53 mark 0
AnchorPoint: "LLM" -89 -53 basemark 0
AnchorPoint: "LM" 883 -53 basemark 0
AnchorPoint: "BSM" 883 -53 mark 0
AnchorPoint: "BD" 394 -53 basemark 0
LayerCount: 2
Fore
SplineSet
739 -267 m 0
 739 -165 658 -86 561 -86 c 0
 541 -86 523 -87 507 -98 c 0
 523 -135 l 0
 535 -128 549 -125 561 -125 c 0
 637 -125 700 -189 700 -267 c 0
 700 -345 637 -410 561 -410 c 0
 487 -410 417 -326 417 -254 c 0
 417 -170 384 -122 340 -86 c 0
 316 -119 l 0
 343 -144 375 -197 375 -245 c 0
 375 -335 324 -410 232 -410 c 0
 132 -410 94 -329 94 -309 c 0
 94 -240 202 -250 202 -177 c 0
 202 -119 165 -87 123 -87 c 0
 91 -87 58 -111 55 -129 c 0
 88 -149 l 0
 90 -138 103 -126 123 -126 c 0
 141 -126 163 -137 163 -172 c 0
 163 -220 55 -213 55 -309 c 0
 55 -369 124 -450 232 -450 c 0
 306 -450 370 -408 399 -338 c 0
 433 -402 495 -450 561 -450 c 0
 658 -450 739 -369 739 -267 c 0
EndSplineSet
Ligature2: "LigatureSubstitutionlookup179 subtable" u1003.med u102D
Ligature2: "LigatureSubstitutionlookup179 subtable" u1003.med u102E
Ligature2: "LigatureSubstitutionlookup179 subtable" u1003.med u1032
Ligature2: "LigatureSubstitutionlookup179 subtable" u1003.med u103A
Ligature2: "LigatureSubstitutionlookup171 subtable" u1003.med u103C u1031
Ligature2: "LigatureSubstitutionlookup159 subtable" u1003.med u1031
Ligature2: "LigatureSubstitutionlookup159 subtable" u1003.med u103C
MultipleSubs2: "MultipleSubstitutionlookup138 subtable" u1039 u1003.med
Ligature2: "sub_ligature_cligmymr_0 subtable" u1039 u1003
EndChar

StartChar: u1004
Encoding: 4100 4100 107
Width: 568
VWidth: 0
GlyphClass: 2
Flags: W
HStem: -15 51<206.554 378.804> 408 51<206.554 378.804>
VStem: 55 51<136.348 307.24>
AnchorPoint: "U" 292 495 basechar 0
AnchorPoint: "BS" 292 -53 basechar 0
AnchorPoint: "BD" 292 -53 basechar 0
AnchorPoint: "L" 292 -53 basechar 0
AnchorPoint: "R" 0 0 mark 0
LayerCount: 2
Fore
SplineSet
513 121 m 0
 469 147 l 0
 432 76 363 36 292 36 c 0
 190 36 106 120 106 222 c 0
 106 324 190 408 292 408 c 0
 363 408 432 367 469 297 c 0
 513 322 l 0
 475 412 381 459 292 459 c 0
 162 459 55 351 55 222 c 0
 55 91 162 -15 292 -15 c 0
 381 -15 475 31 513 121 c 0
EndSplineSet
Position2: "SinglePositioninglookup48 per glyph data 0" dx=100 dy=0 dh=50 dv=0
Position2: "SinglePositioninglookup30 subtable" dx=140 dy=0 dh=140 dv=0
PairPos2: "PairwisePositioningkerninglooku subtable" u1000.med dx=0 dy=0 dh=90 dv=0 dx=0 dy=0 dh=90 dv=0
PairPos2: "PairwisePositioningkerninglooku subtable" u1003.med dx=0 dy=0 dh=90 dv=0 dx=0 dy=0 dh=90 dv=0
PairPos2: "PairwisePositioningkerninglooku subtable" u1006.med dx=0 dy=0 dh=90 dv=0 dx=0 dy=0 dh=90 dv=0
PairPos2: "PairwisePositioningkerninglooku subtable" u100A.med dx=0 dy=0 dh=90 dv=0 dx=0 dy=0 dh=90 dv=0
PairPos2: "PairwisePositioningkerninglooku subtable" u100C.med dx=0 dy=0 dh=90 dv=0 dx=0 dy=0 dh=90 dv=0
PairPos2: "PairwisePositioningkerninglooku subtable" u100F.med dx=0 dy=0 dh=90 dv=0 dx=0 dy=0 dh=90 dv=0
PairPos2: "PairwisePositioningkerninglooku subtable" u1010.med dx=0 dy=0 dh=90 dv=0 dx=0 dy=0 dh=90 dv=0
PairPos2: "PairwisePositioningkerninglooku subtable" u1011.med dx=0 dy=0 dh=90 dv=0 dx=0 dy=0 dh=90 dv=0
PairPos2: "PairwisePositioningkerninglooku subtable" u1018.med dx=0 dy=0 dh=90 dv=0 dx=0 dy=0 dh=90 dv=0
PairPos2: "PairwisePositioningkerninglooku subtable" u101A.med dx=0 dy=0 dh=90 dv=0 dx=0 dy=0 dh=90 dv=0
PairPos2: "PairwisePositioningkerninglooku subtable" u101C.med dx=0 dy=0 dh=90 dv=0 dx=0 dy=0 dh=90 dv=0
PairPos2: "PairwisePositioningkerninglooku subtable" u101C.med_u103D dx=0 dy=0 dh=90 dv=0 dx=0 dy=0 dh=90 dv=0
PairPos2: "PairwisePositioningkerninglooku subtable" u101E.med dx=0 dy=0 dh=90 dv=0 dx=0 dy=0 dh=90 dv=0
PairPos2: "PairwisePositioningkerninglooku subtable" u1021.med dx=0 dy=0 dh=90 dv=0 dx=0 dy=0 dh=90 dv=0
PairPos2: "PairwisePositioningkerninglooku subtable" uAA60.med dx=0 dy=0 dh=90 dv=0 dx=0 dy=0 dh=90 dv=0
PairPos2: "PairwisePositioningkerninglooku subtable" uAA60.med.kham dx=0 dy=0 dh=90 dv=0 dx=0 dy=0 dh=90 dv=0
Substitution2: "sub_single_cligmymr_2 subtable" u1004.kham
Ligature2: "LigatureSubstitutionlookup169 subtable" u1004 u103C
Ligature2: "LigatureSubstitutionlookup167 subtable" u1004 u103C u1031
Ligature2: "LigatureSubstitutionlookup167 subtable" u1004 u103C.wide u1031
Ligature2: "LigatureSubstitutionlookup167 subtable" u1004 u103C_u103D.narr u1031
Ligature2: "LigatureSubstitutionlookup167 subtable" u1004 u103C_u103D.wide u1031
Ligature2: "LigatureSubstitutionlookup165 subtable" u1004 u103C
Ligature2: "LigatureSubstitutionlookup165 subtable" u1004 u103C_u103D.narr
Ligature2: "LigatureSubstitutionlookup165 subtable" u1004 u103C_u102F.narr
Ligature2: "LigatureSubstitutionlookup163 subtable" u1004 u1031
Ligature2: "LigatureSubstitutionlookup163 subtable" u1004 u1084
Ligature2: "LigatureSubstitutionlookup162 subtable" u1004 u103D
Ligature2: "LigatureSubstitutionlookup162 subtable" u1004 u103E
Ligature2: "LigatureSubstitutionlookup162 subtable" u1004 u103D_u103E
Ligature2: "LigatureSubstitutionlookup162 subtable" u1004 u105E
Ligature2: "LigatureSubstitutionlookup162 subtable" u1004 u105F
Ligature2: "LigatureSubstitutionlookup162 subtable" u1004 u1060
Ligature2: "LigatureSubstitutionlookup162 subtable" u1004 u1082
Ligature2: "LigatureSubstitutionlookup158 subtable" u1004 u1039
MultipleSubs2: "MultipleSubstitutionlookup139 subtable" u200C u1031 u1004
MultipleSubs2: "MultipleSubstitutionlookup137 subtable" u200C u1084 u1004
MultipleSubs2: "MultipleSubstitutionlookup136 subtable" u200C u103C_u103D.narr u1004
MultipleSubs2: "MultipleSubstitutionlookup135 subtable" u200C u103C_u102F.narr u1004
MultipleSubs2: "MultipleSubstitutionlookup134 subtable" u200C u103C u1004
Ligature2: "LigatureSubstitutionlookup130 subtable" u1004.kinzi u200D u1004
Ligature2: "LigatureSubstitutionlookup130 subtable" u101B.kinzi u200D u1004
MultipleSubs2: "MultipleSubstitutionlookup129 subtable" u1004 u101B.kinzi
MultipleSubs2: "MultipleSubstitutionlookup128 subtable" u1004 u1004.kinzi
Ligature2: "LigatureSubstitutionlookup127 subtable" u1004.kinzi u200D u1004
Ligature2: "LigatureSubstitutionlookup127 subtable" u101B.kinzi u200D u1004
Ligature2: "LigatureSubstitutionlookup124 subtable" u1004.kinzi u200D u1004
Ligature2: "LigatureSubstitutionlookup124 subtable" u101B.kinzi u200D u1004
EndChar

StartChar: u1004.med
Encoding: 65544 -1 108
Width: 42
VWidth: 0
GlyphClass: 4
Flags: W
HStem: -450 40<-244.985 -100.684> -124 39<-244.985 -103.35>
VStem: -357 40<-337.985 -196.093>
AnchorPoint: "BSM" -216 -53 mark 0
AnchorPoint: "BS" -216 -53 mark 0
AnchorPoint: "BS" -174 -53 basemark 0
AnchorPoint: "LLM" -453 -53 basemark 0
AnchorPoint: "LM" 111 -53 basemark 0
AnchorPoint: "BSM" 111 -53 basemark 0
LayerCount: 2
Fore
SplineSet
-4 -345 m 0
 -38 -325 l 0
 -66 -380 -119 -410 -174 -410 c 0
 -253 -410 -317 -346 -317 -267 c 0
 -317 -188 -253 -124 -174 -124 c 0
 -119 -124 -66 -156 -38 -209 c 0
 -4 -190 l 0
 -33 -121 -106 -85 -174 -85 c 0
 -274 -85 -357 -167 -357 -267 c 0
 -357 -367 -274 -450 -174 -450 c 0
 -106 -450 -33 -414 -4 -345 c 0
EndSplineSet
Ligature2: "LigatureSubstitutionlookup179 subtable" u1004.med u102D
Ligature2: "LigatureSubstitutionlookup179 subtable" u1004.med u102E
Ligature2: "LigatureSubstitutionlookup179 subtable" u1004.med u1032
Ligature2: "LigatureSubstitutionlookup179 subtable" u1004.med u103A
Ligature2: "LigatureSubstitutionlookup171 subtable" u1004.med u103C u1031
Ligature2: "LigatureSubstitutionlookup159 subtable" u1004.med u1031
Ligature2: "LigatureSubstitutionlookup159 subtable" u1004.med u103C
MultipleSubs2: "MultipleSubstitutionlookup138 subtable" u1039 u1004.med
Ligature2: "sub_ligature_cligmymr_0 subtable" u1039 u1004
EndChar

StartChar: u1004.kinzi
Encoding: 65545 -1 109
Width: 55
VWidth: 0
GlyphClass: 4
Flags: W
HStem: 534 39<-134.019 -44.9182> 697 38<-130.757 -46.5414> 865 39<-136.259 -51.4743>
VStem: -192 39<591.923 677.245 756.346 848.186>
AnchorPoint: "UM" -92 495 basemark 0
AnchorPoint: "U" -92 495 mark 0
AnchorPoint: "Y" -20 495 mark 0
LayerCount: 2
Fore
SplineSet
0 586 m 0
 -33 604 l 0
 -50 585 -66 573 -92 573 c 0
 -120 573 -153 600 -153 634 c 0
 -153 669 -120 697 -92 697 c 0
 -66 697 -50 684 -33 664 c 0
 0 682 l 0
 -18 712 -50 735 -93 735 c 0
 -121 735 -153 768 -153 804 c 0
 -153 838 -125 865 -93 865 c 0
 -66 865 -54 853 -42 831 c 0
 -11 853 l 0
 -24 882 -47 904 -93 904 c 0
 -149 904 -192 856 -192 804 c 0
 -192 762 -174 738 -146 718 c 0
 -173 701 -192 675 -192 634 c 0
 -192 582 -144 534 -92 534 c 0
 -51 534 -18 552 0 586 c 0
EndSplineSet
Substitution2: "SingleSubstitutionlookup177 subtable" u1004.kinzi_u1036
Substitution2: "SingleSubstitutionlookup176 subtable" u1004.kinzi_u103A
Substitution2: "SingleSubstitutionlookup175 subtable" u1004.kinzi_u1032
Substitution2: "Single Substitution lookup 151 subtable" u1004.kinzi_u102E
Substitution2: "SingleSubstitutionlookup173 subtable" u1004.kinzi_u102D
MultipleSubs2: "MultipleSubstitutionlookup121 subtable" u1004.kinzi u200D
Ligature2: "LigatureSubstitutionlookup118 subtable" circledash u1004.kinzi
MultipleSubs2: "sub_mult_cligmymr_0 subtable" circledash u1004.kinzi
Ligature2: "cligContextualLigaturesinMyanma subtable" u1004 u103A u1039
Ligature2: "cligContextualLigaturesinMyanma subtable" u105A u103A u1039
EndChar

StartChar: u1004.kinzi_u102D
Encoding: 65546 -1 110
Width: 55
VWidth: 0
GlyphClass: 4
Flags: W
HStem: 534 39<-529.019 -439.918 -239.303 -117.92> 697 38<-525.757 -441.541> 865 39<-531.259 -446.474 -240.81 -116.401>
VStem: -587 39<591.923 677.245 756.346 848.186> -357 39<649.026 790.637> -39 39<649.026 790.637>
AnchorPoint: "UM" -296 495 basemark 0
AnchorPoint: "U" -296 495 mark 0
AnchorPoint: "Y" -20 495 mark 0
LayerCount: 2
Fore
SplineSet
-395 586 m 0
 -428 604 l 0
 -445 585 -461 573 -487 573 c 0
 -515 573 -548 600 -548 634 c 0
 -548 669 -515 697 -487 697 c 0
 -461 697 -445 684 -428 664 c 0
 -395 682 l 0
 -413 712 -445 735 -488 735 c 0
 -516 735 -548 768 -548 804 c 0
 -548 838 -520 865 -488 865 c 0
 -461 865 -449 853 -437 831 c 0
 -406 853 l 0
 -419 882 -442 904 -488 904 c 0
 -544 904 -587 856 -587 804 c 0
 -587 762 -569 738 -541 718 c 0
 -568 701 -587 675 -587 634 c 0
 -587 582 -539 534 -487 534 c 0
 -446 534 -413 552 -395 586 c 0
-39 720 m 0
 -39 642 -102 577 -179 577 c 0
 -255 577 -318 642 -318 720 c 0
 -318 798 -255 862 -179 862 c 0
 -102 862 -39 798 -39 720 c 0
0 720 m 0
 0 820 -80 903 -179 903 c 0
 -276 903 -357 820 -357 720 c 0
 -357 619 -276 537 -179 537 c 0
 -80 537 0 619 0 720 c 0
EndSplineSet
Position2: "Single Positioning lookup 43 subtable" dx=180 dy=0 dh=0 dv=0
Ligature2: "LigatureSubstitutionlookup182 subtable" u1004.kinzi_u102D u102F
Ligature2: "sub_ligature_cligmymr_8 subtable" u1004.kinzi u102D
Ligature2: "sub_ligature_cligmymr_6 subtable" u1004.kinzi_u102D u200C u102D
EndChar

StartChar: u1004.kinzi_u102E
Encoding: 65547 -1 111
Width: 55
VWidth: 0
GlyphClass: 4
Flags: W
HStem: 534 39<-529.019 -439.918 -236.95 -113.529> 685 35<-244.494 -109.435> 697 38<-525.51 -441.541> 865 39<-531.259 -446.474 -240.81 -116.401>
VStem: -587 39<591.923 677.245 757.623 848.186> -357 39<668.753 791.059> -39 39<667.479 789.371>
AnchorPoint: "UM" -296 495 basemark 0
AnchorPoint: "U" -296 495 mark 0
AnchorPoint: "Y" -20 495 mark 0
LayerCount: 2
Fore
SplineSet
-395 586 m 0xbe
 -428 604 l 0
 -445 585 -461 573 -487 573 c 0
 -515 573 -548 600 -548 634 c 0
 -548 669 -515 697 -487 697 c 0
 -461 697 -445 684 -428 664 c 0
 -395 682 l 0
 -413 712 -445 735 -488 735 c 0
 -514 735 -548 768 -548 804 c 0
 -548 838 -520 865 -488 865 c 0
 -461 865 -449 853 -437 831 c 0
 -406 853 l 0
 -419 882 -442 904 -488 904 c 0
 -544 904 -587 856 -587 804 c 0
 -587 762 -569 738 -541 718 c 0
 -568 701 -587 675 -587 634 c 0
 -587 582 -539 534 -487 534 c 0
 -446 534 -413 552 -395 586 c 0xbe
-65 634 m 0
 -90 597 -132 577 -179 577 c 0
 -222 577 -267 603 -290 634 c 0
 -249 676 -203 685 -179 685 c 0xde
 -155 685 -102 676 -65 634 c 0
-48 667 m 0
 -86 708 -137 720 -179 720 c 0
 -221 720 -267 708 -308 667 c 0
 -315 687 -318 703 -318 720 c 0
 -318 798 -255 862 -179 862 c 0
 -102 862 -39 798 -39 720 c 0
 -39 700 -42 684 -48 667 c 0
0 717 m 0
 0 817 -80 903 -179 903 c 0
 -276 903 -357 822 -357 720 c 0
 -357 618 -276 537 -179 537 c 0
 -80 537 0 616 0 717 c 0
EndSplineSet
Position2: "Single Positioning lookup 43 subtable" dx=180 dy=0 dh=0 dv=0
Ligature2: "sub_ligature_cligmymr_8 subtable" u1004.kinzi u102E
Ligature2: "sub_ligature_cligmymr_6 subtable" u1004.kinzi_u102E u200C u102E
EndChar

StartChar: u1004.kinzi_u1032
Encoding: 65548 -1 112
Width: 55
VWidth: 0
GlyphClass: 4
Flags: W
HStem: 534 39<-529.019 -439.918> 697 38<-524.607 -441.541> 865 39<-531.259 -446.474>
VStem: -587 39<591.923 677.245 758.24 848.186>
DStem2: -299 880 -321 847 0.783674 -0.621173<3.25788 381.536>
AnchorPoint: "UM" -296 495 basemark 0
AnchorPoint: "U" -296 495 mark 0
LayerCount: 2
Fore
SplineSet
-395 586 m 0
 -428 604 l 0
 -445 585 -461 573 -487 573 c 0
 -515 573 -548 600 -548 634 c 0
 -548 669 -515 697 -487 697 c 0
 -461 697 -445 684 -428 664 c 0
 -395 682 l 0
 -413 712 -445 735 -488 735 c 0
 -513 735 -548 768 -548 804 c 0
 -548 838 -520 865 -488 865 c 0
 -461 865 -449 853 -437 831 c 0
 -406 853 l 0
 -419 882 -442 904 -488 904 c 0
 -544 904 -587 856 -587 804 c 0
 -587 762 -569 738 -541 718 c 0
 -568 701 -587 675 -587 634 c 0
 -587 582 -539 534 -487 534 c 0
 -446 534 -413 552 -395 586 c 0
0 643 m 0
 -299 880 l 0
 -321 847 l 0
 -23 610 l 0
 0 643 l 0
EndSplineSet
Ligature2: "sub_ligature_cligmymr_8 subtable" u1004.kinzi u1032
EndChar

StartChar: u1004.kinzi_u1033
Encoding: 65549 -1 113
Width: 55
VWidth: 0
GlyphClass: 4
Flags: W
HStem: 534 39<-529.019 -439.918 -241.189 -115.678> 643 29<-210.792 -144.864> 697 38<-525.757 -441.541> 766 29<-211.179 -144.477> 865 39<-531.259 -446.474 -241.584 -113.807>
VStem: -587 39<591.923 677.245 756.95 848.186> -358 40<648.581 790.252> -252 28<685.746 752.135> -131 29<685.347 752.523> -39 39<648.581 790.252>
AnchorPoint: "UM" -296 495 basemark 0
AnchorPoint: "U" -296 495 mark 0
AnchorPoint: "Y" -20 495 mark 0
LayerCount: 2
Fore
SplineSet
-395 586 m 0
 -428 604 l 0
 -445 585 -461 573 -487 573 c 0
 -515 573 -548 600 -548 634 c 0
 -548 669 -515 697 -487 697 c 0
 -461 697 -445 684 -428 664 c 0
 -395 682 l 0
 -413 712 -445 735 -488 735 c 0
 -515 735 -548 768 -548 804 c 0
 -548 838 -520 865 -488 865 c 0
 -461 865 -449 853 -437 831 c 0
 -406 853 l 0
 -419 882 -442 904 -488 904 c 0
 -544 904 -587 856 -587 804 c 0
 -587 762 -569 738 -541 718 c 0
 -568 701 -587 675 -587 634 c 0
 -587 582 -539 534 -487 534 c 0
 -446 534 -413 552 -395 586 c 0
-131 720 m 0
 -131 693 -152 672 -177 672 c 0
 -204 672 -224 693 -224 720 c 0
 -224 745 -204 766 -177 766 c 0
 -152 766 -131 745 -131 720 c 0
-102 720 m 0
 -102 760 -137 795 -177 795 c 0
 -218 795 -252 760 -252 720 c 0
 -252 679 -218 643 -177 643 c 0
 -137 643 -102 679 -102 720 c 0
-39 720 m 0
 -39 640 -101 577 -180 577 c 0
 -256 577 -318 640 -318 720 c 0
 -318 797 -256 863 -177 863 c 0
 -101 863 -39 797 -39 720 c 0
0 720 m 0
 0 819 -79 902 -180 902 c 0
 -279 902 -358 819 -358 720 c 0
 -358 619 -278 537 -177 537 c 0
 -79 537 0 619 0 720 c 0
EndSplineSet
Position2: "Single Positioning lookup 43 subtable" dx=180 dy=0 dh=0 dv=0
Ligature2: "sub_ligature_cligmymr_8 subtable" u1004.kinzi u1033
EndChar

StartChar: u1004.kinzi_u1036
Encoding: 65550 -1 114
Width: 55
VWidth: 0
GlyphClass: 4
Flags: W
HStem: 534 39<-299.019 -209.918> 598 29<-109.179 -41.6655> 697 38<-295.757 -211.541> 720 30<-109.557 -41.2869> 865 39<-301.259 -216.474>
VStem: -357 39<591.923 677.245 756.346 848.186> -150 28<639.931 706.885> -29 29<639.544 707.262>
AnchorPoint: "UM" -258 495 basemark 0
AnchorPoint: "U" -258 495 mark 0
LayerCount: 2
Fore
SplineSet
-165 586 m 0xef
 -198 604 l 0
 -215 585 -231 573 -257 573 c 0
 -285 573 -318 600 -318 634 c 0
 -318 669 -285 697 -257 697 c 0
 -231 697 -215 684 -198 664 c 0
 -165 682 l 0
 -183 712 -215 735 -258 735 c 0
 -286 735 -318 768 -318 804 c 0
 -318 838 -290 865 -258 865 c 0
 -231 865 -219 853 -207 831 c 0
 -176 853 l 0
 -189 882 -212 904 -258 904 c 0
 -314 904 -357 856 -357 804 c 0
 -357 762 -339 738 -311 718 c 0
 -338 701 -357 675 -357 634 c 0
 -357 582 -309 534 -257 534 c 0
 -216 534 -183 552 -165 586 c 0xef
-29 675 m 0
 -29 646 -50 627 -75 627 c 0
 -102 627 -122 646 -122 675 c 0
 -122 700 -102 720 -75 720 c 0xdf
 -50 720 -29 700 -29 675 c 0
0 675 m 0
 0 715 -35 750 -75 750 c 0
 -116 750 -150 715 -150 675 c 0
 -150 632 -116 598 -75 598 c 0
 -35 598 0 632 0 675 c 0
EndSplineSet
Position2: "Single Positioning lookup 43 subtable" dx=180 dy=0 dh=0 dv=0
Ligature2: "sub_ligature_cligmymr_8 subtable" u1004.kinzi u1036
Ligature2: "sub_ligature_cligmymr_6 subtable" u1004.kinzi_u1036 u200C u1036
EndChar

StartChar: u1004.kinzi_u103A
Encoding: 65551 -1 115
Width: 55
VWidth: 0
GlyphClass: 4
Flags: W
HStem: 534 39<-529.019 -439.918 -199.104 -132> 697 38<-525.757 -441.541> 865 39<-531.259 -446.474 -202.736 -72.5404>
VStem: -587 39<591.923 677.245 756.346 848.186> -315 39<647.427 791.397>
AnchorPoint: "UM" -296 495 basemark 0
AnchorPoint: "U" -296 495 mark 0
AnchorPoint: "Y" -20 495 mark 0
LayerCount: 2
Fore
SplineSet
-395 586 m 0
 -428 604 l 0
 -445 585 -461 573 -487 573 c 0
 -515 573 -548 600 -548 634 c 0
 -548 669 -515 697 -487 697 c 0
 -461 697 -445 684 -428 664 c 0
 -395 682 l 0
 -413 712 -445 735 -488 735 c 0
 -516 735 -548 768 -548 804 c 0
 -548 838 -520 865 -488 865 c 0
 -461 865 -449 853 -437 831 c 0
 -406 853 l 0
 -419 882 -442 904 -488 904 c 0
 -544 904 -587 856 -587 804 c 0
 -587 762 -569 738 -541 718 c 0
 -568 701 -587 675 -587 634 c 0
 -587 582 -539 534 -487 534 c 0
 -446 534 -413 552 -395 586 c 0
0 826 m 0
 -23 873 -77 903 -138 903 c 0
 -228 903 -315 828 -315 720 c 0
 -315 598 -205 532 -132 532 c 0
 -132 571 l 0
 -168 571 -276 610 -276 720 c 0
 -276 809 -204 864 -137 864 c 0
 -102 864 -57 849 -29 802 c 0
 0 826 l 0
EndSplineSet
Position2: "Single Positioning lookup 43 subtable" dx=180 dy=0 dh=0 dv=0
Ligature2: "sub_ligature_cligmymr_8 subtable" u1004.kinzi u103A
EndChar

StartChar: u1004.kinzi_u102D_u1036
Encoding: 65552 -1 116
Width: 55
VWidth: 0
GlyphClass: 4
Flags: W
HStem: 534 39<-694.019 -604.918 -404.303 -282.92> 553 29<-109.179 -41.6655> 675 30<-109.557 -41.2869> 697 38<-690.36 -607.162> 865 39<-696.259 -611.474 -405.81 -281.401>
VStem: -752 39<591.923 677.245 756.757 848.186> -522 39<649.026 790.637> -204 39<649.026 790.637> -150 28<594.931 661.885> -29 29<594.544 662.262>
AnchorPoint: "UM" -376 495 basemark 0
AnchorPoint: "U" -376 495 mark 0
AnchorPoint: "Y" -185 495 mark 0
LayerCount: 2
Fore
SplineSet
-560 586 m 0x9fc0
 -593 604 l 0
 -610 585 -626 573 -652 573 c 0
 -680 573 -713 600 -713 634 c 0
 -713 669 -680 697 -652 697 c 0
 -626 697 -610 684 -593 664 c 0
 -560 682 l 0
 -578 712 -609 735 -652 735 c 0
 -679 735 -713 767 -713 804 c 0
 -713 838 -685 865 -653 865 c 0
 -626 865 -614 853 -602 831 c 0
 -571 853 l 0
 -584 882 -607 904 -653 904 c 0
 -709 904 -752 856 -752 804 c 0
 -752 762 -734 738 -706 718 c 0
 -733 701 -752 675 -752 634 c 0
 -752 582 -704 534 -652 534 c 0
 -611 534 -578 552 -560 586 c 0x9fc0
-29 630 m 0
 -29 601 -50 582 -75 582 c 0
 -102 582 -122 601 -122 630 c 0
 -122 655 -102 675 -75 675 c 0x6fc0
 -50 675 -29 655 -29 630 c 0
0 630 m 0
 0 670 -35 705 -75 705 c 0
 -116 705 -150 670 -150 630 c 0
 -150 587 -116 553 -75 553 c 0
 -35 553 0 587 0 630 c 0
-204 720 m 0
 -204 642 -267 577 -344 577 c 0
 -420 577 -483 642 -483 720 c 0
 -483 798 -420 862 -344 862 c 0
 -267 862 -204 798 -204 720 c 0
-165 720 m 0
 -165 820 -245 903 -344 903 c 0
 -441 903 -522 820 -522 720 c 0
 -522 619 -441 537 -344 537 c 0
 -245 537 -165 619 -165 720 c 0
EndSplineSet
Ligature2: "sub_ligature_cligmymr_8 subtable" u1004.kinzi u102D_u1036
EndChar

StartChar: u1005
Encoding: 4101 4101 117
Width: 576
VWidth: 0
GlyphClass: 2
Flags: W
HStem: -15 51<222.52 369.158> 408 51<221.822 371.853>
VStem: 55 51<134.25 308.137> 241 51<140.125 305.428> 469 51<134.136 309.008>
AnchorPoint: "U" 288 495 basechar 0
AnchorPoint: "BS" 288 -53 basechar 0
AnchorPoint: "BD" 288 -53 basechar 0
AnchorPoint: "L" 288 -53 basechar 0
AnchorPoint: "R" 0 0 mark 0
LayerCount: 2
Fore
SplineSet
241 222 m 0
 241 187 226 130 174 78 c 0
 131 111 106 163 106 222 c 0
 106 279 134 334 175 367 c 0
 227 315 241 255 241 222 c 0
469 222 m 0
 469 119 388 36 286 36 c 0
 265 36 243 41 220 49 c 0
 275 104 292 166 292 222 c 0
 292 278 275 341 220 394 c 0
 242 403 265 408 289 408 c 0
 388 408 469 323 469 222 c 0
520 222 m 0
 520 351 418 459 286 459 c 0
 158 459 55 351 55 222 c 0
 55 91 157 -15 289 -15 c 0
 417 -15 520 91 520 222 c 0
EndSplineSet
Position2: "SinglePositioninglookup48 per glyph data 0" dx=100 dy=0 dh=50 dv=0
Position2: "SinglePositioninglookup30 subtable" dx=140 dy=0 dh=140 dv=0
PairPos2: "PairwisePositioningkerninglooku subtable" u1000.med dx=0 dy=0 dh=90 dv=0 dx=0 dy=0 dh=90 dv=0
PairPos2: "PairwisePositioningkerninglooku subtable" u1003.med dx=0 dy=0 dh=90 dv=0 dx=0 dy=0 dh=90 dv=0
PairPos2: "PairwisePositioningkerninglooku subtable" u1006.med dx=0 dy=0 dh=90 dv=0 dx=0 dy=0 dh=90 dv=0
PairPos2: "PairwisePositioningkerninglooku subtable" u100A.med dx=0 dy=0 dh=90 dv=0 dx=0 dy=0 dh=90 dv=0
PairPos2: "PairwisePositioningkerninglooku subtable" u100C.med dx=0 dy=0 dh=90 dv=0 dx=0 dy=0 dh=90 dv=0
PairPos2: "PairwisePositioningkerninglooku subtable" u100F.med dx=0 dy=0 dh=90 dv=0 dx=0 dy=0 dh=90 dv=0
PairPos2: "PairwisePositioningkerninglooku subtable" u1010.med dx=0 dy=0 dh=90 dv=0 dx=0 dy=0 dh=90 dv=0
PairPos2: "PairwisePositioningkerninglooku subtable" u1011.med dx=0 dy=0 dh=90 dv=0 dx=0 dy=0 dh=90 dv=0
PairPos2: "PairwisePositioningkerninglooku subtable" u1018.med dx=0 dy=0 dh=90 dv=0 dx=0 dy=0 dh=90 dv=0
PairPos2: "PairwisePositioningkerninglooku subtable" u101A.med dx=0 dy=0 dh=90 dv=0 dx=0 dy=0 dh=90 dv=0
PairPos2: "PairwisePositioningkerninglooku subtable" u101C.med dx=0 dy=0 dh=90 dv=0 dx=0 dy=0 dh=90 dv=0
PairPos2: "PairwisePositioningkerninglooku subtable" u101C.med_u103D dx=0 dy=0 dh=90 dv=0 dx=0 dy=0 dh=90 dv=0
PairPos2: "PairwisePositioningkerninglooku subtable" u101E.med dx=0 dy=0 dh=90 dv=0 dx=0 dy=0 dh=90 dv=0
PairPos2: "PairwisePositioningkerninglooku subtable" u1021.med dx=0 dy=0 dh=90 dv=0 dx=0 dy=0 dh=90 dv=0
PairPos2: "PairwisePositioningkerninglooku subtable" uAA60.med dx=0 dy=0 dh=90 dv=0 dx=0 dy=0 dh=90 dv=0
PairPos2: "PairwisePositioningkerninglooku subtable" uAA60.med.kham dx=0 dy=0 dh=90 dv=0 dx=0 dy=0 dh=90 dv=0
Ligature2: "LigatureSubstitutionlookup169 subtable" u1005 u103C
Ligature2: "LigatureSubstitutionlookup167 subtable" u1005 u103C u1031
Ligature2: "LigatureSubstitutionlookup167 subtable" u1005 u103C.wide u1031
Ligature2: "LigatureSubstitutionlookup167 subtable" u1005 u103C_u103D.narr u1031
Ligature2: "LigatureSubstitutionlookup167 subtable" u1005 u103C_u103D.wide u1031
Ligature2: "LigatureSubstitutionlookup165 subtable" u1005 u103C
Ligature2: "LigatureSubstitutionlookup165 subtable" u1005 u103C_u103D.narr
Ligature2: "LigatureSubstitutionlookup165 subtable" u1005 u103C_u102F.narr
Ligature2: "LigatureSubstitutionlookup163 subtable" u1005 u1031
Ligature2: "LigatureSubstitutionlookup163 subtable" u1005 u1084
Ligature2: "LigatureSubstitutionlookup162 subtable" u1005 u103D
Ligature2: "LigatureSubstitutionlookup162 subtable" u1005 u103E
Ligature2: "LigatureSubstitutionlookup162 subtable" u1005 u103D_u103E
Ligature2: "LigatureSubstitutionlookup162 subtable" u1005 u105E
Ligature2: "LigatureSubstitutionlookup162 subtable" u1005 u105F
Ligature2: "LigatureSubstitutionlookup162 subtable" u1005 u1060
Ligature2: "LigatureSubstitutionlookup162 subtable" u1005 u1082
Ligature2: "LigatureSubstitutionlookup158 subtable" u1005 u1039
MultipleSubs2: "MultipleSubstitutionlookup139 subtable" u200C u1031 u1005
MultipleSubs2: "MultipleSubstitutionlookup137 subtable" u200C u1084 u1005
MultipleSubs2: "MultipleSubstitutionlookup136 subtable" u200C u103C_u103D.narr u1005
MultipleSubs2: "MultipleSubstitutionlookup135 subtable" u200C u103C_u102F.narr u1005
MultipleSubs2: "MultipleSubstitutionlookup134 subtable" u200C u103C u1005
Ligature2: "LigatureSubstitutionlookup130 subtable" u1004.kinzi u200D u1005
Ligature2: "LigatureSubstitutionlookup130 subtable" u101B.kinzi u200D u1005
MultipleSubs2: "MultipleSubstitutionlookup129 subtable" u1005 u101B.kinzi
MultipleSubs2: "MultipleSubstitutionlookup128 subtable" u1005 u1004.kinzi
Ligature2: "LigatureSubstitutionlookup127 subtable" u1004.kinzi u200D u1005
Ligature2: "LigatureSubstitutionlookup127 subtable" u101B.kinzi u200D u1005
Ligature2: "LigatureSubstitutionlookup124 subtable" u1004.kinzi u200D u1005
Ligature2: "LigatureSubstitutionlookup124 subtable" u101B.kinzi u200D u1005
EndChar

StartChar: u1005.med
Encoding: 65553 -1 118
Width: 468
VWidth: 0
GlyphClass: 4
Flags: W
HStem: -450 40<183.371 302.791> -125 41<184.325 302.791>
VStem: 55 39<-339.146 -195.822> 202 35<-332.485 -200.498> 373 39<-338.185 -195.941>
AnchorPoint: "BSM" -234 -53 mark 0
AnchorPoint: "BS" -234 -53 mark 0
AnchorPoint: "BS" 234 -53 basemark 0
AnchorPoint: "LLM" -89 -53 basemark 0
AnchorPoint: "LM" 556 -53 basemark 0
AnchorPoint: "BSM" 556 -53 basemark 0
LayerCount: 2
Fore
SplineSet
202 -267 m 0
 202 -296 190 -339 150 -380 c 0
 115 -357 94 -314 94 -267 c 0
 94 -221 117 -177 151 -153 c 0
 192 -194 202 -242 202 -267 c 0
373 -267 m 0
 373 -345 310 -410 234 -410 c 0
 214 -410 198 -407 181 -401 c 0
 222 -360 237 -311 237 -267 c 0
 237 -225 225 -176 183 -134 c 0
 198 -128 214 -125 234 -125 c 0
 310 -125 373 -189 373 -267 c 0
412 -267 m 0
 412 -165 331 -84 234 -84 c 0
 135 -84 55 -165 55 -267 c 0
 55 -369 135 -450 234 -450 c 0
 331 -450 412 -369 412 -267 c 0
EndSplineSet
Ligature2: "LigatureSubstitutionlookup179 subtable" u1005.med u102D
Ligature2: "LigatureSubstitutionlookup179 subtable" u1005.med u102E
Ligature2: "LigatureSubstitutionlookup179 subtable" u1005.med u1032
Ligature2: "LigatureSubstitutionlookup179 subtable" u1005.med u103A
Ligature2: "LigatureSubstitutionlookup171 subtable" u1005.med u103C u1031
Ligature2: "LigatureSubstitutionlookup159 subtable" u1005.med u1031
Ligature2: "LigatureSubstitutionlookup159 subtable" u1005.med u103C
MultipleSubs2: "MultipleSubstitutionlookup138 subtable" u1039 u1005.med
Ligature2: "sub_ligature_cligmymr_0 subtable" u1039 u1005
EndChar

StartChar: u1006
Encoding: 4102 4102 119
Width: 990
VWidth: 0
GlyphClass: 2
Flags: W
HStem: -15 51<186.605 372.086 618.365 785.304> 153 51<127.279 297.373> 408 51<197.648 368.248 618.365 785.304>
VStem: 469 51<137.202 305.917> 883 51<134.136 309.008>
AnchorPoint: "U" 702 495 basechar 0
AnchorPoint: "BS" 702 -53 basechar 0
AnchorPoint: "BD" 495 -53 basechar 0
AnchorPoint: "L" 702 -53 basechar 0
AnchorPoint: "R" 0 0 mark 0
LayerCount: 2
Fore
SplineSet
373 58 m 0
 345 45 318 36 283 36 c 0
 215 36 151 63 115 126 c 0
 150 142 181 153 214 153 c 0
 282 153 341 113 373 58 c 0
883 222 m 0
 883 119 802 36 702 36 c 0
 602 36 520 119 520 222 c 0
 520 323 602 408 702 408 c 0
 802 408 883 323 883 222 c 0
934 222 m 0
 934 351 828 459 702 459 c 0
 611 459 532 406 495 330 c 0
 455 406 375 459 283 459 c 0
 189 459 98 407 63 322 c 0
 106 297 l 0
 145 366 214 408 283 408 c 0
 386 408 469 323 469 222 c 0
 469 170 449 126 417 91 c 0
 368 159 291 204 210 204 c 0
 155 204 111 182 55 153 c 0
 68 53 178 -15 283 -15 c 0
 375 -15 455 38 495 114 c 0
 532 38 611 -15 702 -15 c 0
 828 -15 934 91 934 222 c 0
EndSplineSet
Ligature2: "LigatureSubstitutionlookup169 subtable" u1006 u103C
Ligature2: "LigatureSubstitutionlookup167 subtable" u1006 u103C u1031
Ligature2: "LigatureSubstitutionlookup167 subtable" u1006 u103C.wide u1031
Ligature2: "LigatureSubstitutionlookup167 subtable" u1006 u103C_u103D.narr u1031
Ligature2: "LigatureSubstitutionlookup167 subtable" u1006 u103C_u103D.wide u1031
Ligature2: "LigatureSubstitutionlookup165 subtable" u1006 u103C
Ligature2: "LigatureSubstitutionlookup165 subtable" u1006 u103C_u103D.narr
Ligature2: "LigatureSubstitutionlookup165 subtable" u1006 u103C_u102F.narr
Ligature2: "LigatureSubstitutionlookup163 subtable" u1006 u1031
Ligature2: "LigatureSubstitutionlookup163 subtable" u1006 u1084
Ligature2: "LigatureSubstitutionlookup162 subtable" u1006 u103D
Ligature2: "LigatureSubstitutionlookup162 subtable" u1006 u103E
Ligature2: "LigatureSubstitutionlookup162 subtable" u1006 u103D_u103E
Ligature2: "LigatureSubstitutionlookup162 subtable" u1006 u105E
Ligature2: "LigatureSubstitutionlookup162 subtable" u1006 u105F
Ligature2: "LigatureSubstitutionlookup162 subtable" u1006 u1060
Ligature2: "LigatureSubstitutionlookup162 subtable" u1006 u1082
Ligature2: "LigatureSubstitutionlookup158 subtable" u1006 u1039
MultipleSubs2: "MultipleSubstitutionlookup139 subtable" u200C u1031 u1006
MultipleSubs2: "MultipleSubstitutionlookup137 subtable" u200C u1084 u1006
MultipleSubs2: "MultipleSubstitutionlookup136 subtable" u200C u103C_u103D.wide u1006
MultipleSubs2: "MultipleSubstitutionlookup135 subtable" u200C u103C_u102F.wide u1006
MultipleSubs2: "MultipleSubstitutionlookup134 subtable" u200C u103C.wide u1006
Ligature2: "LigatureSubstitutionlookup130 subtable" u1004.kinzi u200D u1006
Ligature2: "LigatureSubstitutionlookup130 subtable" u101B.kinzi u200D u1006
MultipleSubs2: "MultipleSubstitutionlookup129 subtable" u1006 u101B.kinzi
MultipleSubs2: "MultipleSubstitutionlookup128 subtable" u1006 u1004.kinzi
Ligature2: "LigatureSubstitutionlookup127 subtable" u1004.kinzi u200D u1006
Ligature2: "LigatureSubstitutionlookup127 subtable" u101B.kinzi u200D u1006
Ligature2: "LigatureSubstitutionlookup124 subtable" u1004.kinzi u200D u1006
Ligature2: "LigatureSubstitutionlookup124 subtable" u101B.kinzi u200D u1006
EndChar

StartChar: u1006.med
Encoding: 65554 -1 120
Width: 789
VWidth: 0
GlyphClass: 4
Flags: W
HStem: -450 40<153.06 305.173 482.946 622.632> -315 36<107.059 244.205> -125 41<158.953 302.496 482.946 622.632>
VStem: 375 39<-337.745 -196.507> 694 39<-338.185 -198.011>
AnchorPoint: "BSM" 88 -53 basemark 0
AnchorPoint: "BDM" -395 -53 mark 0
AnchorPoint: "BD" -395 -53 mark 0
AnchorPoint: "LLM" -89 -53 basemark 0
AnchorPoint: "LM" 877 -53 basemark 0
AnchorPoint: "BSM" 877 -53 mark 0
AnchorPoint: "BD" 394 -53 basemark 0
LayerCount: 2
Fore
SplineSet
306 -392 m 0
 283 -402 258 -410 232 -410 c 0
 180 -410 123 -385 100 -336 c 0
 124 -323 150 -315 175 -315 c 0
 231 -315 284 -348 306 -392 c 0
694 -267 m 0
 694 -345 630 -410 553 -410 c 0
 475 -410 414 -345 414 -267 c 0
 414 -189 475 -125 553 -125 c 0
 630 -125 694 -189 694 -267 c 0
733 -267 m 0
 733 -165 651 -84 553 -84 c 0
 483 -84 424 -126 394 -185 c 0
 364 -126 301 -84 231 -84 c 0
 165 -84 90 -122 61 -189 c 0
 97 -210 l 0
 126 -155 177 -125 231 -125 c 0
 310 -125 375 -189 375 -267 c 0
 375 -306 361 -339 333 -368 c 0
 305 -318 235 -279 175 -279 c 0
 135 -279 99 -297 55 -320 c 0
 67 -396 150 -450 231 -450 c 0
 301 -450 364 -408 394 -350 c 0
 424 -408 483 -450 553 -450 c 0
 651 -450 733 -369 733 -267 c 0
EndSplineSet
LCarets2: 2 0 0 
Ligature2: "LigatureSubstitutionlookup179 subtable" u1006.med u102D
Ligature2: "LigatureSubstitutionlookup179 subtable" u1006.med u102E
Ligature2: "LigatureSubstitutionlookup179 subtable" u1006.med u1032
Ligature2: "LigatureSubstitutionlookup179 subtable" u1006.med u103A
Ligature2: "LigatureSubstitutionlookup171 subtable" u1006.med u103C u1031
Ligature2: "LigatureSubstitutionlookup159 subtable" u1006.med u1031
Ligature2: "LigatureSubstitutionlookup159 subtable" u1006.med u103C
MultipleSubs2: "MultipleSubstitutionlookup138 subtable" u1039 u1006.med
Ligature2: "sub_ligature_cligmymr_0 subtable" u1039 u1006
EndChar

StartChar: u1007
Encoding: 4103 4103 121
Width: 609
VWidth: 0
GlyphClass: 2
Flags: W
HStem: -15 51<201.328 374.65> 153 51<313.487 420.446> 289 51<317.211 423.225> 408 51<205.382 373.089>
VStem: 55 51<133.25 307.71> 259 51<209.917 282.403>
AnchorPoint: "U" 288 495 basechar 0
AnchorPoint: "BS" 286 -53 basechar 0
AnchorPoint: "BD" 286 -53 basechar 0
AnchorPoint: "L" 286 -53 basechar 0
AnchorPoint: "R" 0 0 mark 0
LayerCount: 2
Fore
SplineSet
436 261 m 0
 432 217 393 204 361 204 c 0
 333 204 310 217 310 240 c 0
 310 274 331 289 361 289 c 0
 391 289 414 279 436 261 c 0
568 156 m 0
 549 192 511 255 487 283 c 0
 483 376 408 459 286 459 c 0
 159 459 55 349 55 222 c 0
 55 91 151 -15 286 -15 c 0
 363 -15 408 10 462 57 c 0
 429 97 l 0
 382 55 345 36 286 36 c 0
 184 36 106 115 106 222 c 0
 106 319 184 408 289 408 c 0
 367 408 408 367 424 325 c 0
 402 336 381 340 361 340 c 0
 297 340 259 298 259 240 c 0
 259 181 307 153 361 153 c 0
 405 153 451 174 474 214 c 0
 495 186 513 153 528 127 c 0
 568 156 l 0
EndSplineSet
Position2: "SinglePositioninglookup48 per glyph data 0" dx=100 dy=0 dh=50 dv=0
Position2: "SinglePositioninglookup30 subtable" dx=140 dy=0 dh=140 dv=0
PairPos2: "PairwisePositioningkerninglooku subtable" u1000.med dx=0 dy=0 dh=90 dv=0 dx=0 dy=0 dh=90 dv=0
PairPos2: "PairwisePositioningkerninglooku subtable" u1003.med dx=0 dy=0 dh=90 dv=0 dx=0 dy=0 dh=90 dv=0
PairPos2: "PairwisePositioningkerninglooku subtable" u1006.med dx=0 dy=0 dh=90 dv=0 dx=0 dy=0 dh=90 dv=0
PairPos2: "PairwisePositioningkerninglooku subtable" u100A.med dx=0 dy=0 dh=90 dv=0 dx=0 dy=0 dh=90 dv=0
PairPos2: "PairwisePositioningkerninglooku subtable" u100C.med dx=0 dy=0 dh=90 dv=0 dx=0 dy=0 dh=90 dv=0
PairPos2: "PairwisePositioningkerninglooku subtable" u100F.med dx=0 dy=0 dh=90 dv=0 dx=0 dy=0 dh=90 dv=0
PairPos2: "PairwisePositioningkerninglooku subtable" u1010.med dx=0 dy=0 dh=90 dv=0 dx=0 dy=0 dh=90 dv=0
PairPos2: "PairwisePositioningkerninglooku subtable" u1011.med dx=0 dy=0 dh=90 dv=0 dx=0 dy=0 dh=90 dv=0
PairPos2: "PairwisePositioningkerninglooku subtable" u1018.med dx=0 dy=0 dh=90 dv=0 dx=0 dy=0 dh=90 dv=0
PairPos2: "PairwisePositioningkerninglooku subtable" u101A.med dx=0 dy=0 dh=90 dv=0 dx=0 dy=0 dh=90 dv=0
PairPos2: "PairwisePositioningkerninglooku subtable" u101C.med dx=0 dy=0 dh=90 dv=0 dx=0 dy=0 dh=90 dv=0
PairPos2: "PairwisePositioningkerninglooku subtable" u101C.med_u103D dx=0 dy=0 dh=90 dv=0 dx=0 dy=0 dh=90 dv=0
PairPos2: "PairwisePositioningkerninglooku subtable" u101E.med dx=0 dy=0 dh=90 dv=0 dx=0 dy=0 dh=90 dv=0
PairPos2: "PairwisePositioningkerninglooku subtable" u1021.med dx=0 dy=0 dh=90 dv=0 dx=0 dy=0 dh=90 dv=0
PairPos2: "PairwisePositioningkerninglooku subtable" uAA60.med dx=0 dy=0 dh=90 dv=0 dx=0 dy=0 dh=90 dv=0
PairPos2: "PairwisePositioningkerninglooku subtable" uAA60.med.kham dx=0 dy=0 dh=90 dv=0 dx=0 dy=0 dh=90 dv=0
Ligature2: "LigatureSubstitutionlookup169 subtable" u1007 u103C
Ligature2: "LigatureSubstitutionlookup167 subtable" u1007 u103C u1031
Ligature2: "LigatureSubstitutionlookup167 subtable" u1007 u103C.wide u1031
Ligature2: "LigatureSubstitutionlookup167 subtable" u1007 u103C_u103D.narr u1031
Ligature2: "LigatureSubstitutionlookup167 subtable" u1007 u103C_u103D.wide u1031
Ligature2: "LigatureSubstitutionlookup165 subtable" u1007 u103C
Ligature2: "LigatureSubstitutionlookup165 subtable" u1007 u103C_u103D.narr
Ligature2: "LigatureSubstitutionlookup165 subtable" u1007 u103C_u102F.narr
Ligature2: "LigatureSubstitutionlookup163 subtable" u1007 u1031
Ligature2: "LigatureSubstitutionlookup163 subtable" u1007 u1084
Ligature2: "LigatureSubstitutionlookup162 subtable" u1007 u103D
Ligature2: "LigatureSubstitutionlookup162 subtable" u1007 u103E
Ligature2: "LigatureSubstitutionlookup162 subtable" u1007 u103D_u103E
Ligature2: "LigatureSubstitutionlookup162 subtable" u1007 u105E
Ligature2: "LigatureSubstitutionlookup162 subtable" u1007 u105F
Ligature2: "LigatureSubstitutionlookup162 subtable" u1007 u1060
Ligature2: "LigatureSubstitutionlookup162 subtable" u1007 u1082
Ligature2: "LigatureSubstitutionlookup158 subtable" u1007 u1039
MultipleSubs2: "MultipleSubstitutionlookup139 subtable" u200C u1031 u1007
MultipleSubs2: "MultipleSubstitutionlookup137 subtable" u200C u1084 u1007
MultipleSubs2: "MultipleSubstitutionlookup136 subtable" u200C u103C_u103D.narr u1007
MultipleSubs2: "MultipleSubstitutionlookup135 subtable" u200C u103C_u102F.narr u1007
MultipleSubs2: "MultipleSubstitutionlookup134 subtable" u200C u103C u1007
Ligature2: "LigatureSubstitutionlookup130 subtable" u1004.kinzi u200D u1007
Ligature2: "LigatureSubstitutionlookup130 subtable" u101B.kinzi u200D u1007
MultipleSubs2: "MultipleSubstitutionlookup129 subtable" u1007 u101B.kinzi
MultipleSubs2: "MultipleSubstitutionlookup128 subtable" u1007 u1004.kinzi
Ligature2: "LigatureSubstitutionlookup127 subtable" u1004.kinzi u200D u1007
Ligature2: "LigatureSubstitutionlookup127 subtable" u101B.kinzi u200D u1007
Ligature2: "LigatureSubstitutionlookup124 subtable" u1004.kinzi u200D u1007
Ligature2: "LigatureSubstitutionlookup124 subtable" u101B.kinzi u200D u1007
EndChar

StartChar: u1007.med
Encoding: 65555 -1 122
Width: 507
VWidth: 0
GlyphClass: 4
Flags: W
HStem: -450 40<161.185 308.678> -320 39<254.057 336.382> -215 39<255.681 339.598> -125 41<164.268 305.994>
VStem: 55 39<-339.296 -197.24> 213 39<-277.416 -218.456>
AnchorPoint: "BSM" -283 -53 mark 0
AnchorPoint: "BS" -283 -53 mark 0
AnchorPoint: "BS" 224 -53 basemark 0
AnchorPoint: "LLM" -89 -53 basemark 0
AnchorPoint: "LM" 532 -53 basemark 0
AnchorPoint: "BSM" 532 -53 basemark 0
LayerCount: 2
Fore
SplineSet
348 -237 m 0
 343 -269 315 -281 291 -281 c 0
 268 -281 252 -270 252 -254 c 0
 252 -228 265 -215 291 -215 c 0
 313 -215 331 -221 348 -237 c 0
451 -318 m 0
 435 -290 414 -254 388 -225 c 0
 387 -146 330 -84 235 -84 c 0
 136 -84 55 -168 55 -267 c 0
 55 -369 130 -450 234 -450 c 0
 292 -450 328 -431 369 -395 c 0
 343 -365 l 0
 307 -396 280 -410 234 -410 c 0
 154 -410 94 -350 94 -267 c 0
 94 -192 154 -125 235 -125 c 0
 297 -125 328 -156 340 -188 c 0
 324 -180 307 -176 291 -176 c 0
 241 -176 213 -207 213 -254 c 0
 213 -300 250 -320 291 -320 c 0
 325 -320 360 -303 378 -273 c 0
 389 -290 409 -322 420 -341 c 0
 451 -318 l 0
EndSplineSet
Ligature2: "LigatureSubstitutionlookup179 subtable" u1007.med u102D
Ligature2: "LigatureSubstitutionlookup179 subtable" u1007.med u102E
Ligature2: "LigatureSubstitutionlookup179 subtable" u1007.med u1032
Ligature2: "LigatureSubstitutionlookup179 subtable" u1007.med u103A
Ligature2: "LigatureSubstitutionlookup171 subtable" u1007.med u103C u1031
Ligature2: "LigatureSubstitutionlookup159 subtable" u1007.med u1031
Ligature2: "LigatureSubstitutionlookup159 subtable" u1007.med u103C
MultipleSubs2: "MultipleSubstitutionlookup138 subtable" u1039 u1007.med
Ligature2: "sub_ligature_cligmymr_0 subtable" u1039 u1007
EndChar

StartChar: u1008
Encoding: 4104 4104 123
Width: 721
VWidth: 0
GlyphClass: 2
Flags: W
HStem: -15 51<222.45 349.678> 408 51<222.998 371.853>
VStem: 55 51<134.453 308.114> 241 51<141.162 307.617> 469 51<134.217 309.23>
DStem2: 403 -329 351 -369 0.968493 -0.249041<0 219.018>
AnchorPoint: "U" 549 486 basechar 0
AnchorPoint: "BS" 810 -53 basechar 0
AnchorPoint: "BD" 810 -53 basechar 0
AnchorPoint: "L" 810 -53 basechar 0
AnchorPoint: "R" 0 0 mark 0
AnchorPoint: "LL" 208 -53 basechar 0
LayerCount: 2
Fore
SplineSet
241 222 m 0
 241 187 226 130 172 78 c 0
 132 112 106 163 106 222 c 0
 106 280 133 333 175 367 c 0
 229 315 241 256 241 222 c 0
469 222 m 0
 469 120 388 36 286 36 c 0
 261 36 240 40 220 49 c 0
 274 103 292 166 292 222 c 0
 292 276 274 340 222 394 c 0
 244 402 265 408 289 408 c 0
 388 408 469 324 469 222 c 0
666 -450 m 0
 666 444 l 0
 615 444 l 0
 615 -384 l 0
 403 -329 l 0
 403 15 l 0
 474 55 520 132 520 222 c 0
 520 351 418 459 286 459 c 0
 159 459 55 351 55 222 c 0
 55 91 157 -15 289 -15 c 0
 310 -15 331 -12 351 -6 c 0
 351 -369 l 0
 666 -450 l 0
EndSplineSet
Ligature2: "LigatureSubstitutionlookup169 subtable" u1008 u103C
Ligature2: "LigatureSubstitutionlookup167 subtable" u1008 u103C u1031
Ligature2: "LigatureSubstitutionlookup167 subtable" u1008 u103C.wide u1031
Ligature2: "LigatureSubstitutionlookup167 subtable" u1008 u103C_u103D.narr u1031
Ligature2: "LigatureSubstitutionlookup167 subtable" u1008 u103C_u103D.wide u1031
Ligature2: "LigatureSubstitutionlookup165 subtable" u1008 u103C
Ligature2: "LigatureSubstitutionlookup165 subtable" u1008 u103C_u103D.narr
Ligature2: "LigatureSubstitutionlookup165 subtable" u1008 u103C_u102F.narr
Ligature2: "LigatureSubstitutionlookup163 subtable" u1008 u1031
Ligature2: "LigatureSubstitutionlookup163 subtable" u1008 u1084
Ligature2: "LigatureSubstitutionlookup162 subtable" u1008 u103D
Ligature2: "LigatureSubstitutionlookup162 subtable" u1008 u103E
Ligature2: "LigatureSubstitutionlookup162 subtable" u1008 u103D_u103E
Ligature2: "LigatureSubstitutionlookup162 subtable" u1008 u105E
Ligature2: "LigatureSubstitutionlookup162 subtable" u1008 u105F
Ligature2: "LigatureSubstitutionlookup162 subtable" u1008 u1060
Ligature2: "LigatureSubstitutionlookup162 subtable" u1008 u1082
Ligature2: "LigatureSubstitutionlookup158 subtable" u1008 u1039
MultipleSubs2: "MultipleSubstitutionlookup139 subtable" u200C u1031 u1008
MultipleSubs2: "MultipleSubstitutionlookup137 subtable" u200C u1084 u1008
Ligature2: "LigatureSubstitutionlookup130 subtable" u1004.kinzi u200D u1008
Ligature2: "LigatureSubstitutionlookup130 subtable" u101B.kinzi u200D u1008
MultipleSubs2: "MultipleSubstitutionlookup129 subtable" u1008 u101B.kinzi
MultipleSubs2: "MultipleSubstitutionlookup128 subtable" u1008 u1004.kinzi
Ligature2: "LigatureSubstitutionlookup127 subtable" u1004.kinzi u200D u1008
Ligature2: "LigatureSubstitutionlookup127 subtable" u101B.kinzi u200D u1008
Ligature2: "LigatureSubstitutionlookup124 subtable" u1004.kinzi u200D u1008
Ligature2: "LigatureSubstitutionlookup124 subtable" u101B.kinzi u200D u1008
EndChar

StartChar: u1008.med
Encoding: 65556 -1 124
Width: 162
VWidth: 0
GlyphClass: 2
Flags: W
HStem: -435 40<-268.135 -148.251> -110 41<-267.635 -148.572>
VStem: -396 39<-323.514 -180.341> -249 34<-314.857 -186.992> -78 39<-323.117 -180.941>
DStem2: -68 -351 -107 -395 0.968242 -0.250015<0 127.344>
AnchorPoint: "U" 0 495 basechar 0
AnchorPoint: "BS" 250 -53 basechar 0
AnchorPoint: "dot" -218 -53 basechar 0
AnchorPoint: "L" 250 -53 basechar 0
LayerCount: 2
Fore
SplineSet
-249 -252 m 0
 -249 -278 -261 -324 -302 -365 c 0
 -336 -342 -357 -299 -357 -252 c 0
 -357 -206 -336 -164 -300 -138 c 0
 -260 -179 -249 -227 -249 -252 c 0
-78 -252 m 0
 -78 -330 -141 -395 -218 -395 c 0
 -237 -395 -255 -392 -270 -386 c 0
 -228 -344 -215 -296 -215 -252 c 0
 -215 -209 -227 -159 -269 -119 c 0
 -254 -113 -237 -110 -218 -110 c 0
 -141 -110 -78 -174 -78 -252 c 0
106 -450 m 0
 106 444 l 0
 55 444 l 0
 55 -384 l 0
 -68 -351 l 0
 -48 -321 -39 -288 -39 -252 c 0
 -39 -150 -120 -69 -218 -69 c 0
 -317 -69 -396 -150 -396 -252 c 0
 -396 -351 -317 -435 -218 -435 c 0
 -176 -435 -138 -419 -107 -395 c 0
 106 -450 l 0
EndSplineSet
Ligature2: "LigatureSubstitutionlookup179 subtable" u1008.med u102D
Ligature2: "LigatureSubstitutionlookup179 subtable" u1008.med u102E
Ligature2: "LigatureSubstitutionlookup179 subtable" u1008.med u1032
Ligature2: "LigatureSubstitutionlookup179 subtable" u1008.med u103A
Ligature2: "LigatureSubstitutionlookup171 subtable" u1008.med u103C u1031
Ligature2: "LigatureSubstitutionlookup159 subtable" u1008.med u1031
Ligature2: "LigatureSubstitutionlookup159 subtable" u1008.med u103C
MultipleSubs2: "MultipleSubstitutionlookup138 subtable" u1039 u1008.med
Ligature2: "sub_ligature_cligmymr_0 subtable" u1039 u1008
EndChar

StartChar: u1009
Encoding: 4105 4105 125
Width: 568
VWidth: 0
GlyphClass: 2
Flags: W
HStem: -450 51<203.75 337 810 865.083> -15 51<189.198 361.446> 408 51<189.233 361.446>
VStem: 55 51<-301.707 -167 107.647 121> 462 51<136.348 307.24> 868 51<-395.887 -338>
AnchorPoint: "U" 276 495 basechar 0
AnchorPoint: "BS" 450 -53 basechar 0
AnchorPoint: "BD" 450 -53 basechar 0
AnchorPoint: "L" 276 -53 basechar 0
AnchorPoint: "R" 0 0 mark 0
AnchorPoint: "LL" 724 -53 basechar 0
LayerCount: 2
Fore
SplineSet
919 -302 m 0
 868 -302 l 0
 868 -338 l 0
 868 -393 864 -399 810 -399 c 0
 337 -399 l 0
 264 -399 202 -391 159 -347 c 0
 116 -304 106 -244 106 -167 c 0
 106 49 l 0
 153 7 216 -15 276 -15 c 0
 406 -15 513 91 513 222 c 0
 513 351 406 459 276 459 c 0
 187 459 93 412 55 322 c 0
 100 297 l 0
 136 367 205 408 276 408 c 0
 378 408 462 324 462 222 c 0
 462 120 378 36 276 36 c 0
 205 36 136 76 100 147 c 0
 55 121 l 0
 55 -185 l 0
 55 -271 72 -331 121 -381 c 0
 169 -430 227 -450 321 -450 c 0
 835 -450 l 0
 874 -450 889 -440 903 -423 c 0
 914 -410 919 -392 919 -347 c 0
 919 -302 l 0
EndSplineSet
Ligature2: "LigatureSubstitutionlookup169 subtable" u1009 u103C
Ligature2: "LigatureSubstitutionlookup167 subtable" u1009 u103C u1031
Ligature2: "LigatureSubstitutionlookup167 subtable" u1009 u103C.wide u1031
Ligature2: "LigatureSubstitutionlookup167 subtable" u1009 u103C_u103D.narr u1031
Ligature2: "LigatureSubstitutionlookup167 subtable" u1009 u103C_u103D.wide u1031
Ligature2: "LigatureSubstitutionlookup165 subtable" u1009 u103C
Ligature2: "LigatureSubstitutionlookup165 subtable" u1009 u103C_u103D.narr
Ligature2: "LigatureSubstitutionlookup165 subtable" u1009 u103C_u102F.narr
Ligature2: "LigatureSubstitutionlookup163 subtable" u1009 u1031
Ligature2: "LigatureSubstitutionlookup163 subtable" u1009 u1084
Ligature2: "LigatureSubstitutionlookup162 subtable" u1009 u103D
Ligature2: "LigatureSubstitutionlookup162 subtable" u1009 u103E
Ligature2: "LigatureSubstitutionlookup162 subtable" u1009 u103D_u103E
Ligature2: "LigatureSubstitutionlookup162 subtable" u1009 u105E
Ligature2: "LigatureSubstitutionlookup162 subtable" u1009 u105F
Ligature2: "LigatureSubstitutionlookup162 subtable" u1009 u1060
Ligature2: "LigatureSubstitutionlookup162 subtable" u1009 u1082
Ligature2: "LigatureSubstitutionlookup158 subtable" u1009 u1039
Substitution2: "SingleSubstitutionlookup146 subtable" u1025
MultipleSubs2: "MultipleSubstitutionlookup139 subtable" u200C u1031 u1009
MultipleSubs2: "MultipleSubstitutionlookup137 subtable" u200C u1084 u1009
Ligature2: "LigatureSubstitutionlookup130 subtable" u1004.kinzi u200D u1009
Ligature2: "LigatureSubstitutionlookup130 subtable" u101B.kinzi u200D u1009
MultipleSubs2: "MultipleSubstitutionlookup129 subtable" u1009 u101B.kinzi
MultipleSubs2: "MultipleSubstitutionlookup128 subtable" u1009 u1004.kinzi
Ligature2: "LigatureSubstitutionlookup127 subtable" u1004.kinzi u200D u1009
Ligature2: "LigatureSubstitutionlookup127 subtable" u101B.kinzi u200D u1009
Ligature2: "LigatureSubstitutionlookup124 subtable" u1004.kinzi u200D u1009
Ligature2: "LigatureSubstitutionlookup124 subtable" u101B.kinzi u200D u1009
EndChar

StartChar: u1009_u102C
Encoding: 65557 -1 126
Width: 990
VWidth: 0
GlyphClass: 2
Flags: W
HStem: -450 51<203.75 337 810 865.083> -15 51<189.198 359.979 644.623 785.304> 408 51<189.233 360.872 630.417 785.304>
VStem: 55 51<-301.707 -167 107.647 121> 868 51<-395.887 -338> 883 51<134.358 309.23>
AnchorPoint: "U" 702 495 basechar 0
AnchorPoint: "BS" 1063 -53 basechar 0
AnchorPoint: "BD" 1063 -53 basechar 0
AnchorPoint: "L" 702 -53 basechar 0
AnchorPoint: "R" 0 0 mark 0
LayerCount: 2
Fore
SplineSet
934 222 m 0xf4
 934 351 828 459 702 459 c 0
 613 459 535 397 492 315 c 0
 456 399 372 459 276 459 c 0
 187 459 93 412 55 322 c 0
 100 297 l 0
 136 367 205 408 276 408 c 0
 378 408 462 324 462 222 c 0
 462 116 372 36 276 36 c 0
 205 36 136 76 100 147 c 0
 55 121 l 0
 55 -185 l 0
 55 -271 72 -331 121 -381 c 0
 169 -430 227 -450 321 -450 c 0
 835 -450 l 0
 874 -450 889 -440 903 -423 c 0
 914 -410 919 -392 919 -347 c 0
 919 -302 l 0
 868 -302 l 0
 868 -338 l 0xf8
 868 -393 864 -399 810 -399 c 0
 337 -399 l 0
 264 -399 202 -391 159 -347 c 0
 116 -304 106 -244 106 -167 c 0
 106 49 l 0
 153 7 216 -15 276 -15 c 0
 412 -15 502 97 511 192 c 0
 513 214 l 0
 521 304 610 408 702 408 c 0
 802 408 883 324 883 222 c 0
 883 120 802 36 702 36 c 0
 685 36 667 39 651 46 c 0
 631 0 l 0
 654 -9 678 -15 702 -15 c 0
 828 -15 934 91 934 222 c 0xf4
EndSplineSet
Ligature2: "sub_ligature_cligmymr_4 subtable" u1009 u102C
EndChar

StartChar: u100A
Encoding: 4106 4106 127
Width: 990
VWidth: 0
GlyphClass: 2
Flags: W
HStem: -450 51<203.75 337 810 865.083> -15 51<189.198 360.887 626.901 785.304> 408 51<187.651 359.814 644.637 785.304>
VStem: 55 51<-301.707 -167 107.647 121> 462 51<160.72 300.704> 868 51<-395.887 -338> 883 51<134.358 309.23>
AnchorPoint: "U" 702 495 basechar 0
AnchorPoint: "BS" 1063 -53 basechar 0
AnchorPoint: "BD" 1063 -53 basechar 0
AnchorPoint: "L" 702 -53 basechar 0
AnchorPoint: "R" 0 0 mark 0
LayerCount: 2
Fore
SplineSet
934 222 m 0xfa
 934 351 828 459 702 459 c 0
 681 459 654 452 631 444 c 0
 651 397 l 0
 666 403 687 408 702 408 c 0
 802 408 883 324 883 222 c 0xfa
 883 120 802 36 702 36 c 0
 610 36 525 132 513 228 c 0
 508 352 402 459 276 459 c 0
 187 459 93 412 55 322 c 0
 100 297 l 0
 138 371 203 408 276 408 c 0
 385 408 462 309 462 219 c 0
 462 119 378 36 276 36 c 0
 205 36 136 76 100 147 c 0
 55 121 l 0
 55 -185 l 0
 55 -271 72 -331 121 -381 c 0
 169 -430 227 -450 321 -450 c 0
 835 -450 l 0
 874 -450 889 -440 903 -423 c 0
 914 -410 919 -392 919 -347 c 0
 919 -302 l 0
 868 -302 l 0
 868 -338 l 0xfc
 868 -393 864 -399 810 -399 c 0
 337 -399 l 0
 264 -399 202 -391 159 -347 c 0
 116 -304 106 -244 106 -167 c 0
 106 49 l 0
 153 7 216 -15 276 -15 c 0
 372 -15 456 43 493 127 c 0
 535 45 613 -15 702 -15 c 0
 828 -15 934 91 934 222 c 0xfa
EndSplineSet
Ligature2: "LigatureSubstitutionlookup169 subtable" u100A u103C
Ligature2: "LigatureSubstitutionlookup167 subtable" u100A u103C u1031
Ligature2: "LigatureSubstitutionlookup167 subtable" u100A u103C.wide u1031
Ligature2: "LigatureSubstitutionlookup167 subtable" u100A u103C_u103D.narr u1031
Ligature2: "LigatureSubstitutionlookup167 subtable" u100A u103C_u103D.wide u1031
Ligature2: "LigatureSubstitutionlookup165 subtable" u100A u103C
Ligature2: "LigatureSubstitutionlookup165 subtable" u100A u103C_u103D.narr
Ligature2: "LigatureSubstitutionlookup165 subtable" u100A u103C_u102F.narr
Ligature2: "LigatureSubstitutionlookup163 subtable" u100A u1031
Ligature2: "LigatureSubstitutionlookup163 subtable" u100A u1084
Ligature2: "LigatureSubstitutionlookup162 subtable" u100A u103D
Ligature2: "LigatureSubstitutionlookup162 subtable" u100A u103E
Ligature2: "LigatureSubstitutionlookup162 subtable" u100A u103D_u103E
Ligature2: "LigatureSubstitutionlookup162 subtable" u100A u105E
Ligature2: "LigatureSubstitutionlookup162 subtable" u100A u105F
Ligature2: "LigatureSubstitutionlookup162 subtable" u100A u1060
Ligature2: "LigatureSubstitutionlookup162 subtable" u100A u1082
Ligature2: "LigatureSubstitutionlookup158 subtable" u100A u1039
Substitution2: "SingleSubstitutionlookup143 subtable" u100A.alt
MultipleSubs2: "MultipleSubstitutionlookup139 subtable" u200C u1031 u100A
MultipleSubs2: "MultipleSubstitutionlookup137 subtable" u200C u1084 u100A
MultipleSubs2: "MultipleSubstitutionlookup136 subtable" u200C u103C_u103D.wide u100A
MultipleSubs2: "MultipleSubstitutionlookup135 subtable" u200C u103C_u102F.wide u100A
MultipleSubs2: "MultipleSubstitutionlookup134 subtable" u200C u103C.wide u100A
Ligature2: "LigatureSubstitutionlookup130 subtable" u1004.kinzi u200D u100A
Ligature2: "LigatureSubstitutionlookup130 subtable" u101B.kinzi u200D u100A
MultipleSubs2: "MultipleSubstitutionlookup129 subtable" u100A u101B.kinzi
MultipleSubs2: "MultipleSubstitutionlookup128 subtable" u100A u1004.kinzi
Ligature2: "LigatureSubstitutionlookup127 subtable" u1004.kinzi u200D u100A
Ligature2: "LigatureSubstitutionlookup127 subtable" u101B.kinzi u200D u100A
Ligature2: "LigatureSubstitutionlookup124 subtable" u1004.kinzi u200D u100A
Ligature2: "LigatureSubstitutionlookup124 subtable" u101B.kinzi u200D u100A
EndChar

StartChar: u100A.alt
Encoding: 65558 -1 128
Width: 990
VWidth: 0
GlyphClass: 2
Flags: W
HStem: -450 51<164.484 231> -15 51<189.198 360.887 626.901 785.304> 408 51<187.651 359.814 644.637 785.304>
VStem: 55 51<-341.844 -260 107.647 121> 462 51<160.72 300.704> 883 51<134.358 309.23>
AnchorPoint: "U" 702 495 basechar 0
AnchorPoint: "BS" 702 -53 basechar 0
AnchorPoint: "BD" 486 -53 basechar 0
AnchorPoint: "L" 702 -53 basechar 0
AnchorPoint: "R" 0 0 mark 0
LayerCount: 2
Fore
SplineSet
934 222 m 0
 934 351 828 459 702 459 c 0
 681 459 654 452 631 444 c 0
 651 397 l 0
 666 403 687 408 702 408 c 0
 802 408 883 324 883 222 c 0
 883 120 802 36 702 36 c 0
 610 36 525 132 513 228 c 0
 508 352 402 459 276 459 c 0
 187 459 93 412 55 322 c 0
 100 297 l 0
 138 371 203 408 276 408 c 0
 385 408 462 309 462 219 c 0
 462 119 378 36 276 36 c 0
 205 36 136 76 100 147 c 0
 55 121 l 0
 55 -272 l 0
 55 -317 73 -362 106 -395 c 0
 142 -431 192 -450 231 -450 c 0
 289 -450 l 0
 289 -399 l 0
 231 -399 l 0
 202 -399 170 -387 144 -361 c 0
 120 -337 106 -308 106 -260 c 0
 106 49 l 0
 153 7 216 -15 276 -15 c 0
 372 -15 456 43 493 127 c 0
 535 45 613 -15 702 -15 c 0
 828 -15 934 91 934 222 c 0
EndSplineSet
Ligature2: "LigatureSubstitutionlookup169 subtable" u100A.alt u103C
Ligature2: "LigatureSubstitutionlookup167 subtable" u100A.alt u103C u1031
Ligature2: "LigatureSubstitutionlookup167 subtable" u100A.alt u103C.wide u1031
Ligature2: "LigatureSubstitutionlookup167 subtable" u100A.alt u103C_u103D.narr u1031
Ligature2: "LigatureSubstitutionlookup167 subtable" u100A.alt u103C_u103D.wide u1031
Ligature2: "LigatureSubstitutionlookup165 subtable" u100A.alt u103C
Ligature2: "LigatureSubstitutionlookup165 subtable" u100A.alt u103C_u103D.narr
Ligature2: "LigatureSubstitutionlookup165 subtable" u100A.alt u103C_u102F.narr
Ligature2: "LigatureSubstitutionlookup163 subtable" u100A.alt u1031
Ligature2: "LigatureSubstitutionlookup163 subtable" u100A.alt u1084
Ligature2: "LigatureSubstitutionlookup162 subtable" u100A.alt u103D
Ligature2: "LigatureSubstitutionlookup162 subtable" u100A.alt u103E
Ligature2: "LigatureSubstitutionlookup162 subtable" u100A.alt u103D_u103E
Ligature2: "LigatureSubstitutionlookup162 subtable" u100A.alt u105E
Ligature2: "LigatureSubstitutionlookup162 subtable" u100A.alt u105F
Ligature2: "LigatureSubstitutionlookup162 subtable" u100A.alt u1060
Ligature2: "LigatureSubstitutionlookup162 subtable" u100A.alt u1082
Ligature2: "LigatureSubstitutionlookup158 subtable" u100A.alt u1039
MultipleSubs2: "MultipleSubstitutionlookup139 subtable" u200C u1031 u100A.alt
MultipleSubs2: "MultipleSubstitutionlookup137 subtable" u200C u1084 u100A.alt
MultipleSubs2: "MultipleSubstitutionlookup136 subtable" u200C u103C_u103D.wide u100A.alt
MultipleSubs2: "MultipleSubstitutionlookup135 subtable" u200C u103C_u102F.wide u100A.alt
MultipleSubs2: "MultipleSubstitutionlookup134 subtable" u200C u103C.wide u100A.alt
Ligature2: "LigatureSubstitutionlookup130 subtable" u1004.kinzi u200D u100A.alt
Ligature2: "LigatureSubstitutionlookup130 subtable" u101B.kinzi u200D u100A.alt
MultipleSubs2: "MultipleSubstitutionlookup129 subtable" u100A.alt u101B.kinzi
MultipleSubs2: "MultipleSubstitutionlookup128 subtable" u100A.alt u1004.kinzi
Ligature2: "LigatureSubstitutionlookup127 subtable" u1004.kinzi u200D u100A.alt
Ligature2: "LigatureSubstitutionlookup127 subtable" u101B.kinzi u200D u100A.alt
Ligature2: "LigatureSubstitutionlookup124 subtable" u1004.kinzi u200D u100A.alt
Ligature2: "LigatureSubstitutionlookup124 subtable" u101B.kinzi u200D u100A.alt
EndChar

StartChar: u100A.med
Encoding: 65559 -1 129
Width: 729
VWidth: 0
GlyphClass: 4
Flags: W
HStem: -450 40<135.433 197 593 621.238> -359 40<151.053 306.913 436.195 596.003> -123 39<152.609 301.411 469.647 595.933>
VStem: 58 40<-372.575 -306> 351 39<-277.172 -170.022> 623 40<-409.031 -378> 635 39<-282.58 -160.683>
AnchorPoint: "BSM" 110 -53 basemark 0
AnchorPoint: "BDM" -368 -53 mark 0
AnchorPoint: "BD" -368 -53 mark 0
AnchorPoint: "LLM" -103 -53 basemark 0
AnchorPoint: "LM" 839 -53 basemark 0
AnchorPoint: "BSM" 839 -53 mark 0
AnchorPoint: "BD" 361 -53 basemark 0
LayerCount: 2
Fore
SplineSet
674 -226 m 0xfa
 674 -137 613 -84 526 -84 c 0
 510 -84 479 -91 461 -100 c 0
 476 -136 l 0
 488 -130 510 -123 526 -123 c 0
 593 -123 635 -158 635 -226 c 0xfa
 635 -285 593 -319 516 -319 c 0
 445 -319 390 -281 390 -227 c 0
 390 -137 319 -84 222 -84 c 0
 154 -84 102 -119 78 -155 c 0
 105 -187 l 0
 135 -143 177 -123 222 -123 c 0
 318 -123 351 -181 351 -226 c 0
 351 -284 300 -319 222 -319 c 0
 166 -319 124 -288 96 -244 c 0
 61 -264 l 0
 59 -277 58 -290 58 -302 c 0
 58 -391 111 -450 196 -450 c 0
 595 -450 l 0
 644 -450 663 -429 663 -378 c 0
 663 -356 l 0
 623 -356 l 0
 623 -378 l 0xfc
 623 -405 616 -410 593 -410 c 0
 197 -410 l 0
 152 -410 98 -384 98 -306 c 0
 133 -346 175 -359 222 -359 c 0
 291 -359 336 -346 371 -295 c 0
 417 -346 453 -359 516 -359 c 0
 613 -359 674 -317 674 -226 c 0xfa
EndSplineSet
Ligature2: "LigatureSubstitutionlookup179 subtable" u100A.med u102D
Ligature2: "LigatureSubstitutionlookup179 subtable" u100A.med u102E
Ligature2: "LigatureSubstitutionlookup179 subtable" u100A.med u1032
Ligature2: "LigatureSubstitutionlookup179 subtable" u100A.med u103A
Ligature2: "LigatureSubstitutionlookup171 subtable" u100A.med u103C u1031
Ligature2: "LigatureSubstitutionlookup159 subtable" u100A.med u1031
Ligature2: "LigatureSubstitutionlookup159 subtable" u100A.med u103C
MultipleSubs2: "MultipleSubstitutionlookup138 subtable" u1039 u100A.med
Ligature2: "sub_ligature_cligmymr_0 subtable" u1039 u100A
EndChar

StartChar: u100A_u100A
Encoding: 65560 -1 130
Width: 1410
VWidth: 0
GlyphClass: 2
Flags: W
HStem: -450 51<203.75 337 1231 1286.08> -15 51<189.198 360.887 626.901 784.994 1047.9 1206.3> 397 47<648.021 701.011 1069.02 1122.01> 408 51<187.651 359.814 644.637 784.685 1065.64 1206.3>
VStem: 55 51<-301.707 -167 107.647 121> 462 51<160.72 300.704> 883 51<158.337 306.393> 1289 51<-395.887 -338> 1304 51<134.358 309.23>
AnchorPoint: "U" 1123 495 basechar 0
AnchorPoint: "BS" 1063 -53 basechar 0
AnchorPoint: "BD" 1063 -53 basechar 0
AnchorPoint: "L" 702 -53 basechar 0
AnchorPoint: "R" 0 0 mark 0
LayerCount: 2
Fore
SplineSet
1355 222 m 0xde80
 1355 351 1249 459 1123 459 c 0xde80
 1102 459 1075 452 1052 444 c 0
 1072 397 l 0xee80
 1087 403 1108 408 1123 408 c 0
 1223 408 1304 324 1304 222 c 0
 1304 120 1223 36 1123 36 c 0
 1031 36 946 132 934 228 c 0
 934 353 825 459 702 459 c 0xde80
 681 459 654 452 631 444 c 0
 651 397 l 0xee80
 666 403 687 408 702 408 c 0
 802 408 883 324 883 222 c 0
 883 120 802 36 702 36 c 0
 610 36 525 132 513 228 c 0
 508 352 402 459 276 459 c 0
 187 459 93 412 55 322 c 0
 100 297 l 0
 138 371 203 408 276 408 c 0
 385 408 462 309 462 219 c 0
 462 119 378 36 276 36 c 0
 205 36 136 76 100 147 c 0
 55 121 l 0
 55 -185 l 0
 55 -271 72 -331 121 -381 c 0
 169 -430 227 -450 321 -450 c 0
 1256 -450 l 0
 1295 -450 1310 -440 1324 -423 c 0
 1335 -410 1340 -392 1340 -347 c 0
 1340 -302 l 0
 1289 -302 l 0
 1289 -338 l 0xdf
 1289 -393 1285 -399 1231 -399 c 0
 337 -399 l 0
 264 -399 202 -391 159 -347 c 0
 116 -304 106 -244 106 -167 c 0
 106 49 l 0
 153 7 216 -15 276 -15 c 0
 372 -15 456 43 493 127 c 0
 535 45 613 -15 702 -15 c 0
 796 -15 878 43 914 127 c 0
 956 45 1034 -15 1123 -15 c 0
 1249 -15 1355 91 1355 222 c 0xde80
EndSplineSet
Ligature2: "LigatureSubstitutionlookup169 subtable" u100A_u100A u103C
Ligature2: "LigatureSubstitutionlookup167 subtable" u100A_u100A u103C u1031
Ligature2: "LigatureSubstitutionlookup167 subtable" u100A_u100A u103C.wide u1031
Ligature2: "LigatureSubstitutionlookup167 subtable" u100A_u100A u103C_u103D.narr u1031
Ligature2: "LigatureSubstitutionlookup167 subtable" u100A_u100A u103C_u103D.wide u1031
Ligature2: "LigatureSubstitutionlookup165 subtable" u100A_u100A u103C
Ligature2: "LigatureSubstitutionlookup165 subtable" u100A_u100A u103C_u103D.narr
Ligature2: "LigatureSubstitutionlookup165 subtable" u100A_u100A u103C_u102F.narr
Ligature2: "LigatureSubstitutionlookup163 subtable" u100A_u100A u1031
Ligature2: "LigatureSubstitutionlookup163 subtable" u100A_u100A u1084
Ligature2: "LigatureSubstitutionlookup162 subtable" u100A_u100A u103D
Ligature2: "LigatureSubstitutionlookup162 subtable" u100A_u100A u103E
Ligature2: "LigatureSubstitutionlookup162 subtable" u100A_u100A u103D_u103E
Ligature2: "LigatureSubstitutionlookup162 subtable" u100A_u100A u105E
Ligature2: "LigatureSubstitutionlookup162 subtable" u100A_u100A u105F
Ligature2: "LigatureSubstitutionlookup162 subtable" u100A_u100A u1060
Ligature2: "LigatureSubstitutionlookup162 subtable" u100A_u100A u1082
Ligature2: "LigatureSubstitutionlookup158 subtable" u100A_u100A u1039
MultipleSubs2: "MultipleSubstitutionlookup139 subtable" u200C u1031 u100A_u100A
MultipleSubs2: "MultipleSubstitutionlookup137 subtable" u200C u1084 u100A_u100A
Ligature2: "LigatureSubstitutionlookup130 subtable" u1004.kinzi u200D u100A_u100A
Ligature2: "LigatureSubstitutionlookup130 subtable" u101B.kinzi u200D u100A_u100A
MultipleSubs2: "MultipleSubstitutionlookup129 subtable" u100A_u100A u101B.kinzi
MultipleSubs2: "MultipleSubstitutionlookup128 subtable" u100A_u100A u1004.kinzi
Ligature2: "LigatureSubstitutionlookup127 subtable" u1004.kinzi u200D u100A_u100A
Ligature2: "LigatureSubstitutionlookup127 subtable" u101B.kinzi u200D u100A_u100A
Ligature2: "LigatureSubstitutionlookup124 subtable" u1004.kinzi u200D u100A_u100A
Ligature2: "LigatureSubstitutionlookup124 subtable" u101B.kinzi u200D u100A_u100A
Ligature2: "sub_ligature_cligmymr_4 subtable" u100A u100A.med
EndChar

StartChar: u100B
Encoding: 4107 4107 131
Width: 568
VWidth: 0
GlyphClass: 2
Flags: W
HStem: -450 55<513.652 584.095> -293 51<173.629 427.852> -158 51<173.01 406.145> -15 51<206.554 378.646> 408 51<206.554 378.804>
VStem: 55 51<136.348 307.24> 462 51<-394.645 -369 -70.3457 -60>
AnchorPoint: "U" 292 495 basechar 0
AnchorPoint: "BS" 657 -53 basechar 0
AnchorPoint: "BD" 657 -53 basechar 0
AnchorPoint: "L" 657 -53 basechar 0
AnchorPoint: "R" 0 0 mark 0
LayerCount: 2
Fore
SplineSet
597 -423 m 0
 583 -374 l 0
 573 -380 538 -395 525 -395 c 0
 515 -395 513 -388 513 -369 c 0
 513 -186 l 0
 437 -223 369 -242 292 -242 c 0
 238 -242 186 -230 136 -204 c 0
 136 -125 l 0
 184 -147 238 -158 292 -158 c 0
 372 -158 445 -132 513 -89 c 0
 513 121 l 0
 469 147 l 0
 432 76 363 36 292 36 c 0
 190 36 106 120 106 222 c 0
 106 324 190 408 292 408 c 0
 363 408 432 367 469 297 c 0
 513 322 l 0
 475 412 381 459 292 459 c 0
 162 459 55 351 55 222 c 0
 55 91 162 -15 292 -15 c 0
 351 -15 415 7 462 49 c 0
 462 -60 l 0
 408 -89 351 -107 292 -107 c 0
 213 -107 148 -80 85 -41 c 0
 85 -233 l 0
 144 -275 219 -293 292 -293 c 0
 351 -293 409 -285 462 -263 c 0
 462 -378 l 0
 462 -419 478 -450 520 -450 c 0
 538 -450 571 -435 597 -423 c 0
EndSplineSet
Ligature2: "LigatureSubstitutionlookup169 subtable" u100B u103C
Ligature2: "LigatureSubstitutionlookup167 subtable" u100B u103C u1031
Ligature2: "LigatureSubstitutionlookup167 subtable" u100B u103C.wide u1031
Ligature2: "LigatureSubstitutionlookup167 subtable" u100B u103C_u103D.narr u1031
Ligature2: "LigatureSubstitutionlookup167 subtable" u100B u103C_u103D.wide u1031
Ligature2: "LigatureSubstitutionlookup165 subtable" u100B u103C
Ligature2: "LigatureSubstitutionlookup165 subtable" u100B u103C_u103D.narr
Ligature2: "LigatureSubstitutionlookup165 subtable" u100B u103C_u102F.narr
Ligature2: "LigatureSubstitutionlookup163 subtable" u100B u1031
Ligature2: "LigatureSubstitutionlookup163 subtable" u100B u1084
Ligature2: "LigatureSubstitutionlookup162 subtable" u100B u103D
Ligature2: "LigatureSubstitutionlookup162 subtable" u100B u103E
Ligature2: "LigatureSubstitutionlookup162 subtable" u100B u103D_u103E
Ligature2: "LigatureSubstitutionlookup162 subtable" u100B u105E
Ligature2: "LigatureSubstitutionlookup162 subtable" u100B u105F
Ligature2: "LigatureSubstitutionlookup162 subtable" u100B u1060
Ligature2: "LigatureSubstitutionlookup162 subtable" u100B u1082
Ligature2: "LigatureSubstitutionlookup158 subtable" u100B u1039
MultipleSubs2: "MultipleSubstitutionlookup139 subtable" u200C u1031 u100B
MultipleSubs2: "MultipleSubstitutionlookup137 subtable" u200C u1084 u100B
Ligature2: "LigatureSubstitutionlookup130 subtable" u1004.kinzi u200D u100B
Ligature2: "LigatureSubstitutionlookup130 subtable" u101B.kinzi u200D u100B
MultipleSubs2: "MultipleSubstitutionlookup129 subtable" u100B u101B.kinzi
MultipleSubs2: "MultipleSubstitutionlookup128 subtable" u100B u1004.kinzi
Ligature2: "LigatureSubstitutionlookup127 subtable" u1004.kinzi u200D u100B
Ligature2: "LigatureSubstitutionlookup127 subtable" u101B.kinzi u200D u100B
Ligature2: "LigatureSubstitutionlookup124 subtable" u1004.kinzi u200D u100B
Ligature2: "LigatureSubstitutionlookup124 subtable" u101B.kinzi u200D u100B
EndChar

StartChar: u100B.alt
Encoding: 65561 -1 132
Width: 568
VWidth: 0
GlyphClass: 2
Flags: W
HStem: -158 51<173.796 408.18> -15 51<206.554 378.804> 408 51<206.554 378.804>
VStem: 55 51<136.348 307.24>
AnchorPoint: "U" 292 495 basechar 0
AnchorPoint: "BS" 207 -173 basechar 0
AnchorPoint: "BD" 60 -173 basechar 0
AnchorPoint: "R" 0 0 mark 0
AnchorPoint: "L" 642 -53 basechar 0
AnchorPoint: "LL" 292 -53 basechar 0
LayerCount: 2
Fore
SplineSet
574 -450 m 0
 574 -399 l 0
 498 -399 l 0
 498 -42 l 0
 424 -83 370 -107 292 -107 c 0
 213 -107 148 -80 85 -41 c 0
 85 -98 l 0
 147 -138 219 -158 292 -158 c 0
 351 -158 397 -146 447 -123 c 0
 447 -450 l 0
 574 -450 l 0
513 121 m 0
 469 147 l 0
 432 76 363 36 292 36 c 0
 190 36 106 120 106 222 c 0
 106 324 190 408 292 408 c 0
 363 408 432 367 469 297 c 0
 513 322 l 0
 475 412 381 459 292 459 c 0
 162 459 55 351 55 222 c 0
 55 91 162 -15 292 -15 c 0
 381 -15 475 31 513 121 c 0
EndSplineSet
EndChar

StartChar: u100B.med
Encoding: 65562 -1 133
Width: 327
VWidth: 0
GlyphClass: 4
Flags: W
HStem: -381 39<109.935 210.661> -243 39<110.83 256.767>
VStem: 55 39<-325.761 -260.835>
AnchorPoint: "BSM" -161 -53 mark 0
AnchorPoint: "BS" -161 -53 mark 0
AnchorPoint: "BS" 166 -53 basemark 0
AnchorPoint: "LLM" -89 -53 basemark 0
AnchorPoint: "LM" 415 -53 basemark 0
AnchorPoint: "BSM" 415 -53 basemark 0
LayerCount: 2
Fore
SplineSet
301 -450 m 0
 301 -411 l 0
 250 -411 l 0
 250 -329 l 0
 226 -338 203 -342 169 -342 c 0
 143 -342 94 -329 94 -293 c 0
 94 -257 143 -243 176 -243 c 0
 209 -243 228 -246 250 -260 c 0
 271 -227 l 0
 244 -209 211 -204 176 -204 c 0
 128 -204 55 -223 55 -293 c 0
 55 -365 128 -381 169 -381 c 0
 181 -381 201 -380 211 -379 c 0
 211 -450 l 0
 301 -450 l 0
EndSplineSet
Ligature2: "LigatureSubstitutionlookup179 subtable" u100B.med u102D
Ligature2: "LigatureSubstitutionlookup179 subtable" u100B.med u102E
Ligature2: "LigatureSubstitutionlookup179 subtable" u100B.med u1032
Ligature2: "LigatureSubstitutionlookup179 subtable" u100B.med u103A
Ligature2: "LigatureSubstitutionlookup171 subtable" u100B.med u103C u1031
Ligature2: "LigatureSubstitutionlookup159 subtable" u100B.med u1031
Ligature2: "LigatureSubstitutionlookup159 subtable" u100B.med u103C
MultipleSubs2: "MultipleSubstitutionlookup138 subtable" u1039 u100B.med
Ligature2: "sub_ligature_cligmymr_0 subtable" u1039 u100B
EndChar

StartChar: u100B_u100B
Encoding: 65563 -1 134
Width: 568
VWidth: 0
GlyphClass: 2
Flags: W
HStem: -381 39<203.615 306.73> -243 39<204.688 353.023> -158 51<173.796 402.177> -15 51<206.554 378.804> 408 51<206.554 378.804>
VStem: 55 51<136.348 307.24> 151 39<-327.459 -259.286>
AnchorPoint: "U" 292 495 basechar 0
AnchorPoint: "BS" 657 -53 basechar 0
AnchorPoint: "BD" 657 -53 basechar 0
AnchorPoint: "L" 657 -53 basechar 0
AnchorPoint: "R" 0 0 mark 0
LayerCount: 2
Fore
SplineSet
397 -450 m 0
 397 -411 l 0
 346 -411 l 0
 346 -329 l 0
 318 -338 301 -342 262 -342 c 0
 244 -342 190 -334 190 -293 c 0
 190 -253 240 -243 272 -243 c 0
 298 -243 319 -245 346 -260 c 0
 367 -227 l 0
 337 -206 301 -204 272 -204 c 0
 222 -204 151 -226 151 -293 c 0
 151 -371 243 -381 262 -381 c 0
 276 -381 297 -380 307 -378 c 0
 307 -450 l 0
 397 -450 l 0
595 -450 m 0
 595 -399 l 0
 513 -399 l 0
 513 -30 l 0
 442 -74 370 -107 292 -107 c 0
 213 -107 148 -80 85 -41 c 0
 85 -98 l 0
 147 -138 219 -158 292 -158 c 0
 351 -158 408 -143 462 -117 c 0
 462 -450 l 0
 595 -450 l 0
513 121 m 0
 469 147 l 0
 432 76 363 36 292 36 c 0
 190 36 106 120 106 222 c 0
 106 324 190 408 292 408 c 0
 363 408 432 367 469 297 c 0
 513 322 l 0
 475 412 381 459 292 459 c 0
 162 459 55 351 55 222 c 0
 55 91 162 -15 292 -15 c 0
 381 -15 475 31 513 121 c 0
EndSplineSet
Ligature2: "LigatureSubstitutionlookup169 subtable" u100B_u100B u103C
Ligature2: "LigatureSubstitutionlookup167 subtable" u100B_u100B u103C u1031
Ligature2: "LigatureSubstitutionlookup167 subtable" u100B_u100B u103C.wide u1031
Ligature2: "LigatureSubstitutionlookup167 subtable" u100B_u100B u103C_u103D.narr u1031
Ligature2: "LigatureSubstitutionlookup167 subtable" u100B_u100B u103C_u103D.wide u1031
Ligature2: "LigatureSubstitutionlookup165 subtable" u100B_u100B u103C
Ligature2: "LigatureSubstitutionlookup165 subtable" u100B_u100B u103C_u103D.narr
Ligature2: "LigatureSubstitutionlookup165 subtable" u100B_u100B u103C_u102F.narr
Ligature2: "LigatureSubstitutionlookup163 subtable" u100B_u100B u1031
Ligature2: "LigatureSubstitutionlookup163 subtable" u100B_u100B u1084
Ligature2: "LigatureSubstitutionlookup162 subtable" u100B_u100B u103D
Ligature2: "LigatureSubstitutionlookup162 subtable" u100B_u100B u103E
Ligature2: "LigatureSubstitutionlookup162 subtable" u100B_u100B u103D_u103E
Ligature2: "LigatureSubstitutionlookup162 subtable" u100B_u100B u105E
Ligature2: "LigatureSubstitutionlookup162 subtable" u100B_u100B u105F
Ligature2: "LigatureSubstitutionlookup162 subtable" u100B_u100B u1060
Ligature2: "LigatureSubstitutionlookup162 subtable" u100B_u100B u1082
Ligature2: "LigatureSubstitutionlookup158 subtable" u100B_u100B u1039
MultipleSubs2: "MultipleSubstitutionlookup139 subtable" u200C u1031 u100B_u100B
MultipleSubs2: "MultipleSubstitutionlookup137 subtable" u200C u1084 u100B_u100B
Ligature2: "LigatureSubstitutionlookup130 subtable" u1004.kinzi u200D u100B_u100B
Ligature2: "LigatureSubstitutionlookup130 subtable" u101B.kinzi u200D u100B_u100B
MultipleSubs2: "MultipleSubstitutionlookup129 subtable" u100B_u100B u101B.kinzi
MultipleSubs2: "MultipleSubstitutionlookup128 subtable" u100B_u100B u1004.kinzi
Ligature2: "LigatureSubstitutionlookup127 subtable" u1004.kinzi u200D u100B_u100B
Ligature2: "LigatureSubstitutionlookup127 subtable" u101B.kinzi u200D u100B_u100B
Ligature2: "LigatureSubstitutionlookup124 subtable" u1004.kinzi u200D u100B_u100B
Ligature2: "LigatureSubstitutionlookup124 subtable" u101B.kinzi u200D u100B_u100B
Ligature2: "sub_ligature_cligmymr_4 subtable" u100B u100B.med
EndChar

StartChar: u100B_u100C
Encoding: 65564 -1 135
Width: 556
VWidth: 0
GlyphClass: 2
Flags: W
HStem: -450 51<114.754 156 292 386.131> -296 51<115.439 208.401> -158 51<173.796 408.609> -15 51<206.554 378.804> 408 51<206.554 378.804>
VStem: 55 51<-390.306 -305.713 136.348 307.24> 447 51<-339.98 -264>
AnchorPoint: "U" 292 495 basechar 0
AnchorPoint: "BS" 642 -53 basechar 0
AnchorPoint: "BD" 642 -53 basechar 0
AnchorPoint: "L" 642 -53 basechar 0
AnchorPoint: "R" 0 0 mark 0
LayerCount: 2
Fore
SplineSet
513 121 m 0
 469 147 l 0
 432 76 363 36 292 36 c 0
 190 36 106 120 106 222 c 0
 106 324 190 408 292 408 c 0
 363 408 432 367 469 297 c 0
 513 322 l 0
 475 412 381 459 292 459 c 0
 162 459 55 351 55 222 c 0
 55 91 162 -15 292 -15 c 0
 381 -15 475 31 513 121 c 0
498 -42 m 0
 424 -83 370 -107 292 -107 c 0
 213 -107 148 -80 85 -41 c 0
 85 -98 l 0
 147 -138 219 -158 292 -158 c 0
 351 -158 399 -146 447 -123 c 0
 447 -264 l 0
 447 -302 435 -338 406 -362 c 0
 372 -392 358 -399 292 -399 c 0
 156 -399 l 0
 121 -399 106 -371 106 -347 c 0
 106 -318 126 -296 166 -296 c 0
 175 -296 184 -299 195 -306 c 0
 229 -267 l 0
 214 -252 193 -245 166 -245 c 0
 94 -245 55 -297 55 -347 c 0
 55 -399 90 -450 156 -450 c 0
 322 -450 l 0
 375 -450 420 -423 447 -395 c 0
 470 -372 498 -327 498 -275 c 0
 498 -42 l 0
EndSplineSet
Ligature2: "LigatureSubstitutionlookup169 subtable" u100B_u100C u103C
Ligature2: "LigatureSubstitutionlookup167 subtable" u100B_u100C u103C u1031
Ligature2: "LigatureSubstitutionlookup167 subtable" u100B_u100C u103C.wide u1031
Ligature2: "LigatureSubstitutionlookup167 subtable" u100B_u100C u103C_u103D.narr u1031
Ligature2: "LigatureSubstitutionlookup167 subtable" u100B_u100C u103C_u103D.wide u1031
Ligature2: "LigatureSubstitutionlookup165 subtable" u100B_u100C u103C
Ligature2: "LigatureSubstitutionlookup165 subtable" u100B_u100C u103C_u103D.narr
Ligature2: "LigatureSubstitutionlookup165 subtable" u100B_u100C u103C_u102F.narr
Ligature2: "LigatureSubstitutionlookup163 subtable" u100B_u100C u1031
Ligature2: "LigatureSubstitutionlookup163 subtable" u100B_u100C u1084
Ligature2: "LigatureSubstitutionlookup162 subtable" u100B_u100C u103D
Ligature2: "LigatureSubstitutionlookup162 subtable" u100B_u100C u103E
Ligature2: "LigatureSubstitutionlookup162 subtable" u100B_u100C u103D_u103E
Ligature2: "LigatureSubstitutionlookup162 subtable" u100B_u100C u105E
Ligature2: "LigatureSubstitutionlookup162 subtable" u100B_u100C u105F
Ligature2: "LigatureSubstitutionlookup162 subtable" u100B_u100C u1060
Ligature2: "LigatureSubstitutionlookup162 subtable" u100B_u100C u1082
Ligature2: "LigatureSubstitutionlookup158 subtable" u100B_u100C u1039
MultipleSubs2: "MultipleSubstitutionlookup139 subtable" u200C u1031 u100B_u100C
MultipleSubs2: "MultipleSubstitutionlookup137 subtable" u200C u1084 u100B_u100C
Ligature2: "LigatureSubstitutionlookup130 subtable" u1004.kinzi u200D u100B_u100C
Ligature2: "LigatureSubstitutionlookup130 subtable" u101B.kinzi u200D u100B_u100C
MultipleSubs2: "MultipleSubstitutionlookup129 subtable" u100B_u100C u101B.kinzi
MultipleSubs2: "MultipleSubstitutionlookup128 subtable" u100B_u100C u1004.kinzi
Ligature2: "LigatureSubstitutionlookup127 subtable" u1004.kinzi u200D u100B_u100C
Ligature2: "LigatureSubstitutionlookup127 subtable" u101B.kinzi u200D u100B_u100C
Ligature2: "LigatureSubstitutionlookup124 subtable" u1004.kinzi u200D u100B_u100C
Ligature2: "LigatureSubstitutionlookup124 subtable" u101B.kinzi u200D u100B_u100C
Ligature2: "sub_ligature_cligmymr_4 subtable" u100B u100C.med
EndChar

StartChar: u100C
Encoding: 4108 4108 136
Width: 568
VWidth: 0
GlyphClass: 2
Flags: W
HStem: -450 51<132.58 171 307 404.177> -296 51<130.869 223.401> -15 51<206.554 378.646> 408 51<206.554 378.804>
VStem: 55 51<136.348 307.24> 70 51<-389.581 -305.713> 462 51<-340.641 -264>
AnchorPoint: "U" 292 495 basechar 0
AnchorPoint: "BS" 657 -53 basechar 0
AnchorPoint: "BD" 657 -53 basechar 0
AnchorPoint: "L" 657 -53 basechar 0
AnchorPoint: "R" 0 0 mark 0
LayerCount: 2
Fore
SplineSet
513 121 m 0xf6
 469 147 l 0
 432 76 363 36 292 36 c 0
 190 36 106 120 106 222 c 0
 106 324 190 408 292 408 c 0
 363 408 432 367 469 297 c 0
 513 322 l 0
 475 412 381 459 292 459 c 0
 162 459 55 351 55 222 c 0xfa
 55 91 162 -15 292 -15 c 0
 351 -15 415 7 462 49 c 0
 462 -264 l 0
 462 -300 448 -339 423 -362 c 0
 389 -394 369 -399 307 -399 c 0
 171 -399 l 0
 141 -399 121 -371 121 -347 c 0
 121 -318 141 -296 181 -296 c 0
 190 -296 199 -299 210 -306 c 0
 244 -267 l 0
 229 -252 208 -245 181 -245 c 0
 111 -245 70 -297 70 -347 c 0
 70 -399 106 -450 171 -450 c 0
 337 -450 l 0
 390 -450 432 -425 462 -395 c 0
 488 -369 513 -327 513 -275 c 0
 513 121 l 0xf6
EndSplineSet
Ligature2: "LigatureSubstitutionlookup169 subtable" u100C u103C
Ligature2: "LigatureSubstitutionlookup167 subtable" u100C u103C u1031
Ligature2: "LigatureSubstitutionlookup167 subtable" u100C u103C.wide u1031
Ligature2: "LigatureSubstitutionlookup167 subtable" u100C u103C_u103D.narr u1031
Ligature2: "LigatureSubstitutionlookup167 subtable" u100C u103C_u103D.wide u1031
Ligature2: "LigatureSubstitutionlookup165 subtable" u100C u103C
Ligature2: "LigatureSubstitutionlookup165 subtable" u100C u103C_u103D.narr
Ligature2: "LigatureSubstitutionlookup165 subtable" u100C u103C_u102F.narr
Ligature2: "LigatureSubstitutionlookup163 subtable" u100C u1031
Ligature2: "LigatureSubstitutionlookup163 subtable" u100C u1084
Ligature2: "LigatureSubstitutionlookup162 subtable" u100C u103D
Ligature2: "LigatureSubstitutionlookup162 subtable" u100C u103E
Ligature2: "LigatureSubstitutionlookup162 subtable" u100C u103D_u103E
Ligature2: "LigatureSubstitutionlookup162 subtable" u100C u105E
Ligature2: "LigatureSubstitutionlookup162 subtable" u100C u105F
Ligature2: "LigatureSubstitutionlookup162 subtable" u100C u1060
Ligature2: "LigatureSubstitutionlookup162 subtable" u100C u1082
Ligature2: "LigatureSubstitutionlookup158 subtable" u100C u1039
MultipleSubs2: "MultipleSubstitutionlookup139 subtable" u200C u1031 u100C
MultipleSubs2: "MultipleSubstitutionlookup137 subtable" u200C u1084 u100C
Ligature2: "LigatureSubstitutionlookup130 subtable" u1004.kinzi u200D u100C
Ligature2: "LigatureSubstitutionlookup130 subtable" u101B.kinzi u200D u100C
MultipleSubs2: "MultipleSubstitutionlookup129 subtable" u100C u101B.kinzi
MultipleSubs2: "MultipleSubstitutionlookup128 subtable" u100C u1004.kinzi
Ligature2: "LigatureSubstitutionlookup127 subtable" u1004.kinzi u200D u100C
Ligature2: "LigatureSubstitutionlookup127 subtable" u101B.kinzi u200D u100C
Ligature2: "LigatureSubstitutionlookup124 subtable" u1004.kinzi u200D u100C
Ligature2: "LigatureSubstitutionlookup124 subtable" u101B.kinzi u200D u100C
EndChar

StartChar: u100C.med
Encoding: 65565 -1 137
Width: 811
VWidth: 0
GlyphClass: 4
Flags: W
HStem: -450 39<136.758 199> -149 39<100.854 167.799> -138 39<502.104 644.311>
VStem: 55 39<-367.503 -293 -188 -156.546> 175 39<-230.452 -156.316> 391 39<-351.91 -209.66> 717 39<-352.516 -209.66>
AnchorPoint: "BSM" 89 -53 basemark 0
AnchorPoint: "BDM" -405 -53 mark 0
AnchorPoint: "BD" -405 -53 mark 0
AnchorPoint: "LLM" -89 -53 basemark 0
AnchorPoint: "LM" 900 -53 basemark 0
AnchorPoint: "BSM" 900 -53 mark 0
AnchorPoint: "BD" 406 -53 basemark 0
LayerCount: 2
Fore
SplineSet
756 -281 m 0xbe
 756 -180 675 -99 573 -99 c 0xbe
 472 -99 391 -180 391 -281 c 0
 391 -327 406 -375 441 -411 c 0
 199 -411 l 0
 171 -411 142 -401 124 -381 c 0
 100 -354 94 -344 94 -293 c 0
 94 -188 l 0
 94 -165 117 -149 135 -149 c 0
 154 -149 175 -165 175 -195 c 0
 175 -201 174 -210 166 -218 c 0
 196 -245 l 0
 208 -233 214 -216 214 -195 c 0
 214 -141 175 -110 135 -110 c 0xde
 93 -110 55 -138 55 -188 c 0
 55 -315 l 0
 55 -361 77 -393 97 -413 c 0
 115 -431 150 -450 190 -450 c 0
 496 -450 l 0
 516 -417 l 0
 462 -389 430 -335 430 -281 c 0
 430 -201 495 -138 573 -138 c 0
 651 -138 717 -201 717 -281 c 0
 717 -335 685 -389 631 -417 c 0
 651 -450 l 0
 718 -422 756 -347 756 -281 c 0xbe
EndSplineSet
Ligature2: "LigatureSubstitutionlookup179 subtable" u100C.med u102D
Ligature2: "LigatureSubstitutionlookup179 subtable" u100C.med u102E
Ligature2: "LigatureSubstitutionlookup179 subtable" u100C.med u1032
Ligature2: "LigatureSubstitutionlookup179 subtable" u100C.med u103A
Ligature2: "LigatureSubstitutionlookup171 subtable" u100C.med u103C u1031
Ligature2: "LigatureSubstitutionlookup159 subtable" u100C.med u1031
Ligature2: "LigatureSubstitutionlookup159 subtable" u100C.med u103C
MultipleSubs2: "MultipleSubstitutionlookup138 subtable" u1039 u100C.med
Ligature2: "sub_ligature_cligmymr_0 subtable" u1039 u100C
EndChar

StartChar: u100D
Encoding: 4109 4109 138
Width: 568
VWidth: 0
GlyphClass: 2
Flags: W
HStem: -158 51<161.739 392.788> -15 51<189.198 361.446> 408 51<189.233 361.446>
VStem: 55 51<-70.3457 -60 107.647 121> 462 51<136.348 307.24>
AnchorPoint: "U" 276 495 basechar 0
AnchorPoint: "BS" 168 -173 basechar 0
AnchorPoint: "BD" 30 -173 basechar 0
AnchorPoint: "R" 0 0 mark 0
AnchorPoint: "L" 612 -53 basechar 0
AnchorPoint: "LL" 280 -51 basechar 0
LayerCount: 2
Fore
SplineSet
547 -450 m 0
 547 -399 l 0
 468 -399 l 0
 468 -51 l 0
 415 -80 352 -107 276 -107 c 0
 216 -107 160 -89 106 -60 c 0
 106 49 l 0
 153 7 216 -15 276 -15 c 0
 406 -15 513 91 513 222 c 0
 513 351 406 459 276 459 c 0
 187 459 93 412 55 322 c 0
 100 297 l 0
 136 367 205 408 276 408 c 0
 378 408 462 324 462 222 c 0
 462 120 378 36 276 36 c 0
 205 36 136 76 100 147 c 0
 55 121 l 0
 55 -89 l 0
 123 -132 196 -158 276 -158 c 0
 328 -158 370 -149 417 -131 c 0
 417 -450 l 0
 547 -450 l 0
EndSplineSet
Ligature2: "LigatureSubstitutionlookup169 subtable" u100D u103C
Ligature2: "LigatureSubstitutionlookup167 subtable" u100D u103C u1031
Ligature2: "LigatureSubstitutionlookup167 subtable" u100D u103C.wide u1031
Ligature2: "LigatureSubstitutionlookup167 subtable" u100D u103C_u103D.narr u1031
Ligature2: "LigatureSubstitutionlookup167 subtable" u100D u103C_u103D.wide u1031
Ligature2: "LigatureSubstitutionlookup165 subtable" u100D u103C
Ligature2: "LigatureSubstitutionlookup165 subtable" u100D u103C_u103D.narr
Ligature2: "LigatureSubstitutionlookup165 subtable" u100D u103C_u102F.narr
Ligature2: "LigatureSubstitutionlookup163 subtable" u100D u1031
Ligature2: "LigatureSubstitutionlookup163 subtable" u100D u1084
Ligature2: "LigatureSubstitutionlookup162 subtable" u100D u103D
Ligature2: "LigatureSubstitutionlookup162 subtable" u100D u103E
Ligature2: "LigatureSubstitutionlookup162 subtable" u100D u103D_u103E
Ligature2: "LigatureSubstitutionlookup162 subtable" u100D u105E
Ligature2: "LigatureSubstitutionlookup162 subtable" u100D u105F
Ligature2: "LigatureSubstitutionlookup162 subtable" u100D u1060
Ligature2: "LigatureSubstitutionlookup162 subtable" u100D u1082
Ligature2: "LigatureSubstitutionlookup158 subtable" u100D u1039
MultipleSubs2: "MultipleSubstitutionlookup139 subtable" u200C u1031 u100D
MultipleSubs2: "MultipleSubstitutionlookup137 subtable" u200C u1084 u100D
Ligature2: "LigatureSubstitutionlookup130 subtable" u1004.kinzi u200D u100D
Ligature2: "LigatureSubstitutionlookup130 subtable" u101B.kinzi u200D u100D
MultipleSubs2: "MultipleSubstitutionlookup129 subtable" u100D u101B.kinzi
MultipleSubs2: "MultipleSubstitutionlookup128 subtable" u100D u1004.kinzi
Ligature2: "LigatureSubstitutionlookup127 subtable" u1004.kinzi u200D u100D
Ligature2: "LigatureSubstitutionlookup127 subtable" u101B.kinzi u200D u100D
Ligature2: "LigatureSubstitutionlookup124 subtable" u1004.kinzi u200D u100D
Ligature2: "LigatureSubstitutionlookup124 subtable" u101B.kinzi u200D u100D
EndChar

StartChar: u100D.med
Encoding: 65566 -1 139
Width: 376
VWidth: 0
GlyphClass: 4
Flags: W
HStem: -395 31<98.6198 244.876> -325 32<98.5724 230.751> -209 31<66.7645 230.671>
VStem: 246 30<-276.795 -225.636>
AnchorPoint: "BSM" -204 -53 mark 0
AnchorPoint: "BS" -204 -53 mark 0
AnchorPoint: "BS" 172 -53 basemark 0
AnchorPoint: "LLM" -89 -53 basemark 0
AnchorPoint: "LM" 426 -53 basemark 0
AnchorPoint: "BSM" 426 -53 basemark 0
LayerCount: 2
Fore
SplineSet
321 -440 m 0
 321 -410 l 0
 276 -410 l 0
 276 -337 l 0
 250 -352 221 -364 173 -364 c 0
 145 -364 114 -359 98 -355 c 0
 98 -317 l 0
 115 -322 145 -325 173 -325 c 0
 210 -325 282 -306 282 -251 c 0
 282 -197 215 -178 173 -178 c 0
 121 -178 86 -184 56 -196 c 0
 69 -223 l 0
 99 -212 121 -209 173 -209 c 0
 207 -209 250 -226 250 -251 c 0
 250 -277 203 -293 173 -293 c 0
 138 -293 104 -292 69 -280 c 0
 69 -380 l 0
 92 -388 149 -395 173 -395 c 0
 212 -395 227 -391 246 -383 c 0
 246 -440 l 0
 321 -440 l 0
EndSplineSet
Ligature2: "LigatureSubstitutionlookup179 subtable" u100D.med u102D
Ligature2: "LigatureSubstitutionlookup179 subtable" u100D.med u102E
Ligature2: "LigatureSubstitutionlookup179 subtable" u100D.med u1032
Ligature2: "LigatureSubstitutionlookup179 subtable" u100D.med u103A
Ligature2: "LigatureSubstitutionlookup171 subtable" u100D.med u103C u1031
Ligature2: "LigatureSubstitutionlookup159 subtable" u100D.med u1031
Ligature2: "LigatureSubstitutionlookup159 subtable" u100D.med u103C
MultipleSubs2: "MultipleSubstitutionlookup138 subtable" u1039 u100D.med
Ligature2: "sub_ligature_cligmymr_0 subtable" u1039 u100D
EndChar

StartChar: u100D_u100D
Encoding: 65567 -1 140
Width: 568
VWidth: 0
GlyphClass: 2
Flags: W
HStem: -405 31<159.62 305.876> -335 32<159.572 291.751> -219 31<127.765 291.671> -158 51<161.739 393.922> -15 51<189.198 361.446> 408 51<189.233 361.446>
VStem: 55 51<-70.3457 -60 107.647 121> 307 30<-286.795 -235.636> 462 51<136.348 307.24>
AnchorPoint: "U" 276 495 basechar 0
AnchorPoint: "BS" 627 -53 basechar 0
AnchorPoint: "BD" 627 -53 basechar 0
AnchorPoint: "L" 627 -53 basechar 0
AnchorPoint: "R" 0 0 mark 0
LayerCount: 2
Fore
SplineSet
382 -450 m 0
 382 -420 l 0
 337 -420 l 0
 337 -347 l 0
 311 -362 282 -374 234 -374 c 0
 206 -374 175 -369 159 -365 c 0
 159 -327 l 0
 176 -332 206 -335 234 -335 c 0
 271 -335 343 -316 343 -261 c 0
 343 -207 276 -188 234 -188 c 0
 182 -188 147 -194 117 -206 c 0
 130 -233 l 0
 160 -222 182 -219 234 -219 c 0
 268 -219 311 -236 311 -261 c 0
 311 -287 264 -303 234 -303 c 0
 199 -303 165 -302 130 -290 c 0
 130 -390 l 0
 153 -398 210 -405 234 -405 c 0
 273 -405 288 -401 307 -393 c 0
 307 -450 l 0
 382 -450 l 0
565 -450 m 0
 565 -399 l 0
 483 -399 l 0
 483 -41 l 0
 420 -81 352 -107 276 -107 c 0
 216 -107 160 -89 106 -60 c 0
 106 49 l 0
 153 7 216 -15 276 -15 c 0
 406 -15 513 91 513 222 c 0
 513 351 406 459 276 459 c 0
 187 459 93 412 55 322 c 0
 100 297 l 0
 136 367 205 408 276 408 c 0
 378 408 462 324 462 222 c 0
 462 120 378 36 276 36 c 0
 205 36 136 76 100 147 c 0
 55 121 l 0
 55 -89 l 0
 123 -132 196 -158 276 -158 c 0
 328 -158 382 -147 432 -125 c 0
 432 -450 l 0
 565 -450 l 0
EndSplineSet
Ligature2: "LigatureSubstitutionlookup169 subtable" u100D_u100D u103C
Ligature2: "LigatureSubstitutionlookup167 subtable" u100D_u100D u103C u1031
Ligature2: "LigatureSubstitutionlookup167 subtable" u100D_u100D u103C.wide u1031
Ligature2: "LigatureSubstitutionlookup167 subtable" u100D_u100D u103C_u103D.narr u1031
Ligature2: "LigatureSubstitutionlookup167 subtable" u100D_u100D u103C_u103D.wide u1031
Ligature2: "LigatureSubstitutionlookup165 subtable" u100D_u100D u103C
Ligature2: "LigatureSubstitutionlookup165 subtable" u100D_u100D u103C_u103D.narr
Ligature2: "LigatureSubstitutionlookup165 subtable" u100D_u100D u103C_u102F.narr
Ligature2: "LigatureSubstitutionlookup163 subtable" u100D_u100D u1031
Ligature2: "LigatureSubstitutionlookup163 subtable" u100D_u100D u1084
Ligature2: "LigatureSubstitutionlookup162 subtable" u100D_u100D u103D
Ligature2: "LigatureSubstitutionlookup162 subtable" u100D_u100D u103E
Ligature2: "LigatureSubstitutionlookup162 subtable" u100D_u100D u103D_u103E
Ligature2: "LigatureSubstitutionlookup162 subtable" u100D_u100D u105E
Ligature2: "LigatureSubstitutionlookup162 subtable" u100D_u100D u105F
Ligature2: "LigatureSubstitutionlookup162 subtable" u100D_u100D u1060
Ligature2: "LigatureSubstitutionlookup162 subtable" u100D_u100D u1082
Ligature2: "LigatureSubstitutionlookup158 subtable" u100D_u100D u1039
MultipleSubs2: "MultipleSubstitutionlookup139 subtable" u200C u1031 u100D_u100D
MultipleSubs2: "MultipleSubstitutionlookup137 subtable" u200C u1084 u100D_u100D
Ligature2: "LigatureSubstitutionlookup130 subtable" u1004.kinzi u200D u100D_u100D
Ligature2: "LigatureSubstitutionlookup130 subtable" u101B.kinzi u200D u100D_u100D
MultipleSubs2: "MultipleSubstitutionlookup129 subtable" u100D_u100D u101B.kinzi
MultipleSubs2: "MultipleSubstitutionlookup128 subtable" u100D_u100D u1004.kinzi
Ligature2: "LigatureSubstitutionlookup127 subtable" u1004.kinzi u200D u100D_u100D
Ligature2: "LigatureSubstitutionlookup127 subtable" u101B.kinzi u200D u100D_u100D
Ligature2: "LigatureSubstitutionlookup124 subtable" u1004.kinzi u200D u100D_u100D
Ligature2: "LigatureSubstitutionlookup124 subtable" u101B.kinzi u200D u100D_u100D
Ligature2: "sub_ligature_cligmymr_4 subtable" u100D u100D.med
EndChar

StartChar: u100D_u100E
Encoding: 65568 -1 141
Width: 577
VWidth: 0
GlyphClass: 2
Flags: W
HStem: -14 51<188.412 259 310 373.125> 108 40<298 330.193> 232 45<232.564 330.828> 405 51<91.9785 174.642>
VStem: 55 51<110.681 227.365> 178 51<326.25 402.665> 259 51<-14 -11.7697 37 107.383> 339 45<157.752 221.046> 471 51<141.208 340.247>
AnchorPoint: "U" 285 495 basechar 0
AnchorPoint: "BS" 528 -53 basechar 0
AnchorPoint: "BD" 528 -53 basechar 0
AnchorPoint: "L" 468 -53 basechar 0
AnchorPoint: "R" 0 0 mark 0
AnchorPoint: "LL" 115 -53 basechar 0
LayerCount: 2
Fore
SplineSet
522 240 m 0
 522 349 483 411 424 457 c 0
 394 414 l 0
 441 372 471 316 471 240 c 0
 471 127 400 49 310 37 c 0
 309 72 305 95 298 108 c 0
 318 108 384 124 384 190 c 0
 384 250 327 277 276 277 c 0
 259 277 244 274 232 267 c 0
 232 226 l 0
 244 231 258 232 271 232 c 0
 307 232 339 217 339 190 c 0
 339 163 309 148 274 148 c 0
 261 148 244 151 232 156 c 0
 232 112 l 0
 248 106 258 84 259 37 c 0
 147 49 106 132 106 168 c 0
 106 262 229 277 229 361 c 0
 229 414 201 456 142 456 c 0
 97 456 58 423 55 402 c 0
 99 375 l 0
 100 379 118 405 142 405 c 0
 172 405 178 384 178 361 c 0
 178 316 55 286 55 168 c 0
 55 94 133 -2 259 -14 c 0
 259 -450 l 0
 393 -450 l 0
 393 -399 l 0
 310 -399 l 0
 310 -14 l 0
 430 -2 522 96 522 240 c 0
EndSplineSet
Ligature2: "LigatureSubstitutionlookup169 subtable" u100D_u100E u103C
Ligature2: "LigatureSubstitutionlookup167 subtable" u100D_u100E u103C u1031
Ligature2: "LigatureSubstitutionlookup167 subtable" u100D_u100E u103C.wide u1031
Ligature2: "LigatureSubstitutionlookup167 subtable" u100D_u100E u103C_u103D.narr u1031
Ligature2: "LigatureSubstitutionlookup167 subtable" u100D_u100E u103C_u103D.wide u1031
Ligature2: "LigatureSubstitutionlookup165 subtable" u100D_u100E u103C
Ligature2: "LigatureSubstitutionlookup165 subtable" u100D_u100E u103C_u103D.narr
Ligature2: "LigatureSubstitutionlookup165 subtable" u100D_u100E u103C_u102F.narr
Ligature2: "LigatureSubstitutionlookup163 subtable" u100D_u100E u1031
Ligature2: "LigatureSubstitutionlookup163 subtable" u100D_u100E u1084
Ligature2: "LigatureSubstitutionlookup162 subtable" u100D_u100E u103D
Ligature2: "LigatureSubstitutionlookup162 subtable" u100D_u100E u103E
Ligature2: "LigatureSubstitutionlookup162 subtable" u100D_u100E u103D_u103E
Ligature2: "LigatureSubstitutionlookup162 subtable" u100D_u100E u105E
Ligature2: "LigatureSubstitutionlookup162 subtable" u100D_u100E u105F
Ligature2: "LigatureSubstitutionlookup162 subtable" u100D_u100E u1060
Ligature2: "LigatureSubstitutionlookup162 subtable" u100D_u100E u1082
Ligature2: "LigatureSubstitutionlookup158 subtable" u100D_u100E u1039
MultipleSubs2: "MultipleSubstitutionlookup139 subtable" u200C u1031 u100D_u100E
MultipleSubs2: "MultipleSubstitutionlookup137 subtable" u200C u1084 u100D_u100E
Ligature2: "LigatureSubstitutionlookup130 subtable" u1004.kinzi u200D u100D_u100E
Ligature2: "LigatureSubstitutionlookup130 subtable" u101B.kinzi u200D u100D_u100E
MultipleSubs2: "MultipleSubstitutionlookup129 subtable" u100D_u100E u101B.kinzi
MultipleSubs2: "MultipleSubstitutionlookup128 subtable" u100D_u100E u1004.kinzi
Ligature2: "LigatureSubstitutionlookup127 subtable" u1004.kinzi u200D u100D_u100E
Ligature2: "LigatureSubstitutionlookup127 subtable" u101B.kinzi u200D u100D_u100E
Ligature2: "LigatureSubstitutionlookup124 subtable" u1004.kinzi u200D u100D_u100E
Ligature2: "LigatureSubstitutionlookup124 subtable" u101B.kinzi u200D u100D_u100E
Ligature2: "sub_ligature_cligmymr_4 subtable" u100D u100E.med
EndChar

StartChar: u100E
Encoding: 4110 4110 142
Width: 577
VWidth: 0
GlyphClass: 2
Flags: W
HStem: -15 51<194.582 368.145> 405 51<92.7821 183.122>
VStem: 55 51<117.975 217.926> 195 51<307.438 393.012> 471 51<142.691 340.247>
AnchorPoint: "U" 285 495 basechar 0
AnchorPoint: "BS" 285 -53 basechar 0
AnchorPoint: "BD" 285 -53 basechar 0
AnchorPoint: "L" 285 -53 basechar 0
AnchorPoint: "R" 0 0 mark 0
LayerCount: 2
Fore
SplineSet
522 240 m 0
 522 349 483 411 424 457 c 0
 394 414 l 0
 441 372 471 316 471 240 c 0
 471 120 387 36 285 36 c 0
 156 36 106 144 106 168 c 0
 106 255 246 243 246 339 c 0
 246 415 196 456 142 456 c 0
 97 456 57 418 55 402 c 0
 99 375 l 0
 100 382 118 405 142 405 c 0
 166 405 195 388 195 339 c 0
 195 285 55 294 55 168 c 0
 55 88 144 -15 285 -15 c 0
 417 -15 522 87 522 240 c 0
EndSplineSet
Position2: "SinglePositioninglookup48 per glyph data 0" dx=100 dy=0 dh=50 dv=0
Position2: "SinglePositioninglookup30 subtable" dx=140 dy=0 dh=140 dv=0
PairPos2: "PairwisePositioningkerninglooku subtable" u1000.med dx=0 dy=0 dh=90 dv=0 dx=0 dy=0 dh=90 dv=0
PairPos2: "PairwisePositioningkerninglooku subtable" u1003.med dx=0 dy=0 dh=90 dv=0 dx=0 dy=0 dh=90 dv=0
PairPos2: "PairwisePositioningkerninglooku subtable" u1006.med dx=0 dy=0 dh=90 dv=0 dx=0 dy=0 dh=90 dv=0
PairPos2: "PairwisePositioningkerninglooku subtable" u100A.med dx=0 dy=0 dh=90 dv=0 dx=0 dy=0 dh=90 dv=0
PairPos2: "PairwisePositioningkerninglooku subtable" u100C.med dx=0 dy=0 dh=90 dv=0 dx=0 dy=0 dh=90 dv=0
PairPos2: "PairwisePositioningkerninglooku subtable" u100F.med dx=0 dy=0 dh=90 dv=0 dx=0 dy=0 dh=90 dv=0
PairPos2: "PairwisePositioningkerninglooku subtable" u1010.med dx=0 dy=0 dh=90 dv=0 dx=0 dy=0 dh=90 dv=0
PairPos2: "PairwisePositioningkerninglooku subtable" u1011.med dx=0 dy=0 dh=90 dv=0 dx=0 dy=0 dh=90 dv=0
PairPos2: "PairwisePositioningkerninglooku subtable" u1018.med dx=0 dy=0 dh=90 dv=0 dx=0 dy=0 dh=90 dv=0
PairPos2: "PairwisePositioningkerninglooku subtable" u101A.med dx=0 dy=0 dh=90 dv=0 dx=0 dy=0 dh=90 dv=0
PairPos2: "PairwisePositioningkerninglooku subtable" u101C.med dx=0 dy=0 dh=90 dv=0 dx=0 dy=0 dh=90 dv=0
PairPos2: "PairwisePositioningkerninglooku subtable" u101C.med_u103D dx=0 dy=0 dh=90 dv=0 dx=0 dy=0 dh=90 dv=0
PairPos2: "PairwisePositioningkerninglooku subtable" u101E.med dx=0 dy=0 dh=90 dv=0 dx=0 dy=0 dh=90 dv=0
PairPos2: "PairwisePositioningkerninglooku subtable" u1021.med dx=0 dy=0 dh=90 dv=0 dx=0 dy=0 dh=90 dv=0
PairPos2: "PairwisePositioningkerninglooku subtable" uAA60.med dx=0 dy=0 dh=90 dv=0 dx=0 dy=0 dh=90 dv=0
PairPos2: "PairwisePositioningkerninglooku subtable" uAA60.med.kham dx=0 dy=0 dh=90 dv=0 dx=0 dy=0 dh=90 dv=0
Ligature2: "LigatureSubstitutionlookup169 subtable" u100E u103C
Ligature2: "LigatureSubstitutionlookup167 subtable" u100E u103C u1031
Ligature2: "LigatureSubstitutionlookup167 subtable" u100E u103C.wide u1031
Ligature2: "LigatureSubstitutionlookup167 subtable" u100E u103C_u103D.narr u1031
Ligature2: "LigatureSubstitutionlookup167 subtable" u100E u103C_u103D.wide u1031
Ligature2: "LigatureSubstitutionlookup165 subtable" u100E u103C
Ligature2: "LigatureSubstitutionlookup165 subtable" u100E u103C_u103D.narr
Ligature2: "LigatureSubstitutionlookup165 subtable" u100E u103C_u102F.narr
Ligature2: "LigatureSubstitutionlookup163 subtable" u100E u1031
Ligature2: "LigatureSubstitutionlookup163 subtable" u100E u1084
Ligature2: "LigatureSubstitutionlookup162 subtable" u100E u103D
Ligature2: "LigatureSubstitutionlookup162 subtable" u100E u103E
Ligature2: "LigatureSubstitutionlookup162 subtable" u100E u103D_u103E
Ligature2: "LigatureSubstitutionlookup162 subtable" u100E u105E
Ligature2: "LigatureSubstitutionlookup162 subtable" u100E u105F
Ligature2: "LigatureSubstitutionlookup162 subtable" u100E u1060
Ligature2: "LigatureSubstitutionlookup162 subtable" u100E u1082
Ligature2: "LigatureSubstitutionlookup158 subtable" u100E u1039
MultipleSubs2: "MultipleSubstitutionlookup139 subtable" u200C u1031 u100E
MultipleSubs2: "MultipleSubstitutionlookup137 subtable" u200C u1084 u100E
MultipleSubs2: "MultipleSubstitutionlookup136 subtable" u200C u103C_u103D.narr u100E
MultipleSubs2: "MultipleSubstitutionlookup135 subtable" u200C u103C_u102F.narr u100E
MultipleSubs2: "MultipleSubstitutionlookup134 subtable" u200C u103C u100E
Ligature2: "LigatureSubstitutionlookup130 subtable" u1004.kinzi u200D u100E
Ligature2: "LigatureSubstitutionlookup130 subtable" u101B.kinzi u200D u100E
MultipleSubs2: "MultipleSubstitutionlookup129 subtable" u100E u101B.kinzi
MultipleSubs2: "MultipleSubstitutionlookup128 subtable" u100E u1004.kinzi
Ligature2: "LigatureSubstitutionlookup127 subtable" u1004.kinzi u200D u100E
Ligature2: "LigatureSubstitutionlookup127 subtable" u101B.kinzi u200D u100E
Ligature2: "LigatureSubstitutionlookup124 subtable" u1004.kinzi u200D u100E
Ligature2: "LigatureSubstitutionlookup124 subtable" u101B.kinzi u200D u100E
EndChar

StartChar: u100E.med
Encoding: 65569 -1 143
Width: 470
VWidth: 0
GlyphClass: 4
Flags: W
HStem: -450 40<155.218 302.733> -126 39<80.3687 155.865>
VStem: 55 39<-351.11 -267.858 -133.242 -127.208> 163 39<-202.033 -131.762> 374 40<-333.227 -166.835>
AnchorPoint: "BSM" -238 -53 mark 0
AnchorPoint: "BS" -238 -53 mark 0
AnchorPoint: "BS" 232 -53 basemark 0
AnchorPoint: "LLM" -89 -53 basemark 0
AnchorPoint: "LM" 565 -53 basemark 0
AnchorPoint: "BSM" 565 -53 basemark 0
LayerCount: 2
Fore
SplineSet
414 -254 m 0
 414 -170 386 -128 340 -86 c 0
 316 -119 l 0
 351 -153 374 -188 374 -254 c 0
 374 -329 326 -410 232 -410 c 0
 132 -410 94 -329 94 -309 c 0
 94 -240 202 -252 202 -177 c 0
 202 -118 166 -87 123 -87 c 0
 91 -87 58 -110 55 -129 c 0
 88 -149 l 0
 91 -138 103 -126 123 -126 c 0
 142 -126 163 -137 163 -177 c 0
 163 -218 55 -213 55 -309 c 0
 55 -369 124 -450 232 -450 c 0
 312 -450 414 -392 414 -254 c 0
EndSplineSet
Ligature2: "LigatureSubstitutionlookup179 subtable" u100E.med u102D
Ligature2: "LigatureSubstitutionlookup179 subtable" u100E.med u102E
Ligature2: "LigatureSubstitutionlookup179 subtable" u100E.med u1032
Ligature2: "LigatureSubstitutionlookup179 subtable" u100E.med u103A
Ligature2: "LigatureSubstitutionlookup171 subtable" u100E.med u103C u1031
Ligature2: "LigatureSubstitutionlookup159 subtable" u100E.med u1031
Ligature2: "LigatureSubstitutionlookup159 subtable" u100E.med u103C
MultipleSubs2: "MultipleSubstitutionlookup138 subtable" u1039 u100E.med
Ligature2: "sub_ligature_cligmymr_0 subtable" u1039 u100E
EndChar

StartChar: u100F
Encoding: 4111 4111 144
Width: 1032
VWidth: 0
GlyphClass: 2
Flags: W
HStem: -15 51<181.566 300.823 466.286 562.256 732.141 849.846> 408 51<194.296 349.723 438.101 594.077 682.128 837.136>
VStem: 55 51<118.764 313.857> 400 51<50.3311 192.766> 424 51<123.961 325.218> 558 51<101.986 326.426> 580 51<54.3632 219.876> 925 51<118.764 313.857>
AnchorPoint: "U" 759 495 basechar 0
AnchorPoint: "BS" 759 -53 basechar 0
AnchorPoint: "BD" 516 -53 basechar 0
AnchorPoint: "L" 759 -53 basechar 0
AnchorPoint: "R" 0 0 mark 0
LayerCount: 2
Fore
SplineSet
603 381 m 0xe9
 573 337 558 282 558 222 c 0xed
 558 190 580 138 580 100 c 0
 580 58 540 36 516 36 c 0
 481 36 451 58 451 100 c 0xf3
 451 123 475 190 475 222 c 0
 475 282 459 337 429 381 c 0
 451 396 483 408 516 408 c 0
 550 408 580 396 603 381 c 0xe9
976 222 m 0
 976 351 886 459 759 459 c 0
 712 459 673 444 640 420 c 0
 613 445 576 459 516 459 c 0
 454 459 418 445 391 420 c 0
 360 444 319 459 273 459 c 0
 144 459 55 351 55 222 c 0
 55 91 130 -15 258 -15 c 0
 276 -15 298 -11 313 0 c 0
 295 45 l 0
 286 39 276 36 258 36 c 0
 157 36 106 120 106 222 c 0
 106 324 174 408 273 408 c 0
 373 408 424 324 424 222 c 0xed
 424 163 400 147 400 100 c 0
 400 37 450 -15 516 -15 c 0
 588 -15 631 37 631 100 c 0xf3
 631 147 609 163 609 222 c 0
 609 324 658 408 759 408 c 0
 858 408 925 324 925 222 c 0
 925 120 874 36 774 36 c 0
 762 36 750 39 739 45 c 0
 718 0 l 0
 733 -11 756 -15 774 -15 c 0
 901 -15 976 91 976 222 c 0
EndSplineSet
Ligature2: "LigatureSubstitutionlookup169 subtable" u100F u103C
Ligature2: "LigatureSubstitutionlookup167 subtable" u100F u103C u1031
Ligature2: "LigatureSubstitutionlookup167 subtable" u100F u103C.wide u1031
Ligature2: "LigatureSubstitutionlookup167 subtable" u100F u103C_u103D.narr u1031
Ligature2: "LigatureSubstitutionlookup167 subtable" u100F u103C_u103D.wide u1031
Ligature2: "LigatureSubstitutionlookup165 subtable" u100F u103C
Ligature2: "LigatureSubstitutionlookup165 subtable" u100F u103C_u103D.narr
Ligature2: "LigatureSubstitutionlookup165 subtable" u100F u103C_u102F.narr
Ligature2: "LigatureSubstitutionlookup163 subtable" u100F u1031
Ligature2: "LigatureSubstitutionlookup163 subtable" u100F u1084
Ligature2: "LigatureSubstitutionlookup162 subtable" u100F u103D
Ligature2: "LigatureSubstitutionlookup162 subtable" u100F u103E
Ligature2: "LigatureSubstitutionlookup162 subtable" u100F u103D_u103E
Ligature2: "LigatureSubstitutionlookup162 subtable" u100F u105E
Ligature2: "LigatureSubstitutionlookup162 subtable" u100F u105F
Ligature2: "LigatureSubstitutionlookup162 subtable" u100F u1060
Ligature2: "LigatureSubstitutionlookup162 subtable" u100F u1082
Ligature2: "LigatureSubstitutionlookup158 subtable" u100F u1039
MultipleSubs2: "MultipleSubstitutionlookup139 subtable" u200C u1031 u100F
MultipleSubs2: "MultipleSubstitutionlookup137 subtable" u200C u1084 u100F
MultipleSubs2: "MultipleSubstitutionlookup136 subtable" u200C u103C_u103D.wide u100F
MultipleSubs2: "MultipleSubstitutionlookup135 subtable" u200C u103C_u102F.wide u100F
MultipleSubs2: "MultipleSubstitutionlookup134 subtable" u200C u103C.wide u100F
Ligature2: "LigatureSubstitutionlookup130 subtable" u1004.kinzi u200D u100F
Ligature2: "LigatureSubstitutionlookup130 subtable" u101B.kinzi u200D u100F
MultipleSubs2: "MultipleSubstitutionlookup129 subtable" u100F u101B.kinzi
MultipleSubs2: "MultipleSubstitutionlookup128 subtable" u100F u1004.kinzi
Ligature2: "LigatureSubstitutionlookup127 subtable" u1004.kinzi u200D u100F
Ligature2: "LigatureSubstitutionlookup127 subtable" u101B.kinzi u200D u100F
Ligature2: "LigatureSubstitutionlookup124 subtable" u1004.kinzi u200D u100F
Ligature2: "LigatureSubstitutionlookup124 subtable" u101B.kinzi u200D u100F
EndChar

StartChar: u100F.med
Encoding: 65570 -1 145
Width: 819
VWidth: 0
GlyphClass: 4
Flags: W
HStem: -450 40<148.517 243.938 368.124 448.901 574.536 671.092> -125 41<154.168 287.126 343.432 475.634 532.608 664.416>
VStem: 55 39<-350.039 -190.97> 321 39<-402.191 -268.616> 339 39<-358.776 -182.387> 441 39<-358.459 -183.768> 459 39<-398.936 -268.656> 724 39<-351.43 -190.97>
AnchorPoint: "BSM" 88 -53 basemark 0
AnchorPoint: "BDM" -410 -53 mark 0
AnchorPoint: "BD" -410 -53 mark 0
AnchorPoint: "LLM" -89 -53 basemark 0
AnchorPoint: "LM" 907 -53 basemark 0
AnchorPoint: "BSM" 907 -53 mark 0
AnchorPoint: "BD" 409 -53 basemark 0
LayerCount: 2
Fore
SplineSet
477 -146 m 0xe9
 453 -179 441 -219 441 -267 c 0xed
 441 -293 459 -330 459 -360 c 0
 459 -395 429 -410 409 -410 c 0
 381 -410 360 -395 360 -360 c 0xf3
 360 -344 378 -291 378 -267 c 0
 378 -219 366 -179 342 -146 c 0
 360 -134 381 -125 409 -125 c 0
 438 -125 459 -134 477 -146 c 0xe9
763 -267 m 0
 763 -165 697 -84 597 -84 c 0
 561 -84 531 -95 505 -114 c 0
 486 -95 453 -84 409 -84 c 0
 363 -84 336 -95 313 -114 c 0
 288 -95 258 -84 222 -84 c 0
 121 -84 55 -165 55 -267 c 0
 55 -369 114 -450 211 -450 c 0
 228 -450 246 -446 255 -440 c 0
 238 -404 l 0
 232 -407 221 -410 211 -410 c 0
 135 -410 94 -345 94 -267 c 0
 94 -189 144 -125 222 -125 c 0
 300 -125 339 -189 339 -267 c 0xed
 339 -312 321 -324 321 -360 c 0
 321 -408 360 -450 409 -450 c 0
 465 -450 498 -408 498 -360 c 0xf3
 498 -324 480 -312 480 -267 c 0
 480 -189 520 -125 597 -125 c 0
 675 -125 724 -189 724 -267 c 0
 724 -345 685 -410 609 -410 c 0
 597 -410 588 -407 580 -404 c 0
 564 -440 l 0
 571 -444 585 -450 609 -450 c 0
 706 -450 763 -369 763 -267 c 0
EndSplineSet
Ligature2: "LigatureSubstitutionlookup179 subtable" u100F.med u102D
Ligature2: "LigatureSubstitutionlookup179 subtable" u100F.med u102E
Ligature2: "LigatureSubstitutionlookup179 subtable" u100F.med u1032
Ligature2: "LigatureSubstitutionlookup179 subtable" u100F.med u103A
Ligature2: "LigatureSubstitutionlookup171 subtable" u100F.med u103C u1031
Ligature2: "LigatureSubstitutionlookup159 subtable" u100F.med u1031
Ligature2: "LigatureSubstitutionlookup159 subtable" u100F.med u103C
MultipleSubs2: "MultipleSubstitutionlookup138 subtable" u1039 u100F.med
Ligature2: "sub_ligature_cligmymr_0 subtable" u1039 u100F
EndChar

StartChar: u100F_u100B
Encoding: 65571 -1 146
Width: 1032
VWidth: 0
GlyphClass: 2
Flags: W
HStem: -345 40<594.389 773.007> -128 41<592.937 796.221> -15 51<181.566 300.823 466.286 562.256 732.141 849.846> 408 51<194.296 349.723 438.101 594.077 682.128 837.136>
VStem: 55 51<118.764 313.857> 400 51<50.3311 192.766> 424 51<123.961 325.218> 513 43<-271.86 -160.862> 558 51<101.986 326.426> 580 51<54.3632 219.876> 925 51<118.764 313.857>
AnchorPoint: "U" 759 495 basechar 0
AnchorPoint: "BS" 1027 -53 basechar 0
AnchorPoint: "BD" 1027 -53 basechar 0
AnchorPoint: "L" 932 -53 basechar 0
AnchorPoint: "R" 0 0 mark 0
AnchorPoint: "LL" 372 -53 basechar 0
LayerCount: 2
Fore
SplineSet
603 381 m 0xfb20
 573 337 558 282 558 222 c 0xfba0
 558 190 580 138 580 100 c 0
 580 58 540 36 516 36 c 0
 481 36 451 58 451 100 c 0xfd60
 451 123 475 190 475 222 c 0
 475 282 459 337 429 381 c 0
 451 396 483 408 516 408 c 0
 550 408 580 396 603 381 c 0xfb20
976 222 m 0
 976 351 886 459 759 459 c 0
 712 459 673 444 640 420 c 0
 613 445 576 459 516 459 c 0
 454 459 418 445 391 420 c 0
 360 444 319 459 273 459 c 0
 144 459 55 351 55 222 c 0
 55 91 130 -15 258 -15 c 0
 276 -15 298 -11 313 0 c 0
 295 45 l 0
 286 39 276 36 258 36 c 0
 157 36 106 120 106 222 c 0
 106 324 174 408 273 408 c 0
 373 408 424 324 424 222 c 0xfba0
 424 163 400 147 400 100 c 0
 400 37 450 -15 516 -15 c 0
 588 -15 631 37 631 100 c 0xfd60
 631 147 609 163 609 222 c 0
 609 324 658 408 759 408 c 0
 858 408 925 324 925 222 c 0
 925 120 874 36 774 36 c 0
 762 36 750 39 739 45 c 0
 718 0 l 0
 733 -11 756 -15 774 -15 c 0
 901 -15 976 91 976 222 c 0
879 -450 m 0
 879 -410 l 0
 813 -410 l 0
 813 -285 l 0
 781 -294 727 -305 681 -305 c 0
 610 -305 556 -281 556 -216 c 0
 556 -150 615 -128 681 -128 c 0
 728 -128 771 -139 811 -153 c 0
 819 -113 l 0
 771 -97 724 -87 681 -87 c 0
 592 -87 513 -119 513 -215 c 0
 513 -315 598 -345 681 -345 c 0
 716 -345 744 -341 774 -333 c 0
 774 -450 l 0
 879 -450 l 0
EndSplineSet
Ligature2: "LigatureSubstitutionlookup169 subtable" u100F_u100B u103C
Ligature2: "LigatureSubstitutionlookup167 subtable" u100F_u100B u103C u1031
Ligature2: "LigatureSubstitutionlookup167 subtable" u100F_u100B u103C.wide u1031
Ligature2: "LigatureSubstitutionlookup167 subtable" u100F_u100B u103C_u103D.narr u1031
Ligature2: "LigatureSubstitutionlookup167 subtable" u100F_u100B u103C_u103D.wide u1031
Ligature2: "LigatureSubstitutionlookup165 subtable" u100F_u100B u103C
Ligature2: "LigatureSubstitutionlookup165 subtable" u100F_u100B u103C_u103D.narr
Ligature2: "LigatureSubstitutionlookup165 subtable" u100F_u100B u103C_u102F.narr
Ligature2: "LigatureSubstitutionlookup163 subtable" u100F_u100B u1031
Ligature2: "LigatureSubstitutionlookup163 subtable" u100F_u100B u1084
Ligature2: "LigatureSubstitutionlookup162 subtable" u100F_u100B u103D
Ligature2: "LigatureSubstitutionlookup162 subtable" u100F_u100B u103E
Ligature2: "LigatureSubstitutionlookup162 subtable" u100F_u100B u103D_u103E
Ligature2: "LigatureSubstitutionlookup162 subtable" u100F_u100B u105E
Ligature2: "LigatureSubstitutionlookup162 subtable" u100F_u100B u105F
Ligature2: "LigatureSubstitutionlookup162 subtable" u100F_u100B u1060
Ligature2: "LigatureSubstitutionlookup162 subtable" u100F_u100B u1082
Ligature2: "LigatureSubstitutionlookup158 subtable" u100F_u100B u1039
MultipleSubs2: "MultipleSubstitutionlookup139 subtable" u200C u1031 u100F_u100B
MultipleSubs2: "MultipleSubstitutionlookup137 subtable" u200C u1084 u100F_u100B
Ligature2: "LigatureSubstitutionlookup130 subtable" u1004.kinzi u200D u100F_u100B
Ligature2: "LigatureSubstitutionlookup130 subtable" u101B.kinzi u200D u100F_u100B
MultipleSubs2: "MultipleSubstitutionlookup129 subtable" u100F_u100B u101B.kinzi
MultipleSubs2: "MultipleSubstitutionlookup128 subtable" u100F_u100B u1004.kinzi
Ligature2: "LigatureSubstitutionlookup127 subtable" u1004.kinzi u200D u100F_u100B
Ligature2: "LigatureSubstitutionlookup127 subtable" u101B.kinzi u200D u100F_u100B
Ligature2: "LigatureSubstitutionlookup124 subtable" u1004.kinzi u200D u100F_u100B
Ligature2: "LigatureSubstitutionlookup124 subtable" u101B.kinzi u200D u100F_u100B
Ligature2: "sub_ligature_cligmymr_4 subtable" u100F u100B.med
EndChar

StartChar: u100F_u100D
Encoding: 65572 -1 147
Width: 1032
VWidth: 0
GlyphClass: 2
Flags: W
HStem: -450 39<573 582.704> -137 39<284.297 426.756> -15 51<181.566 300.823 466.286 562.256 732.141 849.846> 408 51<194.296 349.723 438.101 594.077 682.128 837.136>
VStem: 55 51<118.764 313.857> 174 39<-352.179 -209.244> 400 51<50.3311 192.766> 424 51<123.961 325.218> 499 39<-351.573 -209.244> 558 51<101.986 326.426> 580 51<54.3632 219.876> 609 39<-375.24 -181.36> 925 51<118.764 313.857>
AnchorPoint: "U" 759 495 basechar 0
AnchorPoint: "BS" -30 -53 basechar 0
AnchorPoint: "BD" -30 -53 basechar 0
AnchorPoint: "L" 965 -53 basechar 0
AnchorPoint: "R" 0 0 mark 0
AnchorPoint: "LL" 30 -53 basechar 0
LayerCount: 2
Fore
SplineSet
603 381 m 0xfd88
 573 337 558 282 558 222 c 0xfdc8
 558 190 580 138 580 100 c 0
 580 58 540 36 516 36 c 0
 481 36 451 58 451 100 c 0xfea8
 451 123 475 190 475 222 c 0
 475 282 459 337 429 381 c 0
 451 396 483 408 516 408 c 0
 550 408 580 396 603 381 c 0xfd88
976 222 m 0
 976 351 886 459 759 459 c 0
 712 459 673 444 640 420 c 0
 613 445 576 459 516 459 c 0
 454 459 418 445 391 420 c 0
 360 444 319 459 273 459 c 0
 144 459 55 351 55 222 c 0
 55 91 130 -15 258 -15 c 0
 276 -15 298 -11 313 0 c 0
 295 45 l 0
 286 39 276 36 258 36 c 0
 157 36 106 120 106 222 c 0
 106 324 174 408 273 408 c 0
 373 408 424 324 424 222 c 0xfdc8
 424 163 400 147 400 100 c 0
 400 37 450 -15 516 -15 c 0
 588 -15 631 37 631 100 c 0xfea8
 631 147 609 163 609 222 c 0
 609 324 658 408 759 408 c 0
 858 408 925 324 925 222 c 0
 925 120 874 36 774 36 c 0
 762 36 750 39 739 45 c 0
 718 0 l 0
 733 -11 756 -15 774 -15 c 0
 901 -15 976 91 976 222 c 0
873 -171 m 0
 873 -77 l 0
 834 -77 l 0
 834 -132 l 0
 565 -132 l 0
 595 -182 609 -227 609 -281 c 0
 609 -327 595 -371 573 -411 c 0
 489 -411 l 0
 523 -375 538 -327 538 -281 c 0
 538 -179 457 -98 355 -98 c 0
 255 -98 174 -179 174 -281 c 0
 174 -347 208 -422 279 -450 c 0
 298 -417 l 0
 244 -387 213 -335 213 -281 c 0
 213 -201 276 -137 355 -137 c 0
 435 -137 499 -201 499 -281 c 0
 499 -335 468 -387 414 -417 c 0
 433 -450 l 0
 595 -450 l 0
 628 -398 648 -342 648 -281 c 0xfc98
 648 -240 642 -204 628 -171 c 0
 873 -171 l 0
EndSplineSet
Ligature2: "LigatureSubstitutionlookup169 subtable" u100F_u100D u103C
Ligature2: "LigatureSubstitutionlookup167 subtable" u100F_u100D u103C u1031
Ligature2: "LigatureSubstitutionlookup167 subtable" u100F_u100D u103C.wide u1031
Ligature2: "LigatureSubstitutionlookup167 subtable" u100F_u100D u103C_u103D.narr u1031
Ligature2: "LigatureSubstitutionlookup167 subtable" u100F_u100D u103C_u103D.wide u1031
Ligature2: "LigatureSubstitutionlookup165 subtable" u100F_u100D u103C
Ligature2: "LigatureSubstitutionlookup165 subtable" u100F_u100D u103C_u103D.narr
Ligature2: "LigatureSubstitutionlookup165 subtable" u100F_u100D u103C_u102F.narr
Ligature2: "LigatureSubstitutionlookup163 subtable" u100F_u100D u1031
Ligature2: "LigatureSubstitutionlookup163 subtable" u100F_u100D u1084
Ligature2: "LigatureSubstitutionlookup162 subtable" u100F_u100D u103D
Ligature2: "LigatureSubstitutionlookup162 subtable" u100F_u100D u103E
Ligature2: "LigatureSubstitutionlookup162 subtable" u100F_u100D u103D_u103E
Ligature2: "LigatureSubstitutionlookup162 subtable" u100F_u100D u105E
Ligature2: "LigatureSubstitutionlookup162 subtable" u100F_u100D u105F
Ligature2: "LigatureSubstitutionlookup162 subtable" u100F_u100D u1060
Ligature2: "LigatureSubstitutionlookup162 subtable" u100F_u100D u1082
Ligature2: "LigatureSubstitutionlookup158 subtable" u100F_u100D u1039
MultipleSubs2: "MultipleSubstitutionlookup139 subtable" u200C u1031 u100F_u100D
MultipleSubs2: "MultipleSubstitutionlookup137 subtable" u200C u1084 u100F_u100D
Ligature2: "LigatureSubstitutionlookup130 subtable" u1004.kinzi u200D u100F_u100D
Ligature2: "LigatureSubstitutionlookup130 subtable" u101B.kinzi u200D u100F_u100D
MultipleSubs2: "MultipleSubstitutionlookup129 subtable" u100F_u100D u101B.kinzi
MultipleSubs2: "MultipleSubstitutionlookup128 subtable" u100F_u100D u1004.kinzi
Ligature2: "LigatureSubstitutionlookup127 subtable" u1004.kinzi u200D u100F_u100D
Ligature2: "LigatureSubstitutionlookup127 subtable" u101B.kinzi u200D u100F_u100D
Ligature2: "LigatureSubstitutionlookup124 subtable" u1004.kinzi u200D u100F_u100D
Ligature2: "LigatureSubstitutionlookup124 subtable" u101B.kinzi u200D u100F_u100D
Ligature2: "sub_ligature_cligmymr_4 subtable" u100F u100D.med
EndChar

StartChar: u1010
Encoding: 4112 4112 148
Width: 997
VWidth: 0
GlyphClass: 2
Flags: W
HStem: -15 51<203.147 372.064 653.519 792.699> 408 51<206.042 372.06 631.789 792.699>
VStem: 55 51<134.358 309.23> 469 51<135.14 282.077> 891 51<134.358 309.23>
AnchorPoint: "U" 709 495 basechar 0
AnchorPoint: "BS" 709 -53 basechar 0
AnchorPoint: "BD" 501 -53 basechar 0
AnchorPoint: "L" 709 -53 basechar 0
AnchorPoint: "R" 0 0 mark 0
AnchorPoint: "BD" 501 -53 basechar 0
LayerCount: 2
Fore
SplineSet
469 217 m 0
 469 127 394 36 286 36 c 0
 187 36 106 120 106 222 c 0
 106 324 187 408 289 408 c 0
 393 408 469 321 469 217 c 0
942 222 m 0
 942 351 835 459 709 459 c 0
 624 459 543 396 501 316 c 0
 465 400 382 459 286 459 c 0
 159 459 55 351 55 222 c 0
 55 91 157 -15 289 -15 c 0
 439 -15 520 124 520 208 c 0
 520 264 586 408 709 408 c 0
 810 408 891 324 891 222 c 0
 891 120 810 36 709 36 c 0
 693 36 676 39 660 46 c 0
 639 0 l 0
 661 -11 685 -15 709 -15 c 0
 835 -15 942 91 942 222 c 0
EndSplineSet
Substitution2: "sub_single_cligmymr_2 subtable" u1010.kham
Ligature2: "LigatureSubstitutionlookup169 subtable" u1010 u103C
Ligature2: "LigatureSubstitutionlookup167 subtable" u1010 u103C u1031
Ligature2: "LigatureSubstitutionlookup167 subtable" u1010 u103C.wide u1031
Ligature2: "LigatureSubstitutionlookup167 subtable" u1010 u103C_u103D.narr u1031
Ligature2: "LigatureSubstitutionlookup167 subtable" u1010 u103C_u103D.wide u1031
Ligature2: "LigatureSubstitutionlookup165 subtable" u1010 u103C
Ligature2: "LigatureSubstitutionlookup165 subtable" u1010 u103C_u103D.narr
Ligature2: "LigatureSubstitutionlookup165 subtable" u1010 u103C_u102F.narr
Ligature2: "LigatureSubstitutionlookup163 subtable" u1010 u1031
Ligature2: "LigatureSubstitutionlookup163 subtable" u1010 u1084
Ligature2: "LigatureSubstitutionlookup162 subtable" u1010 u103D
Ligature2: "LigatureSubstitutionlookup162 subtable" u1010 u103E
Ligature2: "LigatureSubstitutionlookup162 subtable" u1010 u103D_u103E
Ligature2: "LigatureSubstitutionlookup162 subtable" u1010 u105E
Ligature2: "LigatureSubstitutionlookup162 subtable" u1010 u105F
Ligature2: "LigatureSubstitutionlookup162 subtable" u1010 u1060
Ligature2: "LigatureSubstitutionlookup162 subtable" u1010 u1082
Ligature2: "LigatureSubstitutionlookup158 subtable" u1010 u1039
MultipleSubs2: "MultipleSubstitutionlookup139 subtable" u200C u1031 u1010
MultipleSubs2: "MultipleSubstitutionlookup137 subtable" u200C u1084 u1010
MultipleSubs2: "MultipleSubstitutionlookup136 subtable" u200C u103C_u103D.wide u1010
MultipleSubs2: "MultipleSubstitutionlookup135 subtable" u200C u103C_u102F.wide u1010
MultipleSubs2: "MultipleSubstitutionlookup134 subtable" u200C u103C.wide u1010
Ligature2: "LigatureSubstitutionlookup130 subtable" u1004.kinzi u200D u1010
Ligature2: "LigatureSubstitutionlookup130 subtable" u101B.kinzi u200D u1010
MultipleSubs2: "MultipleSubstitutionlookup129 subtable" u1010 u101B.kinzi
MultipleSubs2: "MultipleSubstitutionlookup128 subtable" u1010 u1004.kinzi
Ligature2: "LigatureSubstitutionlookup127 subtable" u1004.kinzi u200D u1010
Ligature2: "LigatureSubstitutionlookup127 subtable" u101B.kinzi u200D u1010
Ligature2: "LigatureSubstitutionlookup124 subtable" u1004.kinzi u200D u1010
Ligature2: "LigatureSubstitutionlookup124 subtable" u101B.kinzi u200D u1010
EndChar

StartChar: u1010.med
Encoding: 65573 -1 149
Width: 763
VWidth: 0
GlyphClass: 4
Flags: W
HStem: -450 40<149.139 289.6 499.193 613.428> -125 41<149.139 290.137 479.256 613.428>
VStem: 40 39<-338.185 -195.941> 358 41<-339.723 -214.016> 684 39<-338.185 -195.941>
AnchorPoint: "BSM" 104 -53 basemark 0
AnchorPoint: "BDM" -379 -53 mark 0
AnchorPoint: "BD" -379 -53 mark 0
AnchorPoint: "LLM" -104 -53 basemark 0
AnchorPoint: "LM" 867 -53 basemark 0
AnchorPoint: "BSM" 867 -53 mark 0
AnchorPoint: "BD" 384 -53 basemark 0
LayerCount: 2
Fore
SplineSet
358 -270 m 0
 358 -339 303 -410 219 -410 c 0
 141 -410 79 -345 79 -267 c 0
 79 -189 141 -125 219 -125 c 0
 301 -125 358 -191 358 -270 c 0
723 -267 m 0
 723 -165 642 -84 544 -84 c 0
 478 -84 418 -132 384 -194 c 0
 355 -129 292 -84 219 -84 c 0
 120 -84 40 -165 40 -267 c 0
 40 -369 120 -450 219 -450 c 0
 343 -450 399 -328 399 -277 c 0
 399 -232 453 -125 544 -125 c 0
 621 -125 684 -189 684 -267 c 0
 684 -345 621 -410 544 -410 c 0
 532 -410 517 -410 505 -402 c 0
 489 -438 l 0
 505 -447 525 -450 544 -450 c 0
 642 -450 723 -369 723 -267 c 0
EndSplineSet
Ligature2: "LigatureSubstitutionlookup179 subtable" u1010.med u102D
Ligature2: "LigatureSubstitutionlookup179 subtable" u1010.med u102E
Ligature2: "LigatureSubstitutionlookup179 subtable" u1010.med u1032
Ligature2: "LigatureSubstitutionlookup179 subtable" u1010.med u103A
Ligature2: "LigatureSubstitutionlookup171 subtable" u1010.med u103C u1031
Ligature2: "LigatureSubstitutionlookup159 subtable" u1010.med u1031
Ligature2: "LigatureSubstitutionlookup159 subtable" u1010.med u103C
MultipleSubs2: "MultipleSubstitutionlookup138 subtable" u1039 u1010.med
Ligature2: "sub_ligature_cligmymr_0 subtable" u1039 u1010
EndChar

StartChar: u1010_u103D.med
Encoding: 65574 -1 150
Width: 466
VWidth: 0
GlyphClass: 4
Flags: W
HStem: -450 28<278.036 349.048> -300 28<279.428 346.93> -249 31<115.56 194.552 295.429 354.837> -83 32<115.56 194.618 278.747 351.685>
VStem: 57 33<-193.044 -107.81> 228 28<-400.207 -323.563 -180.261 -121.956> 372 28<-398.905 -326.115> 378 33<-195.3 -109.205>
AnchorPoint: "BSM" -231 -53 mark 0
AnchorPoint: "BS" -231 -53 mark 0
AnchorPoint: "BS" 235 -53 basemark 0
AnchorPoint: "LLM" -87 -53 basemark 0
AnchorPoint: "LM" 555 -53 basemark 0
AnchorPoint: "BSM" 555 -53 basemark 0
LayerCount: 2
Fore
SplineSet
222 -152 m 0xfc
 222 -186 189 -218 154 -218 c 0
 120 -218 90 -185 90 -150 c 0
 90 -116 120 -83 154 -83 c 0
 189 -83 222 -117 222 -152 c 0xfc
411 -153 m 0xfd
 411 -101 370 -53 315 -53 c 0
 280 -53 253 -69 235 -98 c 0
 217 -69 189 -51 154 -51 c 0
 100 -51 57 -98 57 -150 c 0
 57 -204 100 -249 154 -249 c 0
 213 -249 252 -204 252 -152 c 0
 252 -123 280 -84 315 -84 c 0
 349 -84 378 -119 378 -153 c 0
 378 -188 349 -219 315 -219 c 0
 309 -219 304 -219 298 -217 c 0
 286 -246 l 0
 294 -250 303 -251 315 -251 c 0
 369 -251 411 -206 411 -153 c 0xfd
372 -363 m 0xfe
 372 -393 345 -422 315 -422 c 0
 283 -422 256 -396 256 -362 c 0
 256 -327 285 -300 315 -300 c 0
 343 -300 372 -332 372 -363 c 0xfe
400 -363 m 0
 400 -315 367 -272 315 -272 c 0
 265 -272 228 -314 228 -362 c 0
 228 -410 265 -450 315 -450 c 0
 363 -450 400 -410 400 -363 c 0
EndSplineSet
Substitution2: "sub_single_cligmymr_4 subtable" u1010_u103D.med.tri
Ligature2: "sub_ligature_cligmymr_4 subtable" u1010.med u103D
Ligature2: "sub_ligature_cligmymr_4 subtable" u1039 u1010 u103D
EndChar

StartChar: u1011
Encoding: 4113 4113 151
Width: 990
VWidth: 0
GlyphClass: 2
Flags: W
HStem: -15 51<203.147 370.899 618.367 785.304> 408 51<206.042 370.744 618.367 785.304>
VStem: 55 51<134.358 309.23> 469 51<133.663 310.337> 883 51<134.358 309.23>
CounterMasks: 1 38
AnchorPoint: "U" 702 495 basechar 0
AnchorPoint: "BS" 702 -53 basechar 0
AnchorPoint: "BD" 495 -53 basechar 0
AnchorPoint: "L" 702 -53 basechar 0
AnchorPoint: "R" 0 0 mark 0
AnchorPoint: "BD" 495 -53 basechar 0
LayerCount: 2
Fore
SplineSet
469 222 m 0
 469 120 388 36 286 36 c 0
 187 36 106 120 106 222 c 0
 106 324 187 408 289 408 c 0
 388 408 469 324 469 222 c 0
883 222 m 0
 883 120 802 36 702 36 c 0
 601 36 520 120 520 222 c 0
 520 324 601 408 702 408 c 0
 802 408 883 324 883 222 c 0
934 222 m 0
 934 351 828 459 702 459 c 0
 612 459 532 406 495 330 c 0
 454 406 378 459 286 459 c 0
 159 459 55 351 55 222 c 0
 55 91 157 -15 289 -15 c 0
 379 -15 454 37 495 114 c 0
 532 37 612 -15 702 -15 c 0
 828 -15 934 91 934 222 c 0
EndSplineSet
Ligature2: "LigatureSubstitutionlookup169 subtable" u1011 u103C
Ligature2: "LigatureSubstitutionlookup167 subtable" u1011 u103C u1031
Ligature2: "LigatureSubstitutionlookup167 subtable" u1011 u103C.wide u1031
Ligature2: "LigatureSubstitutionlookup167 subtable" u1011 u103C_u103D.narr u1031
Ligature2: "LigatureSubstitutionlookup167 subtable" u1011 u103C_u103D.wide u1031
Ligature2: "LigatureSubstitutionlookup165 subtable" u1011 u103C
Ligature2: "LigatureSubstitutionlookup165 subtable" u1011 u103C_u103D.narr
Ligature2: "LigatureSubstitutionlookup165 subtable" u1011 u103C_u102F.narr
Ligature2: "LigatureSubstitutionlookup163 subtable" u1011 u1031
Ligature2: "LigatureSubstitutionlookup163 subtable" u1011 u1084
Ligature2: "LigatureSubstitutionlookup162 subtable" u1011 u103D
Ligature2: "LigatureSubstitutionlookup162 subtable" u1011 u103E
Ligature2: "LigatureSubstitutionlookup162 subtable" u1011 u103D_u103E
Ligature2: "LigatureSubstitutionlookup162 subtable" u1011 u105E
Ligature2: "LigatureSubstitutionlookup162 subtable" u1011 u105F
Ligature2: "LigatureSubstitutionlookup162 subtable" u1011 u1060
Ligature2: "LigatureSubstitutionlookup162 subtable" u1011 u1082
Ligature2: "LigatureSubstitutionlookup158 subtable" u1011 u1039
MultipleSubs2: "MultipleSubstitutionlookup139 subtable" u200C u1031 u1011
MultipleSubs2: "MultipleSubstitutionlookup137 subtable" u200C u1084 u1011
MultipleSubs2: "MultipleSubstitutionlookup136 subtable" u200C u103C_u103D.wide u1011
MultipleSubs2: "MultipleSubstitutionlookup135 subtable" u200C u103C_u102F.wide u1011
MultipleSubs2: "MultipleSubstitutionlookup134 subtable" u200C u103C.wide u1011
Ligature2: "LigatureSubstitutionlookup130 subtable" u1004.kinzi u200D u1011
Ligature2: "LigatureSubstitutionlookup130 subtable" u101B.kinzi u200D u1011
MultipleSubs2: "MultipleSubstitutionlookup129 subtable" u1011 u101B.kinzi
MultipleSubs2: "MultipleSubstitutionlookup128 subtable" u1011 u1004.kinzi
Ligature2: "LigatureSubstitutionlookup127 subtable" u1004.kinzi u200D u1011
Ligature2: "LigatureSubstitutionlookup127 subtable" u101B.kinzi u200D u1011
Ligature2: "LigatureSubstitutionlookup124 subtable" u1004.kinzi u200D u1011
Ligature2: "LigatureSubstitutionlookup124 subtable" u101B.kinzi u200D u1011
EndChar

StartChar: u1011.med
Encoding: 65575 -1 152
Width: 789
VWidth: 0
GlyphClass: 4
Flags: W
HStem: -450 40<164.934 305.179 479.426 618.578> -125 41<164.934 305.179 478.044 618.578>
VStem: 55 39<-338.185 -195.941> 375 34<-334.729 -199.502> 688 45<-343.178 -190.97>
AnchorPoint: "BSM" 88 -53 basemark 0
AnchorPoint: "BDM" -395 -53 mark 0
AnchorPoint: "BD" -395 -53 basemark 0
AnchorPoint: "LLM" 877 -53 basemark 0
AnchorPoint: "LM" -89 -53 basemark 0
AnchorPoint: "BSM" 877 -53 mark 0
AnchorPoint: "BD" 394 -53 mark 0
LayerCount: 2
Fore
SplineSet
375 -267 m 0
 375 -345 312 -410 235 -410 c 0
 157 -410 94 -345 94 -267 c 0
 94 -189 157 -125 235 -125 c 0
 312 -125 375 -189 375 -267 c 0
688 -267 m 0
 688 -345 627 -410 549 -410 c 0
 471 -410 409 -345 409 -267 c 0
 409 -189 471 -125 549 -125 c 0
 627 -125 688 -189 688 -267 c 0
733 -267 m 0
 733 -165 651 -84 553 -84 c 0
 483 -84 424 -126 394 -185 c 0
 364 -126 306 -84 235 -84 c 0
 136 -84 55 -165 55 -267 c 0
 55 -369 136 -450 235 -450 c 0
 306 -450 364 -408 394 -350 c 0
 424 -408 483 -450 553 -450 c 0
 651 -450 733 -369 733 -267 c 0
EndSplineSet
Ligature2: "LigatureSubstitutionlookup179 subtable" u1011.med u102D
Ligature2: "LigatureSubstitutionlookup179 subtable" u1011.med u102E
Ligature2: "LigatureSubstitutionlookup179 subtable" u1011.med u1032
Ligature2: "LigatureSubstitutionlookup179 subtable" u1011.med u103A
Ligature2: "LigatureSubstitutionlookup171 subtable" u1011.med u103C u1031
Ligature2: "LigatureSubstitutionlookup159 subtable" u1011.med u1031
Ligature2: "LigatureSubstitutionlookup159 subtable" u1011.med u103C
MultipleSubs2: "MultipleSubstitutionlookup138 subtable" u1039 u1011.med
Ligature2: "sub_ligature_cligmymr_0 subtable" u1039 u1011
EndChar

StartChar: u1012
Encoding: 4114 4114 153
Width: 534
VWidth: 0
GlyphClass: 2
Flags: W
HStem: -15 51<151.962 381.662> 196 51<286 384.831> 408 51<151.962 381.662>
VStem: 55 47<77.9247 115 328 365.507> 427 51<74.4064 162.74 280.713 369.393>
AnchorPoint: "U" 267 495 basechar 0
AnchorPoint: "BS" 267 -53 basechar 0
AnchorPoint: "BD" 267 -53 basechar 0
AnchorPoint: "L" 267 -53 basechar 0
AnchorPoint: "R" 0 0 mark 0
LayerCount: 2
Fore
SplineSet
478 123 m 0
 478 169 447 211 394 222 c 0
 447 232 478 274 478 321 c 0
 478 397 415 459 267 459 c 0
 129 459 55 405 55 328 c 0
 102 310 l 0
 102 378 165 408 267 408 c 0
 345 408 427 387 427 321 c 0
 427 262 333 252 286 247 c 0
 286 196 l 0
 333 192 427 181 427 123 c 0
 427 57 345 36 267 36 c 0
 165 37 102 66 102 133 c 0
 55 115 l 0
 55 39 129 -15 267 -15 c 0
 415 -15 478 46 478 123 c 0
EndSplineSet
Position2: "SinglePositioninglookup48 per glyph data 0" dx=100 dy=0 dh=50 dv=0
Position2: "SinglePositioninglookup30 subtable" dx=140 dy=0 dh=140 dv=0
PairPos2: "PairwisePositioningkerninglooku subtable" u1000.med dx=0 dy=0 dh=90 dv=0 dx=0 dy=0 dh=90 dv=0
PairPos2: "PairwisePositioningkerninglooku subtable" u1003.med dx=0 dy=0 dh=90 dv=0 dx=0 dy=0 dh=90 dv=0
PairPos2: "PairwisePositioningkerninglooku subtable" u1006.med dx=0 dy=0 dh=90 dv=0 dx=0 dy=0 dh=90 dv=0
PairPos2: "PairwisePositioningkerninglooku subtable" u100A.med dx=0 dy=0 dh=90 dv=0 dx=0 dy=0 dh=90 dv=0
PairPos2: "PairwisePositioningkerninglooku subtable" u100C.med dx=0 dy=0 dh=90 dv=0 dx=0 dy=0 dh=90 dv=0
PairPos2: "PairwisePositioningkerninglooku subtable" u100F.med dx=0 dy=0 dh=90 dv=0 dx=0 dy=0 dh=90 dv=0
PairPos2: "PairwisePositioningkerninglooku subtable" u1010.med dx=0 dy=0 dh=90 dv=0 dx=0 dy=0 dh=90 dv=0
PairPos2: "PairwisePositioningkerninglooku subtable" u1011.med dx=0 dy=0 dh=90 dv=0 dx=0 dy=0 dh=90 dv=0
PairPos2: "PairwisePositioningkerninglooku subtable" u1018.med dx=0 dy=0 dh=90 dv=0 dx=0 dy=0 dh=90 dv=0
PairPos2: "PairwisePositioningkerninglooku subtable" u101A.med dx=0 dy=0 dh=90 dv=0 dx=0 dy=0 dh=90 dv=0
PairPos2: "PairwisePositioningkerninglooku subtable" u101C.med dx=0 dy=0 dh=90 dv=0 dx=0 dy=0 dh=90 dv=0
PairPos2: "PairwisePositioningkerninglooku subtable" u101C.med_u103D dx=0 dy=0 dh=90 dv=0 dx=0 dy=0 dh=90 dv=0
PairPos2: "PairwisePositioningkerninglooku subtable" u101E.med dx=0 dy=0 dh=90 dv=0 dx=0 dy=0 dh=90 dv=0
PairPos2: "PairwisePositioningkerninglooku subtable" u1021.med dx=0 dy=0 dh=90 dv=0 dx=0 dy=0 dh=90 dv=0
PairPos2: "PairwisePositioningkerninglooku subtable" uAA60.med dx=0 dy=0 dh=90 dv=0 dx=0 dy=0 dh=90 dv=0
PairPos2: "PairwisePositioningkerninglooku subtable" uAA60.med.kham dx=0 dy=0 dh=90 dv=0 dx=0 dy=0 dh=90 dv=0
Ligature2: "LigatureSubstitutionlookup169 subtable" u1012 u103C
Ligature2: "LigatureSubstitutionlookup167 subtable" u1012 u103C u1031
Ligature2: "LigatureSubstitutionlookup167 subtable" u1012 u103C.wide u1031
Ligature2: "LigatureSubstitutionlookup167 subtable" u1012 u103C_u103D.narr u1031
Ligature2: "LigatureSubstitutionlookup167 subtable" u1012 u103C_u103D.wide u1031
Ligature2: "LigatureSubstitutionlookup165 subtable" u1012 u103C
Ligature2: "LigatureSubstitutionlookup165 subtable" u1012 u103C_u103D.narr
Ligature2: "LigatureSubstitutionlookup165 subtable" u1012 u103C_u102F.narr
Ligature2: "LigatureSubstitutionlookup163 subtable" u1012 u1031
Ligature2: "LigatureSubstitutionlookup163 subtable" u1012 u1084
Ligature2: "LigatureSubstitutionlookup162 subtable" u1012 u103D
Ligature2: "LigatureSubstitutionlookup162 subtable" u1012 u103E
Ligature2: "LigatureSubstitutionlookup162 subtable" u1012 u103D_u103E
Ligature2: "LigatureSubstitutionlookup162 subtable" u1012 u105E
Ligature2: "LigatureSubstitutionlookup162 subtable" u1012 u105F
Ligature2: "LigatureSubstitutionlookup162 subtable" u1012 u1060
Ligature2: "LigatureSubstitutionlookup162 subtable" u1012 u1082
Ligature2: "LigatureSubstitutionlookup158 subtable" u1012 u1039
MultipleSubs2: "MultipleSubstitutionlookup139 subtable" u200C u1031 u1012
MultipleSubs2: "MultipleSubstitutionlookup137 subtable" u200C u1084 u1012
MultipleSubs2: "MultipleSubstitutionlookup136 subtable" u200C u103C_u103D.narr u1012
MultipleSubs2: "MultipleSubstitutionlookup135 subtable" u200C u103C_u102F.narr u1012
MultipleSubs2: "MultipleSubstitutionlookup134 subtable" u200C u103C u1012
Ligature2: "LigatureSubstitutionlookup130 subtable" u1004.kinzi u200D u1012
Ligature2: "LigatureSubstitutionlookup130 subtable" u101B.kinzi u200D u1012
MultipleSubs2: "MultipleSubstitutionlookup129 subtable" u1012 u101B.kinzi
MultipleSubs2: "MultipleSubstitutionlookup128 subtable" u1012 u1004.kinzi
Ligature2: "LigatureSubstitutionlookup127 subtable" u1004.kinzi u200D u1012
Ligature2: "LigatureSubstitutionlookup127 subtable" u101B.kinzi u200D u1012
Ligature2: "LigatureSubstitutionlookup124 subtable" u1004.kinzi u200D u1012
Ligature2: "LigatureSubstitutionlookup124 subtable" u101B.kinzi u200D u1012
EndChar

StartChar: u1012.med
Encoding: 65576 -1 154
Width: 444
VWidth: 0
GlyphClass: 4
Flags: W
HStem: -450 39<125.833 312.15> -123 39<125.833 312.15>
VStem: 55 36<-378.356 -350 -185 -153.863> 343 39<-383.329 -311.743 -223.222 -150.841>
AnchorPoint: "BSM" -225 -53 mark 0
AnchorPoint: "BS" -225 -53 mark 0
AnchorPoint: "BS" 219 -53 basemark 0
AnchorPoint: "LLM" -89 -53 basemark 0
AnchorPoint: "LM" 526 -53 basemark 0
AnchorPoint: "BSM" 526 -53 basemark 0
LayerCount: 2
Fore
SplineSet
382 -344 m 0
 382 -308 357 -273 316 -267 c 0
 357 -260 382 -227 382 -191 c 0
 382 -131 333 -84 219 -84 c 0
 112 -84 55 -126 55 -185 c 0
 91 -200 l 0
 91 -147 139 -123 219 -123 c 0
 279 -123 342 -138 343 -191 c 0
 343 -234 268 -248 234 -248 c 0
 234 -287 l 0
 268 -291 343 -300 343 -344 c 0
 342 -396 279 -411 219 -411 c 0
 139 -410 91 -387 91 -335 c 0
 55 -350 l 0
 55 -408 112 -450 219 -450 c 0
 333 -450 382 -402 382 -344 c 0
EndSplineSet
Ligature2: "LigatureSubstitutionlookup179 subtable" u1012.med u102D
Ligature2: "LigatureSubstitutionlookup179 subtable" u1012.med u102E
Ligature2: "LigatureSubstitutionlookup179 subtable" u1012.med u1032
Ligature2: "LigatureSubstitutionlookup179 subtable" u1012.med u103A
Ligature2: "LigatureSubstitutionlookup171 subtable" u1012.med u103C u1031
Ligature2: "LigatureSubstitutionlookup159 subtable" u1012.med u1031
Ligature2: "LigatureSubstitutionlookup159 subtable" u1012.med u103C
MultipleSubs2: "MultipleSubstitutionlookup138 subtable" u1039 u1012.med
Ligature2: "sub_ligature_cligmymr_0 subtable" u1039 u1012
EndChar

StartChar: u1013
Encoding: 4115 4115 155
Width: 576
VWidth: 0
GlyphClass: 2
Flags: W
HStem: -15 51<202.619 370.45> 171 51<205.852 374.677> 408 51<205.842 371.853>
VStem: 55 51<155.533 309.008> 469 51<155.556 309.008>
AnchorPoint: "U" 288 495 basechar 0
AnchorPoint: "BS" 288 -53 basechar 0
AnchorPoint: "BD" 288 -53 basechar 0
AnchorPoint: "L" 288 -53 basechar 0
AnchorPoint: "R" 0 0 mark 0
LayerCount: 2
Fore
SplineSet
430 108 m 0
 397 64 345 36 286 36 c 0
 230 36 180 62 145 106 c 0
 200 158 256 171 289 171 c 0
 324 171 378 160 430 108 c 0
469 222 m 0
 469 198 465 175 456 153 c 0
 404 205 342 222 286 222 c 0
 234 222 172 205 120 153 c 0
 111 174 106 197 106 222 c 0
 106 323 187 408 289 408 c 0
 388 408 469 323 469 222 c 0
520 222 m 0
 520 351 418 459 286 459 c 0
 158 459 55 351 55 222 c 0
 55 91 157 -15 289 -15 c 0
 417 -15 520 91 520 222 c 0
EndSplineSet
Position2: "SinglePositioninglookup48 per glyph data 0" dx=100 dy=0 dh=50 dv=0
Position2: "SinglePositioninglookup30 subtable" dx=140 dy=0 dh=140 dv=0
PairPos2: "PairwisePositioningkerninglooku subtable" u1000.med dx=0 dy=0 dh=90 dv=0 dx=0 dy=0 dh=90 dv=0
PairPos2: "PairwisePositioningkerninglooku subtable" u1003.med dx=0 dy=0 dh=90 dv=0 dx=0 dy=0 dh=90 dv=0
PairPos2: "PairwisePositioningkerninglooku subtable" u1006.med dx=0 dy=0 dh=90 dv=0 dx=0 dy=0 dh=90 dv=0
PairPos2: "PairwisePositioningkerninglooku subtable" u100A.med dx=0 dy=0 dh=90 dv=0 dx=0 dy=0 dh=90 dv=0
PairPos2: "PairwisePositioningkerninglooku subtable" u100C.med dx=0 dy=0 dh=90 dv=0 dx=0 dy=0 dh=90 dv=0
PairPos2: "PairwisePositioningkerninglooku subtable" u100F.med dx=0 dy=0 dh=90 dv=0 dx=0 dy=0 dh=90 dv=0
PairPos2: "PairwisePositioningkerninglooku subtable" u1010.med dx=0 dy=0 dh=90 dv=0 dx=0 dy=0 dh=90 dv=0
PairPos2: "PairwisePositioningkerninglooku subtable" u1011.med dx=0 dy=0 dh=90 dv=0 dx=0 dy=0 dh=90 dv=0
PairPos2: "PairwisePositioningkerninglooku subtable" u1018.med dx=0 dy=0 dh=90 dv=0 dx=0 dy=0 dh=90 dv=0
PairPos2: "PairwisePositioningkerninglooku subtable" u101A.med dx=0 dy=0 dh=90 dv=0 dx=0 dy=0 dh=90 dv=0
PairPos2: "PairwisePositioningkerninglooku subtable" u101C.med dx=0 dy=0 dh=90 dv=0 dx=0 dy=0 dh=90 dv=0
PairPos2: "PairwisePositioningkerninglooku subtable" u101C.med_u103D dx=0 dy=0 dh=90 dv=0 dx=0 dy=0 dh=90 dv=0
PairPos2: "PairwisePositioningkerninglooku subtable" u101E.med dx=0 dy=0 dh=90 dv=0 dx=0 dy=0 dh=90 dv=0
PairPos2: "PairwisePositioningkerninglooku subtable" u1021.med dx=0 dy=0 dh=90 dv=0 dx=0 dy=0 dh=90 dv=0
PairPos2: "PairwisePositioningkerninglooku subtable" uAA60.med dx=0 dy=0 dh=90 dv=0 dx=0 dy=0 dh=90 dv=0
PairPos2: "PairwisePositioningkerninglooku subtable" uAA60.med.kham dx=0 dy=0 dh=90 dv=0 dx=0 dy=0 dh=90 dv=0
Ligature2: "LigatureSubstitutionlookup169 subtable" u1013 u103C
Ligature2: "LigatureSubstitutionlookup167 subtable" u1013 u103C u1031
Ligature2: "LigatureSubstitutionlookup167 subtable" u1013 u103C.wide u1031
Ligature2: "LigatureSubstitutionlookup167 subtable" u1013 u103C_u103D.narr u1031
Ligature2: "LigatureSubstitutionlookup167 subtable" u1013 u103C_u103D.wide u1031
Ligature2: "LigatureSubstitutionlookup165 subtable" u1013 u103C
Ligature2: "LigatureSubstitutionlookup165 subtable" u1013 u103C_u103D.narr
Ligature2: "LigatureSubstitutionlookup165 subtable" u1013 u103C_u102F.narr
Ligature2: "LigatureSubstitutionlookup163 subtable" u1013 u1031
Ligature2: "LigatureSubstitutionlookup163 subtable" u1013 u1084
Ligature2: "LigatureSubstitutionlookup162 subtable" u1013 u103D
Ligature2: "LigatureSubstitutionlookup162 subtable" u1013 u103E
Ligature2: "LigatureSubstitutionlookup162 subtable" u1013 u103D_u103E
Ligature2: "LigatureSubstitutionlookup162 subtable" u1013 u105E
Ligature2: "LigatureSubstitutionlookup162 subtable" u1013 u105F
Ligature2: "LigatureSubstitutionlookup162 subtable" u1013 u1060
Ligature2: "LigatureSubstitutionlookup162 subtable" u1013 u1082
Ligature2: "LigatureSubstitutionlookup158 subtable" u1013 u1039
MultipleSubs2: "MultipleSubstitutionlookup139 subtable" u200C u1031 u1013
MultipleSubs2: "MultipleSubstitutionlookup137 subtable" u200C u1084 u1013
MultipleSubs2: "MultipleSubstitutionlookup136 subtable" u200C u103C_u103D.narr u1013
MultipleSubs2: "MultipleSubstitutionlookup135 subtable" u200C u103C_u102F.narr u1013
MultipleSubs2: "MultipleSubstitutionlookup134 subtable" u200C u103C u1013
Ligature2: "LigatureSubstitutionlookup130 subtable" u1004.kinzi u200D u1013
Ligature2: "LigatureSubstitutionlookup130 subtable" u101B.kinzi u200D u1013
MultipleSubs2: "MultipleSubstitutionlookup129 subtable" u1013 u101B.kinzi
MultipleSubs2: "MultipleSubstitutionlookup128 subtable" u1013 u1004.kinzi
Ligature2: "LigatureSubstitutionlookup127 subtable" u1004.kinzi u200D u1013
Ligature2: "LigatureSubstitutionlookup127 subtable" u101B.kinzi u200D u1013
Ligature2: "LigatureSubstitutionlookup124 subtable" u1004.kinzi u200D u1013
Ligature2: "LigatureSubstitutionlookup124 subtable" u101B.kinzi u200D u1013
EndChar

StartChar: u1013.med
Encoding: 65577 -1 156
Width: 468
VWidth: 0
GlyphClass: 4
Flags: W
HStem: -450 40<163.647 303.97> -300 34<170.79 299.118> -125 41<164.139 302.791>
VStem: 55 39<-318.247 -195.941> 373 39<-318.316 -195.941>
AnchorPoint: "BSM" -234 -53 mark 0
AnchorPoint: "BS" -234 -53 mark 0
AnchorPoint: "BS" 234 -53 basemark 0
AnchorPoint: "LLM" -89 -53 basemark 0
AnchorPoint: "LM" 556 -53 basemark 0
AnchorPoint: "BSM" 556 -53 basemark 0
LayerCount: 2
Fore
SplineSet
346 -351 m 0
 321 -386 286 -410 234 -410 c 0
 181 -410 148 -386 123 -351 c 0
 165 -311 205 -300 234 -300 c 0
 262 -300 306 -311 346 -351 c 0
373 -267 m 0
 373 -287 370 -303 364 -320 c 0
 324 -279 276 -266 234 -266 c 0
 192 -266 145 -279 105 -320 c 0
 97 -300 94 -284 94 -267 c 0
 94 -189 156 -125 234 -125 c 0
 310 -125 373 -189 373 -267 c 0
412 -267 m 0
 412 -165 331 -84 234 -84 c 0
 135 -84 55 -165 55 -267 c 0
 55 -369 135 -450 234 -450 c 0
 331 -450 412 -369 412 -267 c 0
EndSplineSet
Ligature2: "LigatureSubstitutionlookup179 subtable" u1013.med u102D
Ligature2: "LigatureSubstitutionlookup179 subtable" u1013.med u102E
Ligature2: "LigatureSubstitutionlookup179 subtable" u1013.med u1032
Ligature2: "LigatureSubstitutionlookup179 subtable" u1013.med u103A
Ligature2: "LigatureSubstitutionlookup171 subtable" u1013.med u103C u1031
Ligature2: "LigatureSubstitutionlookup159 subtable" u1013.med u1031
Ligature2: "LigatureSubstitutionlookup159 subtable" u1013.med u103C
MultipleSubs2: "MultipleSubstitutionlookup138 subtable" u1039 u1013.med
Ligature2: "sub_ligature_cligmymr_0 subtable" u1039 u1013
EndChar

